<svg id="logohomeir_alhome" data-name="logohomeir alhome" xmlns="http://www.w3.org/2000/svg" width="320" height="104" viewBox="0 0 320 104">
  <path id="Rect치ngulo_1704" data-name="Rect치ngulo 1704" d="M0,0H320a0,0,0,0,1,0,0V84a20,20,0,0,1-20,20H0a0,0,0,0,1,0,0V0A0,0,0,0,1,0,0Z" fill="#025b93"/>
  <g id="Grupo_175" data-name="Grupo 175" transform="translate(-28.349 -39.259)">
    <g id="Grupo_8" data-name="Grupo 8" transform="translate(59.349 54.759)">
      <path id="Trazado_291" data-name="Trazado 291" d="M129.46,124.872H70.085a10.735,10.735,0,0,1-10.736-10.736V65.495A10.736,10.736,0,0,1,70.085,54.759h48.641A10.735,10.735,0,0,1,129.46,65.495Z" transform="translate(-59.349 -54.759)" fill="#fff"/>
      <g id="Grupo_7" data-name="Grupo 7" transform="translate(7.255 9.117)">
        <path id="Trazado_292" data-name="Trazado 292" d="M122.13,168.671v-9.913l-4.8-3.655,4.728,1.109-1.339-4.922,2.964,1.7,1.271-3.813,1.694,5.931,5.932-.848-5.084,4.144v10.273l4.406,4.8H117.577Z" transform="translate(-96.448 -112.472)" fill="#025b93"/>
        <g id="Grupo_6" data-name="Grupo 6">
          <path id="Trazado_293" data-name="Trazado 293" d="M182.507,120.431a3.861,3.861,0,0,0-4.033.658c-2.139,1.649-1.766,4.828-1.766,4.828a4.683,4.683,0,0,0,3.84-.846A4.45,4.45,0,0,0,182.507,120.431Z" transform="translate(-127 -97.527)" fill="#025b93"/>
          <path id="Trazado_294" data-name="Trazado 294" d="M164.54,111.179a4.989,4.989,0,0,0,1.94,4.127c2.184,1.723,4.95.259,4.95.259a4.985,4.985,0,0,0-1.844-3.937C167.518,110.005,164.54,111.179,164.54,111.179Z" transform="translate(-120.745 -92.706)" fill="#025b93"/>
          <path id="Trazado_295" data-name="Trazado 295" d="M174.392,94.625a4.739,4.739,0,0,0-.787,4.248c.7,2.578,3.59,3.093,3.59,3.093a4.745,4.745,0,0,0,.758-4.048C177.278,95.483,174.392,94.625,174.392,94.625Z" transform="translate(-125.319 -84.396)" fill="#025b93"/>
          <path id="Trazado_296" data-name="Trazado 296" d="M157.368,83.456s-2.047-.647-3.861,1.8a5.559,5.559,0,0,0-.7,4.608,4.241,4.241,0,0,0,4.04-1.768A4.53,4.53,0,0,0,157.368,83.456Z" transform="translate(-114.597 -78.607)" fill="#025b93"/>
          <path id="Trazado_297" data-name="Trazado 297" d="M143.681,76.116s-2.255.093-3.233,3.179a5.832,5.832,0,0,0,.855,4.837,4.59,4.59,0,0,0,3.42-3.216A4.731,4.731,0,0,0,143.681,76.116Z" transform="translate(-108.232 -74.869)" fill="#025b93"/>
          <path id="Trazado_298" data-name="Trazado 298" d="M131.142,73.546a5.6,5.6,0,0,0-2.284,3.966,5.23,5.23,0,0,0,2.084,4.417,4.709,4.709,0,0,0,2.458-4.053A4.646,4.646,0,0,0,131.142,73.546Z" transform="translate(-102.37 -73.546)" fill="#025b93"/>
          <path id="Trazado_299" data-name="Trazado 299" d="M113.859,78.2a5.757,5.757,0,0,0,1.067,4.483,4.9,4.9,0,0,0,4.483,1.624,4.7,4.7,0,0,0-1.221-4.571A6.114,6.114,0,0,0,113.859,78.2Z" transform="translate(-94.615 -75.939)" fill="#025b93"/>
          <path id="Trazado_300" data-name="Trazado 300" d="M130.721,95.238a4.789,4.789,0,0,0-4.265-1.246,5,5,0,0,0-3.688,3.294,6.746,6.746,0,0,0,4.554,1.08C129.854,97.984,130.721,95.238,130.721,95.238Z" transform="translate(-99.248 -84.033)" fill="#025b93"/>
          <path id="Trazado_301" data-name="Trazado 301" d="M114.056,116.331a4.932,4.932,0,0,0,0,4.364,4.671,4.671,0,0,0,3.881,2.643,6.991,6.991,0,0,0-.219-4.594A4.4,4.4,0,0,0,114.056,116.331Z" transform="translate(-94.509 -95.569)" fill="#025b93"/>
          <path id="Trazado_302" data-name="Trazado 302" d="M98.479,85.149A5.734,5.734,0,0,0,99.973,89.5a4.86,4.86,0,0,0,4.611,1.158,4.671,4.671,0,0,0-1.651-4.423A6.091,6.091,0,0,0,98.479,85.149Z" transform="translate(-86.734 -79.487)" fill="#025b93"/>
          <path id="Trazado_303" data-name="Trazado 303" d="M86.044,95.486a5.385,5.385,0,0,0-1.889,4.071c-.124,2.81,2.775,4.433,2.775,4.433a5.938,5.938,0,0,0,1.689-4.475A6.272,6.272,0,0,0,86.044,95.486Z" transform="translate(-79.371 -84.839)" fill="#025b93"/>
          <path id="Trazado_304" data-name="Trazado 304" d="M96.311,102.353a6.017,6.017,0,0,0,.749,4.719,5.053,5.053,0,0,0,4.479,2.055,7.652,7.652,0,0,0-.9-4.822C99.285,102.173,96.311,102.353,96.311,102.353Z" transform="translate(-85.533 -88.372)" fill="#025b93"/>
          <path id="Trazado_305" data-name="Trazado 305" d="M109.9,102.99a4.382,4.382,0,0,0,2.469,3.664c2.5,1.35,5.243-.49,5.243-.49a4.941,4.941,0,0,0-2.557-3.388C112.79,101.546,109.9,102.99,109.9,102.99Z" transform="translate(-92.623 -88.336)" fill="#025b93"/>
          <path id="Trazado_306" data-name="Trazado 306" d="M144.016,102.524a4.414,4.414,0,0,0-1.435,4.216c.4,2.893,3.44,4.126,3.44,4.126a5.614,5.614,0,0,0,1.171-4.126A4.746,4.746,0,0,0,144.016,102.524Z" transform="translate(-109.417 -88.462)" fill="#025b93"/>
          <path id="Trazado_307" data-name="Trazado 307" d="M155.705,115.053a4.408,4.408,0,0,0-1.789,4.069c.16,2.916,3.081,4.421,3.081,4.421a5.376,5.376,0,0,0,1.514-4A4.576,4.576,0,0,0,155.705,115.053Z" transform="translate(-115.277 -94.911)" fill="#025b93"/>
          <path id="Trazado_308" data-name="Trazado 308" d="M164.813,129.348a4.032,4.032,0,0,0-3.571,2.2c-1.424,2.388.071,5.222.071,5.222a4.921,4.921,0,0,0,3.323-2.3A4.526,4.526,0,0,0,164.813,129.348Z" transform="translate(-118.736 -102.267)" fill="#025b93"/>
          <path id="Trazado_309" data-name="Trazado 309" d="M175.463,136.074a5.183,5.183,0,0,0-3.72,4.588c1.437,1.01,4.4.5,5.567-.628a4.989,4.989,0,0,0,1.455-3.508A4.321,4.321,0,0,0,175.463,136.074Z" transform="translate(-124.457 -105.648)" fill="#025b93"/>
          <path id="Trazado_310" data-name="Trazado 310" d="M168.219,150.56a4.9,4.9,0,0,0-4.135,3.815c1.226,1.158,4.1,1.1,5.352.2a4.741,4.741,0,0,0,1.849-3.118A4.151,4.151,0,0,0,168.219,150.56Z" transform="translate(-120.515 -113.165)" fill="#025b93"/>
          <path id="Trazado_311" data-name="Trazado 311" d="M152.528,149a5.178,5.178,0,0,0-3.825,4.5c1.41,1.04,4.386.611,5.574-.487a5,5,0,0,0,1.54-3.472A4.336,4.336,0,0,0,152.528,149Z" transform="translate(-112.598 -112.317)" fill="#025b93"/>
          <path id="Trazado_312" data-name="Trazado 312" d="M140.727,141.531a4.783,4.783,0,0,0-5.464,2.106c.68,1.653,2.911,2.723,5.007,2.59a3.911,3.911,0,0,0,3.059-2.137C142.43,142.7,141.643,141.8,140.727,141.531Z" transform="translate(-105.68 -108.425)" fill="#025b93"/>
          <path id="Trazado_313" data-name="Trazado 313" d="M115.224,143.436a4.966,4.966,0,0,0,5.415-2.109c-.773-1.61-3.594-2.675-5.146-2.281a4.778,4.778,0,0,0-2.933,2.316A4.511,4.511,0,0,0,115.224,143.436Z" transform="translate(-93.994 -107.218)" fill="#025b93"/>
          <path id="Trazado_314" data-name="Trazado 314" d="M107.294,126.745a4.75,4.75,0,0,0-3.11,3.792c-.506,3.414,1.225,4.023,1.225,4.023,1.551-.115,2.772-2.758,2.772-2.758C109.29,128.126,107.294,126.745,107.294,126.745Z" transform="translate(-89.635 -100.929)" fill="#025b93"/>
          <path id="Trazado_315" data-name="Trazado 315" d="M91.022,122.484a4.444,4.444,0,0,0,4.108,1.954,3.9,3.9,0,0,0,3.66-2.99,5.107,5.107,0,0,0-4.105-1.377A6.455,6.455,0,0,0,91.022,122.484Z" transform="translate(-82.908 -97.47)" fill="#025b93"/>
          <path id="Trazado_316" data-name="Trazado 316" d="M77.823,113.966a5.486,5.486,0,0,0-.237,4.506c.929,2.646,4.209,2.99,4.209,2.99a5.244,5.244,0,0,0-3.972-7.5Z" transform="translate(-75.807 -94.351)" fill="#025b93"/>
          <path id="Trazado_317" data-name="Trazado 317" d="M74.32,131.829a5.456,5.456,0,0,0,1.578,4.207c1.9,2.016,5.029.929,5.029.929a5.948,5.948,0,0,0-2.005-4.332A5.878,5.878,0,0,0,74.32,131.829Z" transform="translate(-74.3 -103.463)" fill="#025b93"/>
          <path id="Trazado_318" data-name="Trazado 318" d="M86.447,153.026a4.442,4.442,0,0,0,4.107,1.951,3.9,3.9,0,0,0,3.663-2.988,5.126,5.126,0,0,0-4.107-1.378A6.473,6.473,0,0,0,86.447,153.026Z" transform="translate(-80.553 -113.19)" fill="#025b93"/>
          <path id="Trazado_319" data-name="Trazado 319" d="M104.229,156.964a4.145,4.145,0,0,0,4.63-.409,4.271,4.271,0,0,0,2.14-4.292,3.9,3.9,0,0,0-4.437.332C104.8,153.841,104.229,156.964,104.229,156.964Z" transform="translate(-89.706 -113.791)" fill="#025b93"/>
          <path id="Trazado_320" data-name="Trazado 320" d="M126.137,130.388a4.784,4.784,0,0,1,0-3.448,4.589,4.589,0,0,1,3.548,1.036c1.236,1.043,2.112,4.02,1.334,5.63A4.99,4.99,0,0,1,126.137,130.388Z" transform="translate(-100.82 -101.008)" fill="#f36a10"/>
          <path id="Trazado_321" data-name="Trazado 321" d="M147.064,129.214a4.753,4.753,0,0,1,.994,3.289,4.593,4.593,0,0,1-3.687.113c-1.479-.617-3.173-3.188-2.893-4.963A4.9,4.9,0,0,1,147.064,129.214Z" transform="translate(-108.863 -101.233)" fill="#f36a10"/>
          <path id="Trazado_322" data-name="Trazado 322" d="M131.789,106.371a5.48,5.48,0,0,1,2.332,4.042,4.763,4.763,0,0,1-1.882,4.43,5.185,5.185,0,0,1-.45-8.471Z" transform="translate(-102.87 -90.442)" fill="#f36a10"/>
          <path id="Trazado_323" data-name="Trazado 323" d="M160.882,100.29a4.316,4.316,0,0,1-3.436,3.017,4.259,4.259,0,0,1-4.116-1.564,5.262,5.262,0,0,1,3.55-2.871C159.816,98.369,160.882,100.29,160.882,100.29Z" transform="translate(-114.979 -86.539)" fill="#f36a10"/>
          <path id="Trazado_324" data-name="Trazado 324" d="M92.654,133.138s2.456-.505,4.043,3c0,0,.82,2.842-.3,4.1,0,0-1.735.862-3.612-2A5.1,5.1,0,0,1,92.654,133.138Z" transform="translate(-83.42 -104.207)" fill="#f36a10"/>
        </g>
      </g>
    </g>
    <g id="Grupo_9" data-name="Grupo 9" transform="translate(142.872 63.431)">
      <path id="Trazado_325" data-name="Trazado 325" d="M231.98,96.824h3.268a.514.514,0,0,0,.514-.514V80.168l13.3,16.465a.514.514,0,0,0,.4.191h3.795a.509.509,0,0,1,.833,0h3.516a.514.514,0,0,0,.471-.308l2.672-6.107h10.123l2.672,6.107a.514.514,0,0,0,.471.308h3.731a.514.514,0,0,0,.468-.725l-9.96-22.021a.514.514,0,0,0-.468-.3h-3.733a.514.514,0,0,0-.468.3l-9.814,21.691V74.29a.514.514,0,0,0-.513-.514h-3.27a.514.514,0,0,0-.514.514V90.43l-13.3-16.463a.514.514,0,0,0-.4-.191H231.98a.514.514,0,0,0-.514.514V96.31A.514.514,0,0,0,231.98,96.824Zm30.446-10.281,3.363-7.928,3.437,7.928Z" transform="translate(-231.466 -73.22)" fill="#fff"/>
      <path id="Trazado_326" data-name="Trazado 326" d="M348.373,87.3a.512.512,0,0,0-.513-.513h-3.272a.513.513,0,0,0-.5.405c-1.023,4.738-4.484,5.733-7.207,5.733-5.761,0-7.813-4.1-7.813-7.938,0-5.476,2.84-8.491,8-8.491,3.867,0,6.49,1.948,7.018,5.213a.514.514,0,0,0,.508.432h3.27a.515.515,0,0,0,.512-.557,8.846,8.846,0,0,0-4.321-7.113,14.388,14.388,0,0,0-7.232-1.84,11.893,11.893,0,0,0-8.965,3.509,12.156,12.156,0,0,0-3.084,8.509c0,4.042,1.344,7.3,3.886,9.423a12.743,12.743,0,0,0,8.194,2.718,12.053,12.053,0,0,0,8-2.784,10.2,10.2,0,0,0,3.515-6.615A.565.565,0,0,0,348.373,87.3Z" transform="translate(-279.491 -72.63)" fill="#fff"/>
      <rect id="Rect치ngulo_1460" data-name="Rect치ngulo 1460" width="4.298" height="23.048" rx="1.059" transform="translate(70.352 0.556)" fill="#fff"/>
      <path id="Trazado_327" data-name="Trazado 327" d="M410.463,92.952A12.282,12.282,0,0,0,413.4,84.71c0-5.572-3.341-12.08-12.758-12.08-4.182,0-7.58,1.327-9.825,3.838a12.282,12.282,0,0,0-2.933,8.242c0,5.573,3.342,12.08,12.758,12.08C404.821,96.79,408.218,95.463,410.463,92.952ZM409.1,84.71c0,6.057-4.37,8.215-8.46,8.215s-8.461-2.158-8.461-8.215,4.371-8.214,8.461-8.214S409.1,78.654,409.1,84.71Z" transform="translate(-311.977 -72.63)" fill="#fff"/>
      <path id="Trazado_328" data-name="Trazado 328" d="M506.5,92.958H493.631V74.29a.514.514,0,0,0-.514-.514h-3.268a.514.514,0,0,0-.514.514V95.773l-9.813-21.7a.514.514,0,0,0-.468-.3h-3.733a.514.514,0,0,0-.468.3l-9.811,21.686V74.29a.514.514,0,0,0-.514-.514h-3.27a.514.514,0,0,0-.514.514V90.43l-13.3-16.463a.513.513,0,0,0-.4-.191h-3.793a.514.514,0,0,0-.514.514V96.31a.514.514,0,0,0,.514.514h3.268a.514.514,0,0,0,.514-.514V80.168l13.3,16.465a.514.514,0,0,0,.4.191h3.795a.509.509,0,0,1,.831,0h3.516a.514.514,0,0,0,.471-.308l2.672-6.107h10.123l2.672,6.107a.514.514,0,0,0,.471.308h3.731a.51.51,0,0,1,.835,0H506.5a.514.514,0,0,0,.514-.514V93.472A.514.514,0,0,0,506.5,92.958Zm-26.01-6.415h-6.8l3.363-7.928Z" transform="translate(-340.212 -73.22)" fill="#fff"/>
      <path id="Trazado_329" data-name="Trazado 329" d="M245.069,141.87l-.046-.008-5.4-.924c-2.851-.486-3.181-1.6-3.181-2.393,0-2.443,2.9-3.1,4.606-3.1,4.827,0,5.759,1.945,6.03,3.639a.515.515,0,0,0,.508.433h3.27a.514.514,0,0,0,.513-.544c-.273-4.7-3.877-7.394-9.888-7.394-5.758,0-9.335,2.761-9.335,7.206,0,5.126,5.244,5.991,6.968,6.275l5,.833c2.607.444,3.671,1.244,3.671,2.761,0,2.373-2.809,3.219-5.438,3.219-5.381,0-6.548-2.425-6.58-4.461a.514.514,0,0,0-.513-.506H231.98a.514.514,0,0,0-.514.514c0,5.286,3.874,8.318,10.629,8.318,6.251,0,9.982-2.89,9.982-7.731C252.077,143.117,246.8,142.179,245.069,141.87Z" transform="translate(-231.466 -102.975)" fill="#fff"/>
      <path id="Trazado_330" data-name="Trazado 330" d="M293.081,151.912H278.854v-6.1h13.487a.514.514,0,0,0,.514-.514v-2.838a.514.514,0,0,0-.514-.514H278.854v-5.354h13.919a.514.514,0,0,0,.514-.514v-2.838a.514.514,0,0,0-.514-.514h-17.7a.514.514,0,0,0-.514.514v22.021a.514.514,0,0,0,.514.514h18.011a.514.514,0,0,0,.514-.514v-2.838A.514.514,0,0,0,293.081,151.912Z" transform="translate(-253.646 -103.565)" fill="#fff"/>
      <path id="Trazado_331" data-name="Trazado 331" d="M337.964,142.286H327.847a.514.514,0,0,0-.514.514v2.838a.514.514,0,0,0,.514.513h6.637c-.566,3.5-3.509,5.727-7.654,5.727-7.274,0-8.059-5.679-8.059-8.122,0-4.016,2.076-8.307,7.9-8.307,3.781,0,6,1.368,6.976,4.305a.514.514,0,0,0,.488.351h3.456a.514.514,0,0,0,.5-.628c-1.181-5.164-5.183-7.893-11.573-7.893-5.558,0-12.049,3.261-12.049,12.45a12.3,12.3,0,0,0,2.623,7.741c2.136,2.6,5.428,3.97,9.519,3.97a10.791,10.791,0,0,0,8.124-3.1l.375,2.124a.514.514,0,0,0,.506.425h2.344a.514.514,0,0,0,.514-.514V142.8A.514.514,0,0,0,337.964,142.286Z" transform="translate(-274.192 -102.975)" fill="#fff"/>
      <path id="Trazado_332" data-name="Trazado 332" d="M388.552,132.729h-3.27a.514.514,0,0,0-.514.514v14.094c0,3.4-2.079,5.13-6.178,5.13s-6.179-1.726-6.179-5.13V133.243a.514.514,0,0,0-.513-.514h-3.27a.514.514,0,0,0-.514.514v13.693c0,6.235,3.525,9.4,10.476,9.4s10.476-3.162,10.476-9.4V133.243A.514.514,0,0,0,388.552,132.729Z" transform="translate(-301.803 -103.565)" fill="#fff"/>
      <path id="Trazado_333" data-name="Trazado 333" d="M436.089,149.256c-.111-2.3-.973-3.987-2.375-4.754a5.878,5.878,0,0,0,2.869-5.4c0-2.94-1.71-6.374-6.528-6.374H416.424a.514.514,0,0,0-.514.514v22.021a.514.514,0,0,0,.514.514h3.268a.514.514,0,0,0,.514-.514v-8.83h8.03c2.209,0,3.53.763,3.742,4.664l.042.723c.123,2.184.174,3.088.758,3.776a.515.515,0,0,0,.392.181h3.456a.514.514,0,0,0,.39-.849C436.407,154.221,436.278,153.426,436.089,149.256Zm-3.8-9.66c0,1.355-.6,2.971-3.465,2.971h-8.616v-5.973h8.708C431.088,136.595,432.286,137.661,432.286,139.6Z" transform="translate(-326.405 -103.565)" fill="#fff"/>
      <path id="Trazado_334" data-name="Trazado 334" d="M496.455,141.87l-.046-.008-5.4-.924c-2.852-.486-3.182-1.6-3.182-2.393,0-2.443,2.9-3.1,4.606-3.1,4.827,0,5.759,1.945,6.03,3.639a.514.514,0,0,0,.507.433h3.27a.515.515,0,0,0,.513-.544c-.273-4.7-3.877-7.394-9.888-7.394-5.758,0-9.335,2.761-9.335,7.206,0,5.126,5.244,5.991,6.968,6.275l5,.833c2.607.444,3.671,1.244,3.671,2.761,0,2.373-2.809,3.219-5.438,3.219-5.38,0-6.548-2.425-6.58-4.461a.514.514,0,0,0-.514-.506h-3.26a13.874,13.874,0,0,0,.38-3.248c0-5.573-3.341-12.08-12.758-12.08-4.183,0-7.58,1.327-9.825,3.838a12.282,12.282,0,0,0-2.933,8.242c0,5.572,3.341,12.08,12.758,12.08,4.183,0,7.58-1.327,9.825-3.838a11.1,11.1,0,0,0,2.082-3.47c.471,4.66,4.267,7.307,10.578,7.307,6.25,0,9.982-2.89,9.982-7.731C503.463,143.117,498.188,142.179,496.455,141.87Zm-17,1.794c0,6.056-4.371,8.214-8.461,8.214s-8.46-2.158-8.46-8.214,4.37-8.215,8.46-8.215S479.456,137.607,479.456,143.664Z" transform="translate(-348.192 -102.975)" fill="#fff"/>
    </g>
  </g>
</svg>
