<svg  xmlns="http://www.w3.org/2000/svg" viewBox="0 0 236.66 94.29">
  <defs>
    <style>
      .cls-1, .cls-2, .cls-3, .cls-4, .cls-5, .cls-6 {
        stroke-width: 0px;
      }

      .cls-1, .cls-3 {
        fill: #1e4b9b;
      }

      .cls-2 {
        fill: #f9c800;
      }

      .cls-3, .cls-5 {
        fill-rule: evenodd;
      }

      .cls-4 {
        fill: #d60000;
      }

      .cls-5, .cls-6 {
        fill: #fff;
      }
    </style>
  </defs>

      <polygon class="cls-1" points="0 23.55 236.66 23.56 236.66 82.5 0 82.5 0 23.55 0 23.55"/>
      <path class="cls-6" d="M52.09,67.81c0,1.38-.03,3.05-.06,3.66-.03.7-.12,1.04-.72,1.21-.27.08-.39.19-.39.31,0,.16.09.28.41.28.48,0,.87-.04,1.24-.04.55-.02,1.43.08,1.95.08.16,0,.4-.04.4-.21s-.13-.28-.37-.34c-.73-.24-.81-.43-.85-1.39-.03-.49-.04-1.18-.04-3.15,0-2.77.01-3.34.05-3.75.03-.42.07-.84.71-.99.23-.05.41-.17.41-.32,0-.16-.18-.22-.41-.22-.45,0-.91.04-1.54.04-.42,0-1.1-.04-1.48-.04-.23,0-.41.09-.41.22,0,.11.08.23.39.32.64.19.64.44.67,1.22.04.61.04,2.3.04,3.12h0Z"/>
      <path class="cls-6" d="M57.83,63.16c0,.11.19.24.33.27.67.19.77.42,1,.78.04.07.08.26.08.9,0,1.17-.16,4.28-.24,6.09-.04,1.21-.34,1.34-.94,1.57-.13.05-.28.13-.28.3,0,.13.15.2.34.2.22,0,.94-.04,1.23-.04.46,0,.75.07,1.14.07.24,0,.42-.07.42-.24,0-.1-.09-.22-.36-.32-.62-.24-.77-.52-.82-1.03-.07-.79-.04-2.02-.02-4.27,0-1.27.04-1.65.07-2.09,0-.05.08-.18.14-.09,1.16,1.7,3.27,4.49,4.49,6.35.36.53.6.91.84,1.31.12.19.43.61.71.61.06,0,.2-.17.2-.31,0-.43-.07-1.84-.07-2.52,0-1.38.09-5.48.12-6.05.07-.66.13-.94.81-1.22.23-.08.32-.22.32-.31,0-.12-.09-.22-.31-.22-.33,0-.87.08-1.49.08-.26,0-.56-.02-.88-.02-.24,0-.38.07-.38.19,0,.19.16.29.43.38.65.2.79.58.81.9.04.42.08,1.19.08,1.73,0,1.36.03,3.19-.03,3.66,0,.03-.06.18-.12.1-.68-.91-3.23-4.19-3.87-5.16-.53-.78-.89-1.28-1.08-1.57-.05-.04-.23-.21-.29-.21-.66,0-1.69-.06-1.97-.06-.24,0-.39.11-.39.24h0Z"/>
      <path class="cls-6" d="M74.28,63.01c-.88,0-2.6-.06-2.88-.09-.24-.03-.49-.19-.54-.25-.07-.13-.13-.27-.21-.27-.09,0-.21.27-.21.33-.02.83-.25,1.87-.25,2.18,0,.16.07.35.19.35.06,0,.13-.09.29-.41.16-.39.32-.68.45-.86.14-.21.5-.37.71-.37.28,0,1.22.01,1.47.06.04,0,.14.08.14.23,0,.42.01.97.01,1.89,0,1.23-.06,4.45-.11,5.4-.05,1.13-.1,1.34-.94,1.59-.14.05-.29.2-.29.34,0,.13.15.2.4.2.22,0,1.22-.1,1.63-.1.33,0,1.82.07,1.92.07.14,0,.36-.07.36-.21,0-.1-.14-.28-.32-.32-.87-.23-.97-.55-1.01-1.07-.05-.81-.07-2.53-.07-4.37,0-1.4.01-2.62.01-3.36,0-.06.05-.18.13-.2.33-.06,1.27-.08,1.59-.08.65.04.8.18.93,1.1.06.42.14.5.22.5.16,0,.25-.28.25-.42.05-.61.17-1.43.27-1.88.05-.23-.05-.4-.12-.4-.05,0-.11.05-.21.14-.17.12-.37.19-1,.25-.43.03-2.08.04-2.81.04h0Z"/>
      <path class="cls-6" d="M84.17,62.98c-.68,0-1.74-.04-2.35-.04-.18,0-.4.09-.4.24,0,.16.14.22.42.28.56.14.66.46.69,1.04.03.48.01,1.21.01,3.13s-.06,3.24-.11,3.9c-.05.88-.22,1.03-.88,1.24-.23.06-.4.18-.4.32,0,.16.2.21.44.21.47,0,.61-.08,1.49-.08.97,0,4.18.08,4.32.08.07,0,.28-.1.32-.21.12-.26.5-1.75.5-1.88,0-.13.02-.46-.11-.46-.1,0-.21.15-.39.56-.28.64-.64,1.02-1.03,1.2-.32.15-.81.15-1.2.15-.44,0-.85-.06-1.05-.1-.14-.04-.25-.24-.29-.39-.05-.34-.04-.94-.05-1.32-.02-.54-.03-1.8.02-2.25,0-.03.11-.19.17-.19.4,0,.89,0,1.29.04.51.05.68.16.85.88.04.16.14.36.25.36s.18-.2.17-.49c-.03-.4-.05-.66-.05-1.11,0-.36.02-.65.05-1.1,0-.18-.03-.46-.14-.46-.11,0-.21.18-.28.42-.25.71-.22.78-1.15.78h-1.04c-.07,0-.13-.11-.13-.16-.02-.89.03-3.13.05-3.54,0-.39.12-.45.17-.45.99,0,1.56.06,1.8.1.3.07.67.3.83,1.21.04.16.14.4.25.4s.21-.23.21-.46c0-.32,0-1.44,0-1.72-.02-.11-.11-.23-.16-.21-.18.03-.71.09-1.15.09h-1.94Z"/>
      <path class="cls-5" d="M97.85,65.52c0-.75-.3-1.53-.71-1.92-.62-.65-1.67-.71-2.26-.71-.7,0-1.78.08-2.26.08h-.95c-.22,0-.38.11-.38.23,0,.12.15.24.33.31.61.18.73.42.75.82.04.43.07,1.8.07,3.53,0,1.38,0,2.74-.08,3.99-.04.51-.18.7-.78.94-.17.06-.31.16-.31.26,0,.14.08.26.42.26.13,0,.78-.07,1.24-.07.64,0,1.21.1,1.66.1.16,0,.41-.06.41-.25,0-.1-.09-.22-.32-.3-.6-.2-.69-.36-.73-1.06-.04-.74-.06-2.89-.04-3.21,0-.09.09-.16.14-.16.25,0,.53.11.62.21.1.08.3.43.42.68.54,1.15,1.21,2.48,1.57,3.1.28.46.78,1.05,1.96,1.05.17,0,.66-.03.87-.13.09-.03.21-.15.21-.25,0-.06-.12-.19-.24-.23-.39-.09-.77-.29-1.12-.81-.65-.93-1.71-3.17-1.96-3.81-.03-.08-.04-.2.03-.23.17-.12.45-.29.5-.33.58-.58.92-1.21.92-2.08h0ZM96.24,65.71c0,.9-.38,1.49-.73,1.82-.13.12-.74.35-1.4.35-.07,0-.15-.09-.17-.19-.05-.42,0-3.25.05-3.79,0-.08.09-.29.15-.34.1-.07.44-.12.49-.12.35,0,.75.19,1.05.57.44.57.56,1.3.56,1.72h0Z"/>
      <path class="cls-6" d="M101.84,63.16c0,.11.19.24.33.27.68.2.77.43,1,.78.04.07.07.26.07.9,0,1.17-.16,4.28-.23,6.08-.03,1.21-.35,1.34-.95,1.57-.13.05-.28.13-.28.3,0,.13.16.2.35.2.22,0,.94-.04,1.23-.04.45,0,.75.07,1.13.07.26,0,.43-.07.43-.24,0-.1-.09-.22-.37-.32-.63-.24-.76-.52-.82-1.03-.06-.79-.03-2.02-.02-4.27.01-1.27.04-1.65.07-2.09,0-.05.08-.18.14-.09,1.15,1.7,3.27,4.49,4.49,6.35.36.53.61.91.85,1.31.11.19.42.61.7.61.06,0,.21-.17.21-.31,0-.43-.08-1.84-.08-2.52,0-1.38.09-5.48.13-6.05.07-.66.13-.94.81-1.22.23-.08.32-.22.32-.31,0-.12-.09-.22-.31-.22-.35,0-.87.08-1.49.08-.27,0-.56-.02-.89-.02-.23,0-.37.07-.37.19,0,.19.17.29.43.38.65.2.78.58.8.9.04.42.08,1.19.08,1.73,0,1.36.04,3.19-.03,3.66,0,.03-.05.18-.11.1-.69-.91-3.24-4.19-3.87-5.16-.53-.78-.9-1.28-1.1-1.57-.03-.04-.22-.21-.28-.21-.67,0-1.69-.06-1.98-.06-.23,0-.39.11-.39.24h0Z"/>
      <path class="cls-5" d="M118.48,62.71c-.07,0-.16.06-.24.2-.09.18-.49.77-.67,1-.04.03-.04.07-.04.12,0,.07-.05.27-.06.3-.55,1.6-1.95,6.21-2.26,6.98-.37.96-.52,1.21-1.18,1.45-.28.1-.34.21-.34.32,0,.1.08.2.38.2.2,0,.78-.07,1.29-.07.48,0,.81.03,1.03.03s.4-.09.4-.21c0-.15-.12-.25-.37-.32-.49-.17-.62-.4-.62-.71,0-.33.15-1.06.56-2.36.03-.05.11-.16.14-.16.18-.02.8-.06,2.18-.05.16,0,.31.18.31.25.3,1.03.57,1.94.6,2.35.03.27.02.51-.51.68-.26.06-.34.2-.34.27,0,.15.15.25.41.25.35,0,.84-.03,1.28-.03.4,0,1.38.07,1.7.07.29,0,.43-.13.43-.24,0-.12-.13-.22-.34-.3-.44-.17-.73-.32-1.15-1.64-.26-.81-1.15-3.74-1.87-6.24-.16-.6-.4-1.43-.52-1.81-.1-.32-.16-.35-.22-.35h0ZM118.67,68.67c-.41,0-1.38.02-1.88.03-.05,0-.11-.08-.09-.16.07-.38.7-2.43.93-3.2.04-.13.12-.16.14-.05.18.54.75,2.5.95,3.26,0,.06-.04.13-.06.13h0Z"/>
      <path class="cls-6" d="M129.36,63.01c-.89,0-2.59-.06-2.89-.09-.24-.03-.48-.19-.53-.25-.08-.13-.13-.27-.23-.27-.09,0-.2.27-.2.33-.02.83-.25,1.87-.25,2.18,0,.16.07.35.2.35.05,0,.12-.09.28-.41.16-.39.31-.68.45-.86.14-.21.5-.37.71-.37.28,0,1.21.01,1.46.06.05,0,.15.08.15.23,0,.42.02.97.02,1.89,0,1.23-.07,4.45-.12,5.4-.06,1.13-.1,1.34-.95,1.59-.13.05-.29.2-.29.34,0,.13.16.2.41.2.22,0,1.22-.1,1.63-.1.34,0,1.82.07,1.92.07.14,0,.37-.07.37-.21,0-.1-.14-.28-.33-.32-.87-.23-.98-.55-1.02-1.07-.05-.81-.06-2.53-.06-4.37,0-1.4.02-2.62.02-3.36,0-.06.05-.18.13-.2.32-.06,1.28-.08,1.59-.08.63.04.8.18.93,1.1.06.42.14.5.23.5.14,0,.24-.28.24-.42.04-.61.17-1.43.27-1.88.05-.23-.05-.4-.11-.4-.06,0-.11.05-.21.14-.16.12-.36.19-1.01.25-.42.03-2.07.04-2.8.04h0Z"/>
      <path class="cls-6" d="M137.61,67.81c0,1.38-.03,3.05-.06,3.66-.03.7-.12,1.04-.72,1.21-.27.08-.39.19-.39.31,0,.16.1.28.4.28.48,0,.87-.04,1.24-.04.54-.02,1.43.08,1.95.08.16,0,.4-.04.4-.21s-.13-.28-.36-.34c-.73-.24-.8-.43-.85-1.39-.03-.49-.04-1.18-.04-3.15,0-2.77,0-3.34.05-3.75.02-.42.07-.84.72-.99.21-.05.4-.17.4-.32,0-.16-.19-.22-.4-.22-.46,0-.92.05-1.56.05-.43,0-1.09-.05-1.47-.05-.24,0-.42.1-.42.22,0,.11.07.23.39.32.63.19.63.44.67,1.22.04.61.04,2.3.04,3.12h0Z"/>
      <path class="cls-5" d="M148.11,62.71c-1.1,0-2.18.59-2.77,1.15-.97.97-1.68,2.24-1.68,4.21,0,1.49.41,2.77,1.11,3.7.83,1.08,2.02,1.74,3.38,1.74,1.01,0,2.11-.45,2.85-1.17.91-.91,1.64-2.28,1.64-4.4,0-2.58-1.66-5.23-4.53-5.23h0ZM147.78,63.27c.58,0,1.27.39,1.72.88.95,1.07,1.35,3.02,1.35,4.29,0,1.73-.46,3.13-1,3.8-.17.21-.61.67-1.33.67-1.89,0-3.11-2.7-3.11-5.2,0-1.93.47-3.08.91-3.62.3-.37.89-.83,1.46-.83h0Z"/>
      <path class="cls-6" d="M155.8,63.16c0,.11.18.24.33.27.67.2.76.43,1,.78.05.07.08.26.08.9,0,1.17-.17,4.28-.23,6.08-.04,1.21-.35,1.34-.95,1.57-.14.05-.29.13-.29.3,0,.13.15.2.34.2.23,0,.96-.04,1.24-.04.45,0,.75.07,1.13.07.25,0,.43-.07.43-.24,0-.1-.1-.22-.36-.32-.62-.24-.76-.52-.81-1.03-.07-.79-.04-2.02-.03-4.27.01-1.27.03-1.65.06-2.09,0-.05.08-.18.14-.09,1.16,1.7,3.27,4.49,4.5,6.35.35.53.59.91.83,1.31.12.19.43.61.7.61.07,0,.21-.17.21-.31,0-.43-.07-1.84-.07-2.52,0-1.38.09-5.48.12-6.05.07-.66.13-.94.81-1.22.23-.08.32-.22.32-.31,0-.12-.09-.22-.31-.22-.34,0-.87.08-1.49.08-.26,0-.56-.02-.89-.02-.23,0-.38.07-.38.19,0,.19.17.29.43.38.64.2.77.58.8.9.04.42.08,1.19.08,1.73,0,1.36.04,3.19-.02,3.66,0,.03-.06.18-.12.1-.68-.91-3.24-4.19-3.87-5.16-.53-.78-.89-1.28-1.09-1.57-.04-.04-.22-.21-.29-.21-.66,0-1.69-.06-1.97-.06-.24,0-.38.11-.38.24h0Z"/>
      <path class="cls-5" d="M172.43,62.71c-.06,0-.16.06-.23.2-.09.18-.5.77-.68,1-.03.03-.02.07-.02.12,0,.07-.05.27-.06.3-.55,1.6-1.95,6.21-2.26,6.98-.38.96-.52,1.21-1.18,1.45-.26.1-.32.21-.32.32,0,.1.09.2.38.2.19,0,.79-.07,1.29-.07s.8.03,1.03.03c.21,0,.39-.09.39-.21,0-.15-.11-.25-.37-.32-.48-.17-.61-.4-.61-.71,0-.33.14-1.06.55-2.36.02-.05.11-.16.14-.16.19-.02.81-.06,2.19-.05.15,0,.29.18.31.25.3,1.03.57,1.94.59,2.35.03.27.01.51-.52.68-.24.06-.34.2-.34.27,0,.15.16.25.42.25.34,0,.85-.03,1.27-.03s1.38.07,1.71.07c.29,0,.42-.13.42-.24,0-.12-.11-.22-.33-.3-.44-.17-.72-.32-1.15-1.64-.27-.81-1.15-3.74-1.87-6.24-.16-.6-.4-1.43-.52-1.81-.11-.32-.15-.35-.22-.35h0ZM172.62,68.67c-.42,0-1.38.02-1.89.03-.05,0-.1-.08-.08-.16.08-.38.69-2.43.93-3.2.05-.13.1-.16.14-.05.18.54.75,2.5.95,3.26.01.06-.04.13-.05.13h0Z"/>
      <path class="cls-6" d="M179.43,63.18c0,.11.12.22.37.3.59.18.65.44.67.99,0,.54,0,1.16,0,2.74,0,2.33-.04,4.03-.06,4.43-.06.71-.19,1-.9,1.16-.21.06-.32.2-.32.31,0,.15.15.21.39.21.39,0,1.3-.1,1.91-.1,2.65,0,3.81.11,3.99.11.04,0,.27-.18.3-.27.08-.46.28-1.35.43-1.92.05-.25.03-.43-.06-.43-.09,0-.24.11-.36.33-.33.67-.64,1.05-.81,1.25-.14.16-.29.19-.4.22-.23.06-.66.08-.94.08-.36,0-.83-.04-1.07-.08-.06-.01-.45-.24-.48-.63-.05-.55-.07-1.88-.07-2.99,0-2.39,0-4.03.1-4.84.01-.2.12-.44.82-.64.13-.06.29-.16.29-.31,0-.12-.11-.2-.4-.2-.32,0-1.22.06-1.72.06-.38,0-.95-.03-1.3-.03-.23,0-.39.06-.39.23h0Z"/>
      <path class="cls-6" d="M197.25,62.71c-1.03,0-1.64.32-2.07.77-.42.42-.79,1.2-.79,2.11,0,1.44.71,2.34,2.04,3.42,1.19.97,1.46,1.62,1.46,2.3,0,1.03-.75,1.62-1.34,1.62-.66,0-1.42-.5-1.8-1.49-.2-.5-.41-.89-.5-.89-.08,0-.21.22-.21.35,0,.46.1,1.16.21,1.73,0,.06.23.41.34.47.54.26,1.1.42,1.88.42.62,0,1.38-.25,1.82-.59.75-.57,1.15-1.53,1.15-2.38,0-.98-.32-2.02-1.91-3.24-1.17-.92-1.74-1.44-1.74-2.4,0-1.05.72-1.67,1.33-1.67.4,0,.73.12,1.04.45.16.16.43.62.56,1.15.07.24.27.38.38.38.08,0,.11-.16.11-.4,0-.06-.12-1.31-.12-1.51,0-.08-.12-.31-.17-.33-.36-.08-1.04-.27-1.63-.27h0Z"/>
      <path class="cls-6" d="M203.86,71.07c-.3,0-.88.32-.88,1.18,0,.8.48,1.16.87,1.16.43,0,.87-.41.9-1.16,0-.37-.22-1.18-.88-1.18h0Z"/>
      <path class="cls-5" d="M212.3,62.71c-.07,0-.16.06-.24.2-.09.18-.49.77-.67,1-.03.03-.03.07-.03.12,0,.07-.06.27-.06.3-.55,1.6-1.95,6.21-2.27,6.98-.38.96-.52,1.21-1.18,1.45-.27.1-.33.21-.33.32,0,.1.08.2.38.2.2,0,.78-.07,1.29-.07.48,0,.8.03,1.04.03.21,0,.39-.09.39-.21,0-.15-.13-.25-.38-.32-.48-.17-.61-.4-.61-.71,0-.33.15-1.06.56-2.36.03-.05.11-.16.14-.16.18-.02.8-.06,2.18-.05.15,0,.3.18.31.25.3,1.03.57,1.94.59,2.35.03.27.02.51-.52.68-.25.06-.34.2-.34.27,0,.15.15.25.42.25.33,0,.84-.03,1.27-.03.4,0,1.38.07,1.7.07.3,0,.43-.13.43-.24,0-.12-.11-.22-.34-.3-.43-.17-.72-.32-1.16-1.64-.25-.81-1.14-3.74-1.85-6.24-.16-.6-.41-1.43-.52-1.81-.11-.32-.16-.35-.22-.35h0ZM212.49,68.67c-.42,0-1.39.02-1.89.03-.05,0-.11-.08-.09-.16.08-.38.7-2.43.93-3.2.04-.13.12-.16.15-.05.18.54.75,2.5.95,3.26,0,.06-.05.13-.05.13h0Z"/>
      <path class="cls-6" d="M220.32,71.07c-.3,0-.89.32-.89,1.18,0,.8.48,1.16.87,1.16.44,0,.89-.41.9-1.16,0-.37-.22-1.18-.88-1.18h0Z"/>
      <path class="cls-6" d="M28.79,29.7c1.12.42,1.75.63,1.87.63.28,0,.54-.1.81-.3.24-.2.41-.53.51-.96h.62l.27,8.77h-.68c-.4-1.74-.9-3.15-1.54-4.21-1.21-2.01-2.83-3.02-4.86-3.02s-3.76,1.08-5.06,3.25c-1.3,2.16-1.96,5.14-1.96,8.92,0,3.49.69,6.28,2.05,8.36,1.38,2.08,3.13,3.11,5.23,3.11,1.53,0,2.92-.48,4.22-1.45.73-.55,1.54-1.37,2.43-2.48l.54.73c-.65,1.09-1.46,2.05-2.42,2.88-1.65,1.4-3.44,2.09-5.36,2.09-3.15,0-5.67-1.33-7.53-4.02-1.72-2.48-2.57-5.57-2.57-9.29s.9-6.99,2.72-9.58c1.9-2.71,4.38-4.06,7.44-4.06,1.07,0,2.15.21,3.28.63h0Z"/>
      <path class="cls-5" d="M44.64,41.13c1.56-.85,2.34-2.45,2.34-4.81s-.7-3.81-2.1-4.63c-.74-.45-1.74-.67-2.98-.67-.83,0-1.34.08-1.53.25-.18.15-.27.52-.27,1.11v9.63c2.11-.1,3.63-.39,4.54-.88h0ZM34.58,54.68c1.13-.15,1.84-.44,2.11-.88.28-.44.43-1.48.43-3.1v-16.93c0-1.37-.16-2.27-.48-2.69-.31-.43-.99-.7-2.05-.82v-.72h8.15c1.7,0,3.11.29,4.24.86,2.14,1.08,3.22,3.07,3.22,5.98,0,1.94-.49,3.43-1.44,4.49-.94,1.03-2.24,1.73-3.88,2.05l6.06,9.9c.38.61.75,1.06,1.12,1.34.38.28.86.47,1.43.54v.71h-4.74l-7.01-12.03-1.64.1v7.68c0,1.45.16,2.38.49,2.78.34.38,1.05.63,2.17.76v.71h-8.17v-.71h0Z"/>
      <path class="cls-6" d="M56.91,54.68c1.08-.15,1.78-.42,2.09-.76.33-.38.49-1.29.49-2.78v-17.38c0-1.39-.16-2.29-.48-2.71-.32-.43-1.02-.71-2.11-.8v-.72h17.14l.1,5.61h-.75c-.25-1.74-.63-2.85-1.12-3.37-.5-.5-1.61-.76-3.33-.76h-5.5c-.43,0-.7.09-.81.28-.09.19-.14.53-.14,1.04v19.93c0,.78.18,1.24.54,1.38.37.14,1.48.21,3.32.21,1.99,0,4.97-.28,5.92-.86.95-.58,1.8-1.98,2.55-4.21h.82l-1.34,6.6h-17.41v-.71h0Z"/>
      <path class="cls-5" d="M84.03,53.62c.25.21.73.3,1.47.3,2.3,0,4.19-.59,5.68-1.81,2.28-1.85,3.41-5.03,3.41-9.52,0-4-.93-7.02-2.81-9.04-1.61-1.73-3.73-2.6-6.39-2.6-.66,0-1.11.09-1.36.29-.22.19-.34.61-.34,1.26v19.87c0,.63.12,1.05.34,1.25h0ZM78.12,54.68c1.07-.15,1.77-.42,2.09-.76.33-.38.49-1.29.5-2.78v-17.38c0-1.42-.16-2.34-.48-2.75-.32-.41-1.01-.67-2.11-.77v-.72h7.93c2.67,0,4.93.59,6.78,1.75,3.33,2.1,4.99,5.86,4.99,11.26,0,1.94-.3,3.79-.9,5.55-.6,1.75-1.49,3.24-2.7,4.45-.77.76-1.56,1.33-2.39,1.73-1.5.74-3.34,1.11-5.53,1.11h-8.18v-.71h0Z"/>
      <path class="cls-6" d="M100.83,54.68c1.2-.12,1.98-.35,2.33-.71.36-.37.53-1.31.53-2.83v-17.38c0-1.44-.18-2.37-.53-2.77-.35-.41-1.13-.67-2.33-.75v-.72h8.71v.72c-1.2.08-1.98.33-2.34.75-.35.4-.53,1.32-.53,2.77v17.38c0,1.51.18,2.46.53,2.83.36.36,1.14.59,2.34.71v.71h-8.71v-.71h0Z"/>
      <path class="cls-6" d="M111.96,54.68c1.21-.18,2-.53,2.34-1.09.34-.57.52-1.88.52-3.94v-17.24l-.4-.63c-.43-.67-.8-1.1-1.11-1.23-.3-.17-.74-.26-1.35-.29v-.72h5.05l11.32,18.82v-13.08c0-2.16-.24-3.55-.71-4.19-.32-.42-1.02-.7-2.1-.82v-.72h6.91v.72c-1.12.16-1.86.51-2.24,1.09-.37.57-.56,1.88-.56,3.93v20.58h-.5l-13.01-21.43v15.23c0,2.13.24,3.52.7,4.17.31.42.99.71,2.06.86v.71h-6.91v-.71h0Z"/>
      <path class="cls-6" d="M134.67,54.68c1.16-.18,1.88-.45,2.16-.84.29-.41.43-1.46.43-3.14v-16.93c0-1.39-.16-2.28-.47-2.71-.32-.43-1.03-.71-2.12-.8v-.72h15.67l.1,5.61h-.82c-.2-1.8-.58-2.93-1.14-3.4-.57-.48-1.65-.72-3.29-.72h-4.02c-.39,0-.65.08-.76.26-.1.19-.16.53-.16,1.06v8.72h4.26c1.26,0,2.05-.25,2.39-.75.35-.5.63-1.51.83-3.02h.69v9.05h-.69c-.22-1.51-.5-2.51-.84-3-.34-.51-1.14-.75-2.38-.75h-4.26v8.55c0,1.45.16,2.36.48,2.78.34.38,1.07.64,2.18.76v.71h-8.25v-.71h0Z"/>
      <path class="cls-5" d="M158.2,51.59c1.23,1.96,2.72,2.94,4.49,2.94s3.21-.96,4.45-2.86c1.24-1.92,1.85-4.99,1.85-9.2s-.63-7.34-1.87-9.23c-1.24-1.89-2.73-2.84-4.43-2.85-1.76,0-3.26.98-4.49,2.95-1.21,1.97-1.81,5-1.81,9.12s.6,7.15,1.81,9.13h0ZM156.01,32.43c1.8-2.3,4.04-3.45,6.68-3.46,2.65,0,4.89,1.16,6.7,3.48,1.95,2.51,2.94,5.84,2.94,10.01s-1.01,7.61-3.04,10.11c-1.81,2.24-4.02,3.37-6.6,3.37-2.76,0-5.04-1.24-6.86-3.72-1.85-2.52-2.78-5.78-2.78-9.75,0-4.17.99-7.51,2.96-10.03h0Z"/>
      <path class="cls-5" d="M185.28,41.13c1.55-.85,2.35-2.45,2.35-4.81s-.71-3.81-2.11-4.63c-.75-.45-1.74-.67-2.96-.67-.84,0-1.35.08-1.54.25-.18.15-.27.52-.27,1.11v9.63c2.11-.1,3.63-.39,4.54-.88h0ZM175.23,54.68c1.13-.15,1.83-.44,2.11-.88.27-.44.42-1.48.42-3.1v-16.93c0-1.37-.16-2.27-.47-2.69-.31-.43-1-.7-2.05-.82v-.72h8.14c1.69,0,3.11.29,4.24.86,2.15,1.08,3.23,3.07,3.23,5.98,0,1.94-.49,3.43-1.44,4.49-.94,1.03-2.24,1.73-3.87,2.05l6.06,9.9c.37.61.75,1.06,1.12,1.34.37.28.85.47,1.44.54v.71h-4.74l-7.01-12.03-1.63.1v7.68c0,1.45.16,2.38.49,2.78.33.38,1.06.63,2.17.76v.71h-8.17v-.71h0Z"/>
      <path class="cls-6" d="M196.32,54.68c1.22-.18,2-.53,2.35-1.09.34-.57.51-1.88.51-3.94v-15.88c0-1.41-.17-2.33-.5-2.75-.33-.43-1.1-.68-2.29-.77v-.72h5.82l6.81,19.71,6.5-19.71h5.87v.72c-1.09.09-1.8.37-2.11.8-.32.42-.48,1.32-.48,2.71v17.38c0,1.43.16,2.35.48,2.75.31.39,1.01.66,2.11.78v.71h-8.26v-.71c1.19-.13,1.93-.41,2.22-.84.29-.45.45-1.5.45-3.14v-17.56l-7.53,22.25h-.41l-7.4-21.33v15.59c0,2.13.24,3.52.71,4.17.3.42,1,.71,2.05.86v.71h-6.9v-.71h0Z"/>
      <polygon class="cls-2" points="0 82.5 236.66 82.5 236.66 94.29 0 94.29 0 82.5 0 82.5"/>
        <path class="cls-1" d="M10.2,15.57c3.64,0,5.64-2.05,5.64-4.82,0-1.99-1.17-3.32-2.41-4.2l-.65-.47c-1.49-1.05-1.81-1.93-1.81-2.63,0-1.12.94-2.42,2.55-2.42,1.77,0,2.49,1.52,2.24,3.17.13.2.66.27.83,0,.29-1.32.65-2.36.93-2.99C16.6.49,15.18.02,13.64,0c-2.96-.02-5.2,1.79-5.2,4.67,0,1.51,1.02,2.76,2.31,3.76l.53.4c1.21.92,1.78,1.86,1.78,2.98,0,1.77-1.21,2.72-2.53,2.72-1.16,0-2.13-.58-2.76-1.78-.45-.81-.57-1.72-.62-2.36-.15-.23-.7-.23-.83-.05-.27,1.04-.43,2.3-.4,3.26.49.92,2.08,1.96,4.26,1.96h0Z"/>
        <path class="cls-3" d="M22.99,5.9c-1,0-2.14.34-3.33,1.32-1.67,1.35-2.86,3.7-2.86,5.72,0,1.44.74,2.59,2.27,2.59,1.9,0,3.61-1.02,4.62-2.7.02-.3-.19-.52-.42-.52-.98,1.03-1.99,1.57-2.76,1.57-.63,0-.91-.63-.91-1.23,0-.48.02-.81.11-1.08,1.72-.47,5.34-1.55,5.34-3.87,0-.98-.82-1.8-2.05-1.8h0ZM22.24,6.89c.26,0,.4.27.4.52-.02.56-.33,1.42-.76,1.89-.62.67-1.28,1.05-2.02,1.27.19-.83.7-2.22,1.46-3.1.32-.38.64-.58.91-.58h0Z"/>
        <path class="cls-3" d="M30.39,6.89c.27,0,.53.25.53.72,0,.63-.52,2.07-.93,2.85-.51.99-1.06,1.67-1.53,1.67-.36,0-.57-.23-.57-.65,0-1.04.71-2.79,1.32-3.66.44-.64.85-.93,1.19-.93h0ZM27.38,21.25c1.76,0,5.36-.65,5.36-3.03,0-1.77-1.97-2.77-3.16-3.4-.72-.38-1.48-.85-1.48-1.16,0-.18.19-.44.32-.54,2.68-.14,4.62-2.12,4.62-4.64,0-.15-.04-.45-.06-.63-.02-.16.06-.25.15-.25.14,0,.34.07.52.14.24.09.4.14.59.14.24,0,.7-.17.7-.93,0-.65-.34-.92-.71-.92-.32,0-.71.13-1.05.28-.25.08-.57.17-.87.17-.19,0-.47-.25-.8-.36-.4-.16-.71-.23-1.04-.23-3.48,0-4.89,3-4.89,4.54-.02,1.62.92,2.36,1.85,2.59v.04c-.47.37-1.33,1.22-1.33,1.78s.4.9.82,1.22c-1.13.37-3.52,1.18-3.52,2.94s2.49,2.24,3.97,2.24h0ZM27.86,16.65c.23,0,.85.31,1.66.85.62.43,1.04.95,1.04,1.51,0,.68-.85,1.14-2.03,1.14-1.36,0-2.48-.58-2.48-1.61,0-.57.32-1.06.67-1.37.36-.32.93-.52,1.15-.52h0Z"/>
        <path class="cls-1" d="M38.74,5.9c-1.61,0-3.55,1.53-4.36,2.68-.02.32.13.45.35.54.6-.5,1.47-1.37,1.89-1.37.17,0,.19.29.08.59l-1.76,4.69c-.17.47-.32.92-.32,1.33,0,.62.45,1.18,1.17,1.18,1.7,0,4.02-2.66,5.15-4.34h.04l-1.18,3.19c-.26.67.19,1.15.72,1.15,1.78,0,3.86-1.71,4.45-2.82,0-.31-.12-.46-.38-.51-.54.59-1.59,1.46-1.93,1.46-.29,0-.2-.36-.11-.63.74-2.2,1.61-4.42,2.41-6.63-.3-.25-.78-.5-1.48-.5-.32,0-.56.07-.79.19-.95,2.11-2.48,5.39-4.24,6.98-.43.38-.68.47-.81.47-.26,0-.32-.2-.17-.6l2.1-5.46c.06-.16.1-.45.1-.63,0-.43-.44-.95-.96-.95h0Z"/>
        <path class="cls-1" d="M53.2,5.9c-.76,0-1.42.61-2.08,1.55-.51.7-1.06,1.66-1.76,2.99h-.1l.77-2.38c.36-1.14.32-2.16-.92-2.16-1.54,0-2.9,1.6-3.32,2.5-.04.24.12.49.38.52.6-.72,1.41-1.37,1.76-1.37.23,0,.21.29.09.71-.59,1.93-1.38,4.29-1.99,6.36-.21.72.64.91,1.16.91.47,0,.9-.09,1.03-.4.67-1.76,1.26-3.44,2.22-5.26.55-1.03,1.11-1.95,1.46-1.95.16,0,.28.14.34.52.11.58.2,1.03.62,1.03.57,0,1.4-.93,1.4-2.21,0-.92-.42-1.35-1.04-1.35h0Z"/>
        <path class="cls-3" d="M59.92,6.89c.47,0,.6.47.6.95,0,1.71-1.03,4.17-1.61,5.19-.57.98-1.04,1.51-1.57,1.51-.4,0-.65-.36-.65-.92,0-2.16,1.33-4.85,2.1-5.87.45-.58.81-.86,1.14-.86h0ZM59.78,5.9c-.96,0-2.08.3-3.31,1.42-1.43,1.31-2.21,3.35-2.23,5.08-.02,1.57.9,3.13,3.07,3.13,1.23,0,2.5-.45,3.61-1.58,1.23-1.26,1.97-3.15,1.97-4.77s-.85-3.29-3.11-3.29h0Z"/>
        <path class="cls-1" d="M68.51,5.9c-.87,0-1.65.42-2.27.95-.64.58-1.19,1.49-1.19,2.45,0,.81.39,1.55,1.04,2.27l.7.78c.42.48.61.84.61,1.15,0,.33-.34.65-.72.65-.43,0-.85-.25-1.68-1.17-.25-.28-.42-.49-.66-.49-.55,0-1.04.58-1.04,1.31,0,1.1,1.12,1.73,2.1,1.73s1.93-.34,2.66-.99c.8-.7,1.27-1.57,1.27-2.49,0-.79-.33-1.49-1.08-2.3l-.8-.87c-.43-.45-.56-.76-.56-1.01,0-.29.26-.59.56-.59.42,0,.82.25,1.66,1.29.13.15.3.31.49.31.32,0,.97-.3.97-1.17,0-1-.93-1.8-2.08-1.8h0Z"/>
        <path class="cls-1" d="M78.82,5.9c-1.86,0-2.85,2.41-3.25,3.65.09.25.51.35.71.18.3-.72.91-1.82,1.33-1.82.58,0,.77,1.73.84,4.44.06,2.5-.09,3.73-.26,4.63-.17.92-.51,1.64-.89,2.11-.32.38-.61.59-.85.59-.34,0-.6-.18-.98-.77-.24-.36-.49-.65-.93-.65-.7,0-1.3.61-1.28,1.46.02.99.85,1.53,1.63,1.53,1.02,0,2.31-.53,3.71-2.11,1.27-1.42,2.74-3.98,4.03-6.44,1.44-2.73,2.16-5.4,2.16-5.78-.02-.72-.69-1.02-1.32-1.02-.38,0-.64.23-.72.95-.03.29-.14.87-.22,1.37-.33,2.22-.93,4.31-1.93,6.36h-.06c.17-1.69.19-3.01.17-4.61-.07-3.08-.78-4.07-1.88-4.07h0Z"/>
        <path class="cls-3" d="M91.71,11.97c-.63,2.08-.78,2.26-1.69,2.42l-.66.1c-.24.05-.23.64-.01.78,1.05-.05,2.01-.07,3.02-.07s2.09.02,3.11.07c.25-.14.3-.66.11-.78l-.54-.1c-1.08-.23-1.1-.61-.53-2.42l.87-2.81c.15-.45.21-.52.74-.52.64,0,.9.23,1.05.99l.59,3.27c.21,1.19.61,1.75,1.03,2.05.35.23.91.34,1.68.34.91,0,1.52-.02,1.95-.14.19-.15.25-.54.06-.69-.4-.09-1-.23-1.27-.54-.51-.56-.91-2.62-1.4-5.5-.04-.27-.04-.41.34-.52,1.63-.45,3.43-1.62,3.43-3.85,0-1.46-.78-2.51-1.75-3.03-1.02-.52-2.4-.72-4.14-.72-1.64,0-2.95.09-4.2.2-.26.11-.32.59-.13.76l.67.18c.68.18.68.52.22,2.04l-2.55,8.47h0ZM100.48,3.73c0,1.98-1.52,3.93-3.54,3.93-.97,0-1.12-.08-.92-.74l1.44-4.83c.2-.6.23-.75,1.04-.75,1.55,0,1.99,1.21,1.99,2.39h0Z"/>
        <path class="cls-3" d="M109.5,5.9c-.99,0-2.14.34-3.33,1.32-1.67,1.35-2.86,3.7-2.86,5.72,0,1.44.75,2.59,2.28,2.59,1.91,0,3.61-1.02,4.62-2.7.02-.3-.19-.52-.42-.52-.97,1.03-2,1.57-2.76,1.57-.64,0-.91-.63-.91-1.23,0-.48.02-.81.1-1.08,1.73-.47,5.35-1.55,5.35-3.86,0-.99-.83-1.8-2.06-1.8h0ZM108.76,6.89c.25,0,.4.27.4.52-.02.56-.34,1.42-.75,1.89-.63.68-1.28,1.06-2.03,1.28.19-.82.7-2.22,1.47-3.1.31-.38.63-.58.91-.58h0Z"/>
        <path class="cls-3" d="M118.32,6.22c-1.12,0-2.37.61-3.77,1.94-1.93,1.83-3.18,4.65-3.18,5.97,0,.75.63,1.4,1.29,1.4,1.55,0,3.59-1.78,4.84-3.53h.08l-.64,1.74c-.13.36-.23.69-.23.94,0,.36.27.88.83.88,1.49,0,3.31-1.24,4.24-2.63.01-.31-.19-.5-.41-.5-.66.73-1.7,1.4-1.99,1.4-.15,0-.13-.18-.05-.47.82-2.5,1.75-4.99,2.55-7.11-.1-.22-.43-.47-.78-.58-.26-.09-.54-.13-.78-.13s-.45.06-.58.15l-.49,1.06c-.29-.31-.72-.52-.93-.52h0ZM118.74,8.06c-.25.74-1.07,2.47-1.84,3.55-.63.9-1.8,2.22-2.27,2.22-.17,0-.28-.14-.29-.35v-.2c0-1.26,1.03-3.48,2.09-4.9.72-.97,1.11-1.16,1.43-1.16s.63.19.88.85h0Z"/>
        <path class="cls-1" d="M127.06,5.9c-.87,0-1.66.42-2.27.95-.64.58-1.19,1.49-1.19,2.44,0,.81.38,1.55,1.04,2.27l.69.78c.43.48.62.84.62,1.15,0,.33-.34.65-.71.65-.43,0-.85-.25-1.68-1.17-.25-.28-.42-.5-.66-.5-.54,0-1.04.59-1.04,1.31,0,1.1,1.13,1.73,2.1,1.73s1.92-.34,2.65-.99c.81-.7,1.27-1.57,1.27-2.49,0-.79-.33-1.49-1.07-2.29l-.81-.88c-.43-.45-.55-.76-.55-1.01,0-.29.25-.59.55-.59.42,0,.82.25,1.67,1.29.13.15.3.31.49.31.32,0,.97-.3.97-1.17,0-1.01-.92-1.8-2.07-1.8h0Z"/>
        <path class="cls-3" d="M135.58,5.9c-.99,0-2.14.34-3.33,1.32-1.68,1.35-2.86,3.7-2.86,5.72,0,1.44.75,2.59,2.27,2.59,1.9,0,3.6-1.02,4.62-2.7.02-.3-.19-.52-.43-.52-.98,1.03-2,1.57-2.76,1.57-.64,0-.91-.63-.91-1.23,0-.48.02-.81.1-1.08,1.72-.47,5.34-1.55,5.34-3.86,0-.99-.83-1.8-2.05-1.8h0ZM134.83,6.89c.26,0,.42.27.42.52-.02.56-.35,1.42-.77,1.89-.62.68-1.27,1.06-2.01,1.28.2-.82.7-2.22,1.47-3.1.32-.38.64-.58.9-.58h0Z"/>
        <path class="cls-3" d="M142.98,6.89c.28,0,.53.25.53.72,0,.63-.51,2.07-.94,2.85-.5.99-1.05,1.67-1.53,1.67-.36,0-.57-.23-.57-.66,0-1.02.69-2.78,1.32-3.65.44-.64.84-.93,1.18-.93h0ZM139.97,21.25c1.75,0,5.37-.65,5.37-3.03,0-1.77-1.97-2.77-3.17-3.4-.71-.38-1.48-.85-1.48-1.16,0-.18.19-.43.31-.54,2.68-.14,4.63-2.12,4.63-4.64,0-.15-.04-.45-.07-.63-.02-.16.07-.25.16-.25.14,0,.33.07.52.14.24.09.41.14.6.14.23,0,.7-.16.7-.92,0-.65-.34-.92-.72-.92-.33,0-.7.13-1.04.28-.24.08-.57.17-.86.17-.2,0-.47-.25-.82-.36-.4-.16-.7-.23-1.03-.23-3.48,0-4.88,3-4.88,4.55-.03,1.61.91,2.35,1.84,2.58v.04c-.46.37-1.33,1.22-1.33,1.78s.4.9.83,1.22c-1.15.37-3.52,1.18-3.52,2.94s2.48,2.24,3.96,2.24h0ZM140.45,16.65c.23,0,.85.31,1.66.85.62.43,1.03.95,1.03,1.51,0,.68-.84,1.14-2.02,1.14-1.36,0-2.49-.58-2.49-1.61,0-.57.32-1.06.69-1.37.36-.32.94-.52,1.14-.52h0Z"/>
        <path class="cls-1" d="M151.34,5.9c-1.62,0-3.57,1.53-4.38,2.68-.02.32.13.46.36.54.59-.5,1.47-1.37,1.89-1.37.18,0,.19.29.09.59l-1.76,4.69c-.17.47-.31.92-.31,1.33,0,.62.44,1.18,1.16,1.18,1.69,0,4.02-2.66,5.15-4.34h.04l-1.18,3.19c-.25.67.19,1.15.71,1.15,1.79,0,3.86-1.71,4.45-2.82,0-.31-.12-.46-.38-.51-.52.59-1.58,1.46-1.93,1.46-.28,0-.19-.36-.11-.63.75-2.2,1.61-4.42,2.42-6.63-.3-.25-.77-.5-1.48-.5-.32,0-.56.07-.79.19-.94,2.11-2.48,5.39-4.24,6.98-.43.38-.69.47-.81.47-.25,0-.31-.2-.17-.6l2.11-5.46c.06-.16.1-.45.1-.63,0-.43-.44-.95-.95-.95h0Z"/>
        <path class="cls-1" d="M165.79,5.9c-.77,0-1.42.61-2.08,1.55-.51.7-1.06,1.66-1.76,3h-.1l.76-2.39c.37-1.14.33-2.16-.92-2.16-1.55,0-2.9,1.6-3.32,2.5-.04.24.13.49.38.52.6-.72,1.4-1.37,1.76-1.37.24,0,.22.29.09.71-.6,1.93-1.38,4.29-1.99,6.36-.22.72.63.91,1.17.91.46,0,.89-.09,1.02-.4.68-1.76,1.27-3.44,2.22-5.26.55-1.03,1.1-1.95,1.47-1.95.16,0,.27.14.34.52.1.58.17,1.03.6,1.03.58,0,1.41-.93,1.41-2.21,0-.92-.43-1.35-1.04-1.35h0Z"/>
        <path class="cls-3" d="M172.51,6.89c.47,0,.59.47.59.95,0,1.71-1.03,4.17-1.6,5.19-.58.98-1.04,1.51-1.58,1.51-.39,0-.65-.36-.65-.92,0-2.16,1.33-4.85,2.09-5.87.44-.58.81-.86,1.15-.86h0ZM172.36,5.9c-.96,0-2.08.3-3.31,1.42-1.42,1.31-2.21,3.35-2.22,5.08-.03,1.57.91,3.13,3.07,3.13,1.23,0,2.5-.45,3.61-1.58,1.23-1.26,1.97-3.15,1.97-4.77s-.86-3.29-3.12-3.29h0Z"/>
        <path class="cls-1" d="M181.1,5.9c-.87,0-1.65.42-2.26.95-.64.58-1.19,1.49-1.19,2.44,0,.81.38,1.55,1.04,2.27l.7.78c.43.48.62.84.62,1.15,0,.33-.34.65-.72.65-.42,0-.85-.25-1.68-1.17-.25-.28-.42-.5-.66-.5-.56,0-1.04.59-1.04,1.31,0,1.1,1.13,1.73,2.1,1.73s1.93-.34,2.65-.99c.8-.7,1.28-1.57,1.28-2.49,0-.79-.34-1.49-1.08-2.29l-.83-.88c-.41-.45-.54-.76-.54-1.01,0-.29.25-.59.54-.59.43,0,.84.25,1.69,1.29.13.15.29.31.48.31.32,0,.98-.3.98-1.17,0-1.01-.94-1.8-2.08-1.8h0Z"/>
      <polygon class="cls-6" points="50.97 58.92 221.39 58.92 221.39 59.75 50.97 59.75 50.97 58.92 50.97 58.92"/>
      <polygon class="cls-6" points="40.06 76.19 221.39 76.19 221.39 77.02 40.06 77.02 40.06 76.19 40.06 76.19"/>
      <path class="cls-4" d="M15.37,63.18l14.15,10.41c11.4-15.37,27.46-27.69,46.14-33.54-20.94,10.47-37.48,28.82-46.14,50.7l-14.15-27.57h0Z"/>
</svg>