<svg xmlns="http://www.w3.org/2000/svg" width="151" height="30" viewBox="0 0 151 30" fill="none"><path d="M47.54 0.18388L47.1488 0H43.2365C43.1973 0.0273863 43.1608 0.0782466 43.1178 0.0782466C42.2075 0.196921 41.4251 0.619452 40.6661 1.1098C27.272 9.77083 13.8731 18.4297 0.46948 27.0864C0.318482 27.1691 0.161559 27.2406 0 27.3002V29.0504C0.276471 29.7741 0.82811 30.0089 1.58058 29.9997C3.63455 29.975 5.68853 29.9893 7.7425 29.9893C8.69198 29.9968 9.62266 29.7247 10.4185 29.2068C17.4173 24.679 24.416 20.1546 31.4147 15.6337C34.3133 13.7627 37.2132 11.8935 40.1144 10.026C40.3387 9.87994 40.5865 9.76909 40.7926 9.65954C41.1342 9.8356 41.1003 10.0964 41.1003 10.3338V16.8178C41.0899 16.9349 41.0699 17.0509 41.0403 17.1647H40.4326C38.4765 17.1647 36.5203 17.1503 34.5641 17.1647C33.7509 17.1643 32.963 17.4472 32.3358 17.9649C31.7087 18.4826 31.2815 19.2026 31.1278 20.0011C31.0065 20.6636 31.0522 21.3574 31.0287 22.0382C31.035 22.16 31.0507 22.2812 31.0756 22.4007H41.1055V22.9732C41.1055 24.6959 41.099 26.4187 41.1055 28.1401C41.1095 29.2186 41.7954 29.8993 42.8778 29.9189H43.1713H143.092L146.371 23.9591H48.6107V2.2848C48.6107 2.10614 48.6211 1.92747 48.6107 1.74881C48.6039 1.41207 48.499 1.08464 48.3088 0.806657C48.1186 0.528679 47.8514 0.31224 47.54 0.18388Z" fill="#FFF"></path><path d="M150.238 9.55815C148.934 12.688 147.625 15.8179 146.313 18.9477C145.9 19.9095 145.255 20.7537 144.436 21.4047C143.641 22.0684 142.634 22.4255 141.598 22.4115C138.29 22.4036 134.981 22.4115 131.673 22.4115H131.142C131.197 22.2341 131.224 22.1115 131.272 21.9994C132.093 20.0719 132.918 18.1457 133.734 16.2182C134.046 15.4827 134.593 15.0824 135.391 15.068C136.335 15.0498 137.28 15.068 138.226 15.068C138.296 15.0781 138.365 15.0942 138.432 15.1163C137.938 16.29 137.45 17.4428 136.949 18.6269C137.106 18.64 137.218 18.6556 137.33 18.6556C138.797 18.6556 140.264 18.6465 141.73 18.6647C142.083 18.6647 142.252 18.5343 142.39 18.2227C143.387 15.8596 144.398 13.5018 145.402 11.1413C145.445 11.0396 145.471 10.9314 145.507 10.8257C145.125 10.7201 134.6 10.6771 133.491 10.7723C133.433 10.9027 133.36 11.0435 133.302 11.1896C132.23 13.6987 131.161 16.2078 130.092 18.7169C129.704 19.6671 129.127 20.5287 128.397 21.2495C128.023 21.6261 127.577 21.9233 127.086 22.1234C126.594 22.3236 126.067 22.4224 125.537 22.4141C122.863 22.4141 120.19 22.4141 117.518 22.4141C117.29 22.4139 117.062 22.396 116.837 22.3606C115.594 22.1676 114.85 21.1308 115.08 19.8945C115.143 19.5595 115.24 19.2321 115.371 18.9177C116.788 15.5688 118.213 12.2216 119.644 8.8761C120.178 7.62154 121.145 6.99427 122.5 6.96166C123.196 6.94471 123.894 6.96166 124.67 6.96166C124.581 7.18858 124.524 7.3529 124.456 7.50809C122.962 10.9935 121.471 14.4825 119.983 17.9749C119.902 18.164 119.843 18.3661 119.749 18.6269C119.976 18.6374 120.133 18.6504 120.289 18.6517C121.967 18.6517 123.646 18.64 125.326 18.6608C125.729 18.6608 125.935 18.5304 126.094 18.1588C127.515 14.7941 128.963 11.4374 130.397 8.07929C130.455 7.94888 130.516 7.81846 130.573 7.67762C130.657 7.47248 130.798 7.29574 130.979 7.16854C131.16 7.04134 131.374 6.96907 131.596 6.96036C131.742 6.94732 131.889 6.95384 132.037 6.95384C137.219 6.95384 142.402 6.95384 147.585 6.95384C147.911 6.95115 148.237 6.97601 148.558 7.02817C148.908 7.07485 149.237 7.21703 149.511 7.43907C149.785 7.66111 149.992 7.9544 150.11 8.28664C150.151 8.38836 150.203 8.48617 150.248 8.58528L150.238 9.55815Z" fill="#FFF"></path><path d="M74.8272 10.727H68.913C68.6665 11.3021 68.4227 11.8655 68.1814 12.4314C67.2911 14.518 66.4017 16.6089 65.5132 18.7042C65.117 19.6702 64.5256 20.5439 63.7761 21.2707C63.4039 21.6374 62.9625 21.9263 62.4776 22.1206C61.9926 22.315 61.4738 22.4108 60.9514 22.4027C58.2793 22.4027 55.6046 22.4027 52.9338 22.4027C52.7394 22.4027 52.5425 22.3792 52.3495 22.3635C51.1289 22.2631 50.2186 21.2433 50.5172 19.7397C50.5813 19.4381 50.6766 19.1439 50.8015 18.862C52.1787 15.62 53.5597 12.3797 54.9447 9.14117C55.4989 7.84749 56.4875 7.10415 57.892 6.98156C58.5962 6.92027 59.3122 6.97113 60.0946 6.97113C58.4293 10.8639 56.7913 14.7032 55.1234 18.6116C55.3711 18.626 55.5289 18.6442 55.6867 18.6442C57.3651 18.6442 59.0435 18.6325 60.7219 18.656C61.1496 18.656 61.3583 18.5073 61.52 18.1226C62.815 15.0579 64.1282 12.0024 65.4323 8.94034C65.9983 7.61015 67.0155 6.95287 68.4448 6.95027C74.116 6.94244 79.7871 6.94244 85.4583 6.95027C85.5691 6.95027 85.68 6.96461 85.8612 6.97635L84.2767 10.6957H79.072C77.4067 14.608 75.7505 18.4812 74.0916 22.3675H69.8663C71.5291 18.4643 73.1657 14.6197 74.8272 10.727Z" fill="#FFF"></path><path d="M105.573 12.9648H111.817C112.013 12.9593 112.208 12.9663 112.403 12.9857C113.768 13.1617 114.522 14.2898 114.213 15.6813C114.199 15.7611 114.177 15.8393 114.148 15.9147C113.593 17.194 113.072 18.489 112.468 19.7449C112.122 20.4661 111.546 21.0386 110.903 21.5354C110.197 22.0994 109.319 22.4041 108.415 22.3988C105.889 22.3988 103.364 22.3988 100.838 22.3988C100.708 22.3988 100.577 22.3896 100.447 22.3779C98.9561 22.2475 98.1619 21.0829 98.544 19.6067C98.7292 18.892 99.0656 18.2152 99.333 17.5201H103.565C103.425 17.8917 103.297 18.2295 103.151 18.6168C103.361 18.6299 103.504 18.6481 103.647 18.6481C105.195 18.6481 106.743 18.6403 108.291 18.6573C108.655 18.6573 108.861 18.5438 108.985 18.1982C109.145 17.7561 109.355 17.3323 109.536 16.8941C109.59 16.7637 109.622 16.6333 109.688 16.4246C109.459 16.4103 109.296 16.392 109.12 16.392C107.295 16.392 105.469 16.392 103.643 16.392C103.48 16.392 103.317 16.392 103.154 16.392C101.641 16.3346 100.749 15.1818 101.067 13.7016C101.087 13.5898 101.116 13.4798 101.155 13.373C101.656 12.1993 102.132 11.0008 102.675 9.84148C103.044 9.05901 103.651 8.42782 104.339 7.88531C105.096 7.27873 106.038 6.94884 107.008 6.95027C109.484 6.94244 111.962 6.94244 114.441 6.95027C114.799 6.95099 115.155 7.00911 115.495 7.12241C116.277 7.38323 116.704 7.97138 116.799 8.78645C116.854 9.24047 116.796 9.70106 116.629 10.1271C116.409 10.6839 116.178 11.2369 115.942 11.8159H111.725C111.864 11.4468 111.985 11.1208 112.13 10.7413C111.932 10.7231 111.792 10.7009 111.653 10.6996C110.105 10.6996 108.557 10.7087 107.009 10.6918C106.626 10.6918 106.406 10.8222 106.276 11.1808C106.122 11.6072 105.921 12.0167 105.747 12.4367C105.692 12.5723 105.657 12.7092 105.573 12.9648Z" fill="#FFF"></path><path d="M87.8863 22.4014C86.5978 22.4014 85.3106 22.4014 84.0222 22.4014C83.7601 22.401 83.4985 22.3801 83.2397 22.3388C82.1273 22.1562 81.4009 21.2185 81.5352 20.1009C81.5821 19.6974 81.6848 19.3024 81.8404 18.9272C83.0271 16.0973 84.2321 13.2752 85.4345 10.4505C85.8575 9.45511 86.5271 8.58394 87.3803 7.91922C88.1439 7.29349 89.1004 6.95115 90.0876 6.95027C92.6958 6.94244 95.304 6.94244 97.9123 6.95027C98.1243 6.95416 98.3357 6.97378 98.5448 7.00895C99.7484 7.18631 100.501 8.18265 100.309 9.37982C100.249 9.76454 100.143 10.1406 99.9936 10.5001C98.819 13.2987 97.6336 16.0938 96.4373 18.8855C96.0145 19.8784 95.3506 20.7502 94.5059 21.422C93.7187 22.0701 92.7269 22.4176 91.7073 22.4027C90.428 22.3948 89.1565 22.4014 87.8863 22.4014ZM86.2326 18.5842C86.3066 18.6091 86.3825 18.6279 86.4596 18.6403C88.2853 18.6403 90.1111 18.6403 91.9368 18.6481C92.2094 18.6481 92.3437 18.5177 92.4441 18.2804C93.4648 15.8739 94.4885 13.4691 95.5153 11.066C95.5459 10.9568 95.563 10.8443 95.5662 10.7309C95.3823 10.7204 95.2375 10.7048 95.0941 10.7048C93.4313 10.7048 91.7686 10.7152 90.1059 10.6957C89.7003 10.6957 89.489 10.8352 89.3338 11.2043C88.3649 13.5086 87.3777 15.8065 86.3983 18.1069C86.337 18.2517 86.2952 18.4043 86.2326 18.5842Z" fill="#FFF"></path><path d="M111.881 25.2623V29.0207H111.128V26.5429L111.047 26.5338L110.411 29.0324H109.621C109.425 28.2682 109.229 27.4923 109.029 26.715L108.935 26.7215V29.0194H108.189V25.2623H109.353C109.557 25.9952 109.769 26.7607 109.981 27.5262H110.058C110.26 26.7815 110.461 26.0369 110.671 25.2596L111.881 25.2623Z" fill="#000"></path><path d="M122.47 29.0238C122.185 28.6065 121.927 28.2113 121.65 27.8305C121.405 27.4915 121.336 27.4758 120.817 27.5384V29.0199H120.004V25.2536C120.795 25.2536 121.557 25.221 122.316 25.2654C122.769 25.2914 123.065 25.6566 123.142 26.1065C123.181 26.3158 123.155 26.5319 123.068 26.7263C122.982 26.9207 122.838 27.0843 122.657 27.1954C122.55 27.2593 122.431 27.3063 122.345 27.348C122.658 27.811 122.967 28.2609 123.272 28.7212C123.329 28.8192 123.38 28.9202 123.425 29.0238H122.47ZM120.839 25.937V26.7912C121.221 26.7664 121.573 26.7612 121.92 26.7181C122.024 26.7143 122.122 26.6695 122.192 26.5934C122.263 26.5173 122.301 26.4163 122.297 26.3126C122.293 26.2088 122.248 26.1108 122.172 26.0401C122.096 25.9694 121.995 25.9319 121.891 25.9357C121.55 25.9305 121.218 25.937 120.839 25.937Z" fill="#000"></path><path d="M88.1513 29.0497C88.0457 28.665 88.0209 25.8989 88.1161 25.2678C88.2176 25.246 88.3204 25.2311 88.4239 25.2234C88.9116 25.2234 89.3994 25.2169 89.8871 25.2234C90.1415 25.2191 90.3915 25.2906 90.6051 25.4287C90.8188 25.5669 90.9865 25.7656 91.0869 25.9994C91.255 26.3425 91.3448 26.7187 91.3497 27.1007C91.3547 27.4828 91.2747 27.8612 91.1156 28.2085C91.02 28.4442 90.8584 28.6472 90.6502 28.7932C90.442 28.9392 90.196 29.0219 89.9419 29.0314C89.3381 29.0823 88.7421 29.0497 88.1513 29.0497ZM88.9638 25.9329C88.8699 26.6475 88.8947 28.009 89.0029 28.352C89.2259 28.352 89.4528 28.3637 89.6785 28.352C90.1245 28.3233 90.3305 28.1642 90.4127 27.7195C90.4652 27.4006 90.4775 27.0764 90.4492 26.7544C90.4035 26.1924 90.1323 25.9576 89.565 25.9368C89.372 25.9276 89.1803 25.9329 88.9638 25.9329Z" fill="#000"></path><path d="M80.4477 25.2478C81.1336 25.2478 81.8 25.2048 82.4573 25.2621C82.9789 25.3078 83.3297 25.6821 83.5006 26.175C83.7231 26.7737 83.7333 27.4307 83.5293 28.036C83.4503 28.3216 83.2818 28.5744 83.0484 28.757C82.8151 28.9397 82.5292 29.0426 82.233 29.0506C81.6527 29.0897 81.0671 29.0584 80.492 29.0584C80.3838 28.6906 80.3499 26.0824 80.4477 25.2478ZM81.2875 25.952V28.3072C82.5212 28.4885 82.8616 28.2016 82.8133 26.9797C82.7755 26.0068 82.3647 25.8946 81.6996 25.9364L81.2875 25.952Z" fill="#000"></path><path d="M112.451 27.1453C112.46 26.9355 112.482 26.7264 112.517 26.5194C112.74 25.5609 113.477 25.0705 114.567 25.1435C115.448 25.2022 116.097 25.8517 116.204 26.7867C116.216 26.9168 116.221 27.0474 116.218 27.178C116.209 28.5838 115.184 29.3949 113.816 29.082C113.456 29.004 113.131 28.8115 112.89 28.5333C112.649 28.2552 112.504 27.9064 112.478 27.5392C112.471 27.4089 112.471 27.2783 112.478 27.148L112.451 27.1453ZM115.375 27.0958C115.345 26.8752 115.299 26.6573 115.236 26.4437C115.094 26.0525 114.795 25.8621 114.374 25.8504C113.953 25.8386 113.637 26.0016 113.461 26.3785C113.348 26.6138 113.29 26.8714 113.29 27.1323C113.29 27.3933 113.348 27.6509 113.461 27.8861C113.544 28.0596 113.676 28.2045 113.841 28.3023C114.007 28.4001 114.197 28.4463 114.389 28.435C114.581 28.4236 114.765 28.3552 114.917 28.2386C115.07 28.122 115.184 27.9625 115.245 27.7805C115.303 27.5553 115.347 27.3266 115.375 27.0958Z" fill="#000"></path><path d="M107.647 27.1947C107.632 27.4114 107.601 27.6267 107.556 27.839C107.33 28.6775 106.643 29.1613 105.73 29.1431C104.817 29.1248 104.165 28.6279 103.951 27.7777C103.835 27.3194 103.844 26.8384 103.977 26.3849C104.221 25.5203 104.946 25.0808 105.984 25.1421C106.385 25.1643 106.765 25.3251 107.061 25.597C107.356 25.869 107.548 26.2351 107.603 26.6327C107.627 26.7931 107.629 26.9561 107.647 27.1947ZM106.82 27.123C106.789 26.898 106.74 26.6757 106.675 26.4579C106.618 26.2775 106.504 26.1205 106.35 26.0104C106.196 25.9004 106.01 25.8432 105.821 25.8476C105.376 25.8345 105.039 26.0145 104.88 26.4005C104.781 26.6333 104.731 26.8836 104.733 27.1362C104.734 27.3888 104.787 27.6385 104.887 27.8703C104.96 28.0458 105.085 28.1944 105.246 28.2954C105.407 28.3964 105.595 28.4447 105.785 28.4336C105.982 28.4341 106.174 28.3724 106.334 28.2572C106.495 28.142 106.614 27.9792 106.677 27.792C106.738 27.573 106.786 27.3504 106.82 27.1256V27.123Z" fill="#000"></path><path d="M99.2824 25.2697C99.3768 25.2501 99.4721 25.2353 99.568 25.2254C99.7284 25.2189 99.8901 25.2254 100.056 25.2254C100.087 25.292 100.11 25.3627 100.122 25.4353C100.116 26.2791 100.122 27.1242 100.087 27.9666C100.057 28.6187 99.7245 28.9643 99.0816 29.0934C98.9531 29.1225 98.822 29.1391 98.6903 29.1429C97.5779 29.1625 97.0054 28.7308 97.0171 27.5623C97.0171 26.9103 97.0171 26.2582 97.0171 25.614C97.0171 25.5045 97.0315 25.3936 97.0419 25.2554H97.8413C97.8413 25.4419 97.8413 25.614 97.8413 25.7874C97.8413 26.4199 97.8283 27.0537 97.8557 27.6862C97.8779 28.2 98.1165 28.4257 98.569 28.4374C99.0216 28.4491 99.2498 28.2418 99.2628 27.8062C99.2824 27.1398 99.2733 26.4747 99.2759 25.8083L99.2824 25.2697Z" fill="#000"></path><path d="M75.3528 29.0396H74.4712C74.3512 28.7605 74.2351 28.4945 74.1125 28.2102H72.6454L72.3129 29.0357H71.4443L72.9402 25.2538C73.1071 25.2446 73.2492 25.2303 73.3914 25.2303C73.5335 25.2303 73.6522 25.2459 73.8022 25.2564C74.316 26.4992 74.822 27.7381 75.3528 29.0396ZM73.8374 27.4642L73.4057 26.3649L73.3131 26.3857C73.1827 26.7378 73.064 27.0899 72.931 27.4642H73.8374Z" fill="#000"></path><path d="M85.3272 25.2499H86.184L87.7346 29.0383H86.8491L86.497 28.2115H85.0481L84.6869 29.0396H83.8301C84.34 27.7499 84.8303 26.5057 85.3272 25.2499ZM85.798 26.3688L85.6976 26.3871L85.3063 27.4669H86.2101C86.064 27.073 85.931 26.7209 85.798 26.3688Z" fill="#000"></path><path d="M96.7313 29.0461H95.8588L95.4858 28.2141H94.033C93.917 28.4906 93.8048 28.7579 93.6875 29.0409H92.8254L94.32 25.2512C94.4817 25.242 94.6238 25.2264 94.7673 25.2264C94.9107 25.2264 95.0281 25.2407 95.182 25.2499C95.688 26.4953 96.1953 27.7368 96.7313 29.0461ZM94.749 26.2397C94.5769 26.7013 94.4425 27.0639 94.2952 27.4616H95.1976C95.0503 27.0626 94.9185 26.7013 94.749 26.2397Z" fill="#000"></path><path d="M125.983 28.3828H128.109V29.0453C127.083 29.0805 126.067 29.0584 125.029 29.061C124.94 28.6319 124.936 28.2876 125.243 27.9538C125.749 27.4034 126.212 26.814 126.69 26.2402C126.759 26.1567 126.821 26.0641 126.929 25.9089H125.233V25.2347C126.155 25.2164 127.071 25.2151 127.992 25.2347C128.058 25.4051 128.072 25.5912 128.032 25.7696C127.993 25.9481 127.902 26.1109 127.77 26.2376C127.293 26.7696 126.843 27.3278 126.384 27.8755C126.266 28.0151 126.161 28.1546 125.983 28.3828Z" fill="#000"></path><path d="M71.2172 26.3138L70.4726 26.4729C70.3969 26.3542 70.3422 26.2551 70.277 26.1678C70.1878 26.0509 70.0694 25.9598 69.9337 25.9035C69.7979 25.8472 69.6497 25.8278 69.5041 25.8472C69.3584 25.8667 69.2205 25.9243 69.1043 26.0143C68.9881 26.1042 68.8978 26.2233 68.8424 26.3595C68.6533 26.8325 68.6533 27.3601 68.8424 27.8331C68.8926 27.9815 68.987 28.111 69.1129 28.2042C69.2387 28.2975 69.3901 28.35 69.5467 28.3547C69.7018 28.3724 69.8586 28.3413 69.9953 28.2658C70.132 28.1903 70.2418 28.0742 70.3096 27.9335C70.3643 27.8357 70.4074 27.7314 70.4791 27.5814L71.2198 27.7966C71.1932 28.0442 71.1002 28.28 70.9508 28.4792C70.8014 28.6784 70.6011 28.8336 70.3709 28.9286C70.1186 29.0443 69.8426 29.0986 69.5653 29.0871C69.288 29.0756 69.0174 28.9985 68.7757 28.8622C68.5339 28.726 68.3279 28.5344 68.1745 28.3031C68.0211 28.0719 67.9246 27.8076 67.893 27.5319C67.8572 27.2583 67.8572 26.9812 67.893 26.7077C68.0587 25.5522 68.9572 24.9628 70.1257 25.1845C70.6812 25.2849 71.006 25.6344 71.2172 26.3138Z" fill="#000"></path><path d="M118.445 29.0459H117.602C117.524 28.0235 117.602 27.0076 117.552 25.95L116.508 25.8887V25.2992C116.833 25.1988 118.905 25.1753 119.516 25.2731V25.8782L118.447 25.9461L118.445 29.0459Z" fill="#000"></path><path d="M103.675 25.3159V25.8871L102.586 25.9497V29.034H101.74V25.9523L100.651 25.8989C100.651 25.6785 100.651 25.492 100.651 25.3055C101.087 25.1816 103.326 25.1947 103.675 25.3159Z" fill="#000"></path><path d="M76.5494 25.2538V28.3419H78.4169V29.0266H75.7318V25.2538H76.5494Z" fill="#000"></path><path d="M124.596 29.0363C124.433 29.0468 124.322 29.0598 124.205 29.0598C124.087 29.0598 123.983 29.0481 123.879 29.0416C123.777 28.6673 123.748 26.1843 123.828 25.2596H124.591L124.596 29.0363Z" fill="#000"></path><path d="M78.9436 25.2518H79.7052V29.0272H78.9958C78.8915 28.679 78.8563 26.3003 78.9436 25.2518Z" fill="#000"></path></svg>