<?xml version="1.0" encoding="utf-8"?>
<!-- Generator: Adobe Illustrator 25.4.1, SVG Export Plug-In . SVG Version: 6.00 Build 0)  -->
<svg version="1.1" id="Capa_1" xmlns="http://www.w3.org/2000/svg" xmlns:xlink="http://www.w3.org/1999/xlink" x="0px" y="0px"
	 viewBox="0 0 1033.3 1002.5" style="enable-background:new 0 0 1033.3 1002.5;" xml:space="preserve">
<style type="text/css">
	.st0{fill:url(#SVGID_1_);}
	.st1{fill:url(#SVGID_00000163064228945535057610000009955425843133493394_);}
	.st2{clip-path:url(#SVGID_00000170242829358078104770000014327670117383331988_);}
	.st3{opacity:0.35;fill:url(#SVGID_00000120520451743796410000000017501364741874120605_);}
	.st4{opacity:0.32;fill:url(#SVGID_00000052816036903805748480000017760937277354811533_);}
	.st5{opacity:0.6;}
	.st6{fill:#FFFFFF;}
	.st7{fill:none;}
</style>
<g>
	<radialGradient id="SVGID_1_" cx="586.3654" cy="512.257" r="292.8137" gradientUnits="userSpaceOnUse">
		<stop  offset="1.117281e-02" style="stop-color:#6EDACC"/>
		<stop  offset="0.9988" style="stop-color:#63BF57"/>
	</radialGradient>
	<circle class="st0" cx="534.7" cy="498.6" r="318.9"/>
	
		<radialGradient id="SVGID_00000167379249415225868170000004586311334692551596_" cx="-30.1759" cy="752.5547" r="707.0624" fx="666.9255" fy="634.2889" gradientUnits="userSpaceOnUse">
		<stop  offset="0" style="stop-color:#173649"/>
		<stop  offset="0.9888" style="stop-color:#151D40"/>
	</radialGradient>
	<path style="fill:url(#SVGID_00000167379249415225868170000004586311334692551596_);" d="M327.4,268.3
		C151.9,283.7,12.1,427.3,0.8,603.1c-6.1,94.7,24.5,182.1,78.9,249.5L31.1,961.9c-10.8,24.3,14.3,49,38.4,37.9L190,944.3
		c56.3,30.2,121.5,46,190.7,42.1c182.2-10.2,329.8-158.7,338.9-341C730.5,427.2,547.2,248.9,327.4,268.3z"/>
	<g>
		<defs>
			<path id="SVGID_00000140005856375545389240000011232504255759831726_" d="M327.4,268.3C151.9,283.7,12.1,427.3,0.8,603.1
				c-6.1,94.7,24.5,182.1,78.9,249.5L31.1,961.9c-10.8,24.3,14.3,49,38.4,37.9L190,944.3c56.3,30.2,121.5,46,190.7,42.1
				c182.2-10.2,329.8-158.7,338.9-341C730.5,427.2,547.2,248.9,327.4,268.3z"/>
		</defs>
		<clipPath id="SVGID_00000149364258362236849540000005105907489598392706_">
			<use xlink:href="#SVGID_00000140005856375545389240000011232504255759831726_"  style="overflow:visible;"/>
		</clipPath>
		<g style="clip-path:url(#SVGID_00000149364258362236849540000005105907489598392706_);">
			
				<image style="overflow:visible;" width="724" height="738" xlink:href="8087972A6249D658.png"  transform="matrix(1 0 0 1 121 177.994)">
			</image>
		</g>
	</g>
	
		<radialGradient id="SVGID_00000060734559889515689830000004808882425984425630_" cx="328.5695" cy="677.4534" r="429.8445" gradientUnits="userSpaceOnUse">
		<stop  offset="0" style="stop-color:#FFFFFF;stop-opacity:0"/>
		<stop  offset="0.8587" style="stop-color:#FFFFFF;stop-opacity:0.8587"/>
		<stop  offset="1" style="stop-color:#FFFFFF"/>
	</radialGradient>
	<path style="opacity:0.35;fill:url(#SVGID_00000060734559889515689830000004808882425984425630_);" d="M327.4,268.3
		C151.9,283.7,12.1,427.3,0.8,603.1c-6.1,94.7,24.5,182.1,78.9,249.5L31.1,961.9c-10.8,24.3,14.3,49,38.4,37.9L190,944.3
		c56.3,30.2,121.5,46,190.7,42.1c182.2-10.2,329.8-158.7,338.9-341C730.5,427.2,547.2,248.9,327.4,268.3z"/>
	
		<radialGradient id="SVGID_00000121987548219325681480000017063819533074959507_" cx="316.9133" cy="329.9514" r="554.4878" gradientUnits="userSpaceOnUse">
		<stop  offset="0" style="stop-color:#FFFFFF"/>
		<stop  offset="1" style="stop-color:#FFFFFF;stop-opacity:0"/>
	</radialGradient>
	<path style="opacity:0.32;fill:url(#SVGID_00000121987548219325681480000017063819533074959507_);" d="M327.4,268.3
		C151.9,283.7,12.1,427.3,0.8,603.1c-6.1,94.7,24.5,182.1,78.9,249.5L31.1,961.9c-10.8,24.3,14.3,49,38.4,37.9L190,944.3
		c56.3,30.2,121.5,46,190.7,42.1c182.2-10.2,329.8-158.7,338.9-341C730.5,427.2,547.2,248.9,327.4,268.3z"/>
	<g id="logo_00000126282662735541524400000009497437443929384099_" class="st5">
		<path class="st6" d="M314.3,525.6c-0.8-2.1-2.7-3.7-4.9-4.1c-19.7-3.6-39.1,13.2-45.7,30.3c-8.3,21.6,0.1,45.1,9.7,64.9
			c11,22.5,27.1,42,45.1,59.3c1.5,1.4,3,2.8,4.5,4.2c16.2,15.5,34.8,29.1,55.9,37.1c17.8,6.7,42.5,12.1,60.7,4.5
			c9.4-3.9,17.7-10.8,22.9-19.6c3.3-5.6,10.3-24,2.4-28.4c-14.9-8.3-29.8-16.7-44.7-25c-2.6-1.5-6-0.9-8,1.3l-20.8,23.1
			c-1.9,2.1-4.9,2.7-7.5,1.6c-31.3-14-55-37.7-69.4-67.7c-1.2-2.5-0.7-5.5,1.3-7.4l16.6-16.6c1.8-1.8,2.4-4.5,1.5-6.9L314.3,525.6z"
			/>
		<g>
			<g>
				<path class="st6" d="M166,850.3l27.5-113.8c-19.7-29.5-31.4-63.5-33.9-99.1c-8.1-112.8,77.1-211.2,189.9-219.3
					S560.7,495.2,568.8,608c8.1,112.8-77.1,211.2-189.9,219.3c-33.5,2.4-67.2-3.5-97.8-17.1L166,850.3z M283.1,772.7l6.5,3.2
					c26.9,13.1,56.9,18.9,86.8,16.8c93.7-6.7,164.4-88.4,157.7-182.1c-6.7-93.7-88.4-164.4-182.1-157.7
					c-93.7,6.7-164.4,88.4-157.7,182.1c2.3,31.8,13.4,62.1,32,87.8l4.7,6.5l-16.3,67.3L283.1,772.7z"/>
			</g>
		</g>
	</g>
	<path id="SVGID_x5F_00000105415576080904120070000008131886435937311368_x5F_" class="st7" d="M512.3,910.7
		C294.8,899,122,719,122,498.6c0-227.9,184.8-412.7,412.7-412.7s412.7,184.8,412.7,412.7c0,223.2-177.2,405-398.6,412.5"/>
	<text>	<textPath  xlink:href="#SVGID_x5F_00000105415576080904120070000008131886435937311368_x5F_" startOffset="31.586%">
<tspan  class="st6" style="font-family:'Biennale-Light'; font-size:101.367px; letter-spacing:800;">CONTÁCTANOS</tspan>	</textPath>
</text>
</g>
</svg>
