<?xml version="1.0" encoding="utf-8"?>
<!-- Generator: Adobe Illustrator 25.4.1, SVG Export Plug-In . SVG Version: 6.00 Build 0)  -->
<svg version="1.1" id="Capa_1" xmlns="http://www.w3.org/2000/svg" xmlns:xlink="http://www.w3.org/1999/xlink" x="0px" y="0px"
	 viewBox="0 0 866.01 411.57" style="enable-background:new 0 0 866.01 411.57;" xml:space="preserve">
<style type="text/css">
	.st0{fill:#FFFFFF;}
	.st1{fill:#009ADB;}
	.st2{fill:none;stroke:#FFFFFF;stroke-width:3.9376;stroke-linecap:round;stroke-linejoin:round;stroke-miterlimit:10;}
	.st3{fill:#263238;}
	.st4{fill:none;stroke:#263238;stroke-width:3.9376;stroke-linecap:round;stroke-linejoin:round;stroke-miterlimit:10;}
	.st5{fill:#FFFFFF;stroke:#263238;stroke-width:3.9376;stroke-linecap:round;stroke-linejoin:round;stroke-miterlimit:10;}
	.st6{fill:#4A4A4A;}
	.st7{fill:none;stroke:#263238;stroke-width:4.6631;stroke-linecap:round;stroke-linejoin:round;stroke-miterlimit:10;}
	.st8{fill:none;stroke:#263238;stroke-width:3.8872;stroke-linecap:round;stroke-linejoin:round;stroke-miterlimit:10;}
	.st9{fill:none;stroke:#263238;stroke-width:3.8872;stroke-linecap:round;stroke-linejoin:round;}
	.st10{fill:none;stroke:#263238;stroke-width:4.3581;stroke-linecap:round;stroke-linejoin:round;stroke-miterlimit:10;}
	.st11{fill:#009ADB;stroke:#263238;stroke-width:4.3581;stroke-linecap:round;stroke-linejoin:round;stroke-miterlimit:10;}
	.st12{fill:none;stroke:#FFFFFF;stroke-width:3.6692;stroke-linecap:round;stroke-linejoin:round;stroke-miterlimit:10;}
	.st13{clip-path:url(#SVGID_00000081627459910223327870000000288072878415394689_);fill:#FFFFFF;}
	.st14{clip-path:url(#SVGID_00000161633791142234267190000001673937663741519499_);fill:#009CE0;}
	.st15{clip-path:url(#SVGID_00000161633791142234267190000001673937663741519499_);fill:#FFFFFF;}
	.st16{fill:none;stroke:#009CE0;stroke-width:10.4059;stroke-linecap:round;stroke-linejoin:round;stroke-miterlimit:10;}
	.st17{fill:none;stroke:#263238;stroke-width:3.8281;stroke-linecap:round;stroke-linejoin:round;stroke-miterlimit:10;}
</style>
<g>
	<g>
		<path class="st0" d="M73.02,345.61c-11.36-2.08-21-3.22-30.3-5.66c-25.19-6.64-30.08-23.46-12.32-42.41
			c6.62-7.07,14.27-13.17,22.57-20.73c-10.37-1.92-19.56-3.07-28.45-5.38c-27.38-7.12-32.57-24.75-11.81-44.26
			c12.74-11.98,27.15-22.93,42.48-31.27c30.25-16.46,61.64-30.84,92.64-45.91c2.94-1.43,6.5-1.58,9.77-2.33
			c0.56,1.22,1.11,2.44,1.67,3.66c-3.65,2.31-7.14,4.92-10.97,6.88c-33.23,17.01-66.96,33.1-99.56,51.22
			c-13.01,7.23-24.51,17.96-34.96,28.77c-9.79,10.13-7.26,19.07,6.23,23.24c21.98,6.8,42.78,10.3,65.83-2.93
			c62.15-35.68,128.75-62.09,197.16-83.11c78.45-24.11,157.04-48.06,236.5-68.47c81.99-21.06,165.33-36.22,250.44-38.46
			c12.6-0.33,43.72-25.78,47.56-37.99c2.8-8.92-2.46-14.04-9.52-15.74c-13.48-3.24-27.3-6.48-41.06-6.9
			c-57.82-1.75-114.88,6.34-171.21,18.09c-64.29,13.41-128.03,29.43-192.02,44.27c-4.04,0.94-8.16,1.53-12.24,2.29
			c-0.38-1.04-0.76-2.09-1.14-3.13c1.97-1.45,3.73-3.63,5.92-4.25C511.85,32.47,628.37,4.36,749.14,0.12
			c18.65-0.65,37.91,1.3,56.08,5.53c24.02,5.59,27.98,22.64,11.05,40.96c-6.83,7.4-14.87,13.69-22.83,20.9
			c11.9,2.53,23.23,3.95,33.89,7.42c20.35,6.62,24.51,21.47,10.54,37.83c-7.27,8.52-16.24,15.6-24.93,23.78
			c11.18,2.23,21.7,3.5,31.73,6.48c23.13,6.89,28.71,24.21,10.52,40.11c-19.88,17.39-41.91,33.27-65.21,45.64
			c-85.21,45.2-176.01,76.72-268.06,104.67c-108.61,32.98-218.49,60.83-331.4,74.11c-36.92,4.34-74.5,3.45-111.8,4.01
			c-7.87,0.12-16.16-2.99-23.63-6.1c-17.14-7.13-20.3-20.93-8.57-35.46c3.59-4.45,7.8-8.46,12.02-12.35
			C62.68,353.84,67.19,350.43,73.02,345.61z M111.81,407.01c25.53-2.03,43.97-3.36,62.37-5.01c9.81-0.88,19.61-2.09,29.36-3.54
			C369.23,373.9,529.47,329,685.36,268.25c48.62-18.95,96.39-40.03,139.77-69.51c10.38-7.06,19.39-16.34,28.21-25.4
			c4.93-5.06,5.99-11.69-0.16-17.51c-9.71-9.19-49.4-13.73-61.35-7.32c-18.45,9.89-36.72,20.24-55.7,29.02
			c-122.79,56.78-251.53,95.92-382.7,127.53c-79.54,19.17-159.7,35.94-241.68,38.77c-25.76,0.89-42.2,13.48-58.04,29.43
			c-11.93,12.01-8.68,23.29,7.84,26.77C80.28,404,99.57,405.4,111.81,407.01z M88.86,265.03
			c108.02,14.46,615.52-129.81,669.83-190.81C522.4,100.72,300.05,163.24,88.86,265.03z M107.69,336.03
			c147.61,1.17,609.17-130.26,667.62-189.58C667.84,134.13,198.48,266.97,107.69,336.03z M585.74,162.43c0.3,0.57,0.6,1.14,0.9,1.71
			c0.79,0,1.61,0.14,2.37-0.02c62.32-12.84,124.85-24.78,188.66-26.1c26.92-0.56,42.4-16.84,56.94-35.22
			c2.45-3.1,1.37-12.47-1.6-15.72c-8.81-9.63-48.5-13.32-60-7.82c-43.63,20.84-87.24,41.75-131.25,61.77
			C623.6,149.29,604.44,155.37,585.74,162.43z M279.06,250.69c-0.16-0.51-0.31-1.02-0.47-1.54c-2.72,0.48-5.44,0.9-8.14,1.44
			c-60.87,12.13-121.92,23.5-184.14,25.08c-26.44,0.67-41.4,17.15-55.59,35.27c-2.32,2.97-1.37,11.68,1.38,14.85
			c8.4,9.65,48.78,14.77,59.85,8.35c56.72-32.94,117.37-57.04,178.66-79.7C273.49,253.38,276.24,251.95,279.06,250.69z"/>
		<path class="st0" d="M240.2,115.9c23.67-14.61,23.62-33.51,20.64-53.9c10.23,16.04,17.16,35.64,45.89,34.14
			c-21.45,14.84-23.74,32.99-20.34,53.51C276.74,132.43,268.05,114.94,240.2,115.9z"/>
		<path class="st0" d="M182.88,137.5c2.86-9.05,5.89-18.65,8.33-26.38c5.8,5.16,13.57,12.06,21.79,19.37
			c-1.48,2.35-5.11,6.35-6.64,11.04c-1.6,4.88-1.17,10.42-1.53,14.63C197.61,150.02,189.78,143.36,182.88,137.5z"/>
		<path class="st0" d="M361.82,78.55c-2.53,8.06-5.25,16.71-7.64,24.31c-6.01-5.02-13.55-11.31-20.43-17.05
			c2.66-7.53,5.93-16.8,8.83-25.02C348.09,65.88,355.17,72.42,361.82,78.55z"/>
	</g>
</g>
</svg>
