<?xml version="1.0" encoding="utf-8"?>
<!-- Generator: Adobe Illustrator 25.4.1, SVG Export Plug-In . SVG Version: 6.00 Build 0)  -->
<svg version="1.1" id="Capa_1" xmlns="http://www.w3.org/2000/svg" xmlns:xlink="http://www.w3.org/1999/xlink" x="0px" y="0px"
	 viewBox="0 0 852.1 852.1" style="enable-background:new 0 0 852.1 852.1;" xml:space="preserve">
<style type="text/css">
	.st0{fill:none;stroke:#FFFFFF;stroke-width:5.5104;stroke-miterlimit:10;}
	.st1{opacity:0.3;fill:url(#SVGID_1_);enable-background:new    ;}
	.st2{opacity:0.7;}
	.st3{fill:#FFFFFF;}
</style>
<g>
	<g>
		<circle class="st0" cx="426.1" cy="426.1" r="423.3"/>
		
			<linearGradient id="SVGID_1_" gradientUnits="userSpaceOnUse" x1="25.9552" y1="427.9552" x2="826.1552" y2="427.9552" gradientTransform="matrix(1 0 0 -1 0 853.9103)">
			<stop  offset="0" style="stop-color:#717EC9"/>
			<stop  offset="1.544946e-02" style="stop-color:#7280C9"/>
			<stop  offset="0.6854" style="stop-color:#92C2DE"/>
			<stop  offset="1" style="stop-color:#9EDCE6"/>
		</linearGradient>
		<path class="st1" d="M426.1,25.9C205.1,25.9,26,205,26,426s179.1,400.1,400.1,400.1S826.2,647,826.2,426
			C826.2,205.1,647,25.9,426.1,25.9z"/>
		<g class="st2">
			<path class="st3" d="M686,626.5L485.3,425.9L686,225.6c-41.6,0.3-83.2,0.4-124.7,0.4L361.2,426l199.4,199.4
				c33.6,0,67.2,0.2,100.8,0.6l0,0C658.9,625.9,671.2,626.2,686,626.5z"/>
			<path class="st3" d="M467.2,625.8L267.9,426.5l200.2-200.1c-26.9,0-53.8-0.2-80.7-0.6c6,0-20.9,0.5-43.4,0L143.3,426.5
				l200.1,199.8C384.7,625.9,425.7,625.8,467.2,625.8z"/>
		</g>
	</g>
</g>
</svg>
