<?xml version="1.0" encoding="utf-8"?>
<!-- Generator: Adobe Illustrator 25.4.1, SVG Export Plug-In . SVG Version: 6.00 Build 0)  -->
<svg version="1.1" id="Capa_1" xmlns="http://www.w3.org/2000/svg" xmlns:xlink="http://www.w3.org/1999/xlink" x="0px" y="0px"
	 viewBox="0 0 877.91 258.68" style="enable-background:new 0 0 877.91 258.68;" xml:space="preserve">
<style type="text/css">
	.st0{fill:#FFFFFF;}
	.st1{fill:#009ADB;}
	.st2{fill:none;stroke:#FFFFFF;stroke-width:3.9376;stroke-linecap:round;stroke-linejoin:round;stroke-miterlimit:10;}
	.st3{fill:#263238;}
	.st4{fill:none;stroke:#263238;stroke-width:3.9376;stroke-linecap:round;stroke-linejoin:round;stroke-miterlimit:10;}
	.st5{fill:#FFFFFF;stroke:#263238;stroke-width:3.9376;stroke-linecap:round;stroke-linejoin:round;stroke-miterlimit:10;}
	.st6{fill:#4A4A4A;}
	.st7{fill:none;stroke:#263238;stroke-width:4.6631;stroke-linecap:round;stroke-linejoin:round;stroke-miterlimit:10;}
	.st8{fill:none;stroke:#263238;stroke-width:3.8872;stroke-linecap:round;stroke-linejoin:round;stroke-miterlimit:10;}
	.st9{fill:none;stroke:#263238;stroke-width:3.8872;stroke-linecap:round;stroke-linejoin:round;}
	.st10{fill:none;stroke:#263238;stroke-width:4.3581;stroke-linecap:round;stroke-linejoin:round;stroke-miterlimit:10;}
	.st11{fill:#009ADB;stroke:#263238;stroke-width:4.3581;stroke-linecap:round;stroke-linejoin:round;stroke-miterlimit:10;}
	.st12{fill:none;stroke:#FFFFFF;stroke-width:3.6692;stroke-linecap:round;stroke-linejoin:round;stroke-miterlimit:10;}
	.st13{clip-path:url(#SVGID_00000158026588800129563960000015577595541455063693_);fill:#FFFFFF;}
	.st14{clip-path:url(#SVGID_00000092428920457329746300000013393730199075464868_);fill:#009CE0;}
	.st15{clip-path:url(#SVGID_00000092428920457329746300000013393730199075464868_);fill:#FFFFFF;}
	.st16{fill:none;stroke:#009CE0;stroke-width:10.4059;stroke-linecap:round;stroke-linejoin:round;stroke-miterlimit:10;}
	.st17{fill:none;stroke:#263238;stroke-width:3.8281;stroke-linecap:round;stroke-linejoin:round;stroke-miterlimit:10;}
</style>
<g>
	<defs>
		<rect id="SVGID_1_" width="877.91" height="258.68"/>
	</defs>
	<clipPath id="SVGID_00000054256595493838193930000013439822709015700884_">
		<use xlink:href="#SVGID_1_"  style="overflow:visible;"/>
	</clipPath>
	<path style="clip-path:url(#SVGID_00000054256595493838193930000013439822709015700884_);fill:#FFFFFF;" d="M748.59,197.18
		c0-1.31,0.38-2.23,1.15-2.77s1.8-0.81,3.11-0.81c0.93,0,1.77,0.11,2.49,0.33c0.74,0.23,1.19,0.37,1.38,0.45v30.59h18.38v7.12h-26.5
		V197.18z"/>
	<path style="clip-path:url(#SVGID_00000054256595493838193930000013439822709015700884_);fill:#FFFFFF;" d="M810.05,201.1
		c-0.19,0.37-0.49,1.08-0.93,2.13c-0.43,1.05-0.93,2.3-1.51,3.75c-0.58,1.46-1.22,3.05-1.93,4.79c-0.71,1.73-1.4,3.47-2.07,5.18
		h12.83c-0.67-1.72-1.36-3.45-2.04-5.18c-0.69-1.74-1.34-3.33-1.93-4.77c-0.6-1.44-1.12-2.68-1.55-3.73
		C810.49,202.24,810.2,201.51,810.05,201.1 M789.43,232.09c0.82-2.21,1.71-4.48,2.66-6.84c0.95-2.35,1.9-4.67,2.86-6.97
		c0.95-2.3,1.89-4.53,2.8-6.7c0.92-2.16,1.77-4.16,2.55-5.97c0.78-1.81,1.49-3.41,2.1-4.79c0.62-1.38,1.11-2.44,1.49-3.19
		c0.82-1.75,1.74-2.95,2.74-3.59c1.01-0.64,2.23-0.95,3.65-0.95c1.45,0,2.57,0.21,3.33,0.62c0.76,0.41,1.3,0.77,1.6,1.07
		c0.67,1.15,1.47,2.72,2.4,4.67c0.93,1.97,1.92,4.13,2.95,6.51c1.03,2.37,2.06,4.84,3.1,7.39c1.05,2.56,2.04,5.03,2.97,7.43
		c0.93,2.39,1.78,4.58,2.55,6.56c0.76,1.98,1.37,3.57,1.82,4.77h-8.63c-0.3-0.82-0.72-1.92-1.26-3.28c-0.54-1.36-1.19-3-1.94-4.9
		h-18.32c-0.75,1.9-1.38,3.53-1.9,4.88c-0.52,1.34-0.95,2.44-1.29,3.3H789.43z"/>
	<path style="clip-path:url(#SVGID_00000054256595493838193930000013439822709015700884_);fill:#FFFFFF;" d="M869.67,220.66
		c0-0.59-0.11-1.2-0.34-1.79c-0.23-0.6-0.56-1.13-1.01-1.6c-0.45-0.47-1.02-0.84-1.7-1.12c-0.69-0.28-1.52-0.42-2.5-0.42h-8.63v9.8
		h8.63c1.94,0,3.35-0.5,4.24-1.51C869.23,223.02,869.67,221.89,869.67,220.66 M867.99,204.58c0-1.2-0.42-2.24-1.26-3.14
		c-0.84-0.9-2.21-1.34-4.12-1.34h-7.11v9.13h7.01c1.9,0,3.3-0.47,4.17-1.42C867.55,206.85,867.99,205.77,867.99,204.58
		 M847.54,197.97c0-2.91,1.51-4.37,4.54-4.37h11.1c2.24,0,4.17,0.27,5.77,0.81c1.61,0.54,2.94,1.27,4.01,2.19
		c1.06,0.91,1.85,1.99,2.35,3.25c0.5,1.25,0.76,2.59,0.76,4.01c0,1.42-0.23,2.64-0.7,3.67c-0.47,1.03-1,1.87-1.63,2.55
		c-0.62,0.68-1.2,1.19-1.76,1.54c-0.57,0.35-0.92,0.57-1.07,0.64c0.64,0.16,1.36,0.45,2.19,0.87c0.82,0.43,1.59,1.01,2.3,1.74
		c0.71,0.73,1.31,1.63,1.8,2.69c0.48,1.07,0.72,2.33,0.72,3.78c0,1.16-0.21,2.38-0.62,3.64c-0.41,1.27-1.12,2.43-2.13,3.47
		c-1,1.05-2.36,1.92-4.06,2.61c-1.7,0.69-3.84,1.04-6.41,1.04h-17.15V197.97z"/>
	<path style="clip-path:url(#SVGID_00000054256595493838193930000013439822709015700884_);fill:#FFFFFF;" d="M15.76,108.75
		c0,6.21,1,12.09,2.99,17.64c2,5.55,4.89,10.36,8.66,14.43c3.78,4.07,8.29,7.29,13.54,9.65c5.25,2.37,11.2,3.56,17.86,3.56
		c6.36,0,12.21-1.11,17.54-3.33c5.32-2.22,9.84-5.33,13.53-9.33c3.7-3.99,6.58-8.73,8.66-14.2c2.07-5.47,3.11-11.46,3.11-17.98
		c0-6.36-1.07-12.35-3.22-17.98c-2.15-5.62-5.11-10.5-8.88-14.65c-3.77-4.14-8.29-7.4-13.54-9.77c-5.25-2.37-10.98-3.55-17.2-3.55
		c-6.66,0-12.62,1.15-17.86,3.44c-5.25,2.3-9.77,5.52-13.54,9.66c-3.77,4.14-6.65,8.99-8.66,14.53
		C16.76,96.44,15.76,102.39,15.76,108.75 M101.87,7.55c0-2.22,0.63-4.03,1.89-5.44c1.25-1.41,3.3-2.11,6.1-2.11
		c1.34,0,2.62,0.18,3.88,0.55c1.26,0.37,2.19,0.71,2.77,1v101.87c0,3.55-0.11,6.69-0.33,9.43c-0.23,2.74-0.49,5.14-0.78,7.21
		c-1.33,7.25-3.62,13.75-6.87,19.52c-3.26,5.77-7.33,10.66-12.21,14.65c-4.88,4-10.51,7.06-16.87,9.21
		c-6.36,2.15-13.24,3.22-20.64,3.22c-8.73,0-16.68-1.52-23.86-4.55c-7.18-3.03-13.35-7.18-18.53-12.43
		c-5.18-5.25-9.21-11.39-12.1-18.42C1.44,124.25,0,116.74,0,108.75C0,100.61,1.44,93.03,4.33,86c2.89-7.03,6.92-13.17,12.1-18.42
		c5.18-5.25,11.35-9.36,18.53-12.32c7.18-2.96,15.13-4.44,23.86-4.44c9.77,0,18.27,1.92,25.52,5.77s13.1,9.1,17.54,15.76V7.55z"/>
	<path style="clip-path:url(#SVGID_00000054256595493838193930000013439822709015700884_);fill:#FFFFFF;" d="M140.27,63.16
		c0-2.22,0.63-4.03,1.89-5.44c1.25-1.41,3.3-2.11,6.1-2.11c1.34,0,2.62,0.18,3.89,0.55c1.25,0.37,2.18,0.71,2.77,1v108.08h-14.65
		V63.16z"/>
	<path style="clip-path:url(#SVGID_00000054256595493838193930000013439822709015700884_);fill:#FFFFFF;" d="M636.08,64.05
		c0-2.22,0.63-4.03,1.89-5.44c1.25-1.41,3.3-2.11,6.1-2.11c1.34,0,2.62,0.18,3.89,0.55c1.25,0.37,2.18,0.71,2.77,1v108.08h-14.65
		V64.05z"/>
	<path style="clip-path:url(#SVGID_00000054256595493838193930000013439822709015700884_);fill:#FFFFFF;" d="M731.52,62.94
		c-6.21,0-11.94,0.88-17.2,2.66c-5.25,1.78-9.8,4.52-13.65,8.22c-3.85,3.7-6.85,8.39-8.99,14.09c-2.15,5.69-3.22,12.39-3.22,20.08
		c0,7.99,1.17,14.87,3.55,20.64c2.36,5.77,5.58,10.47,9.65,14.09c4.07,3.63,8.87,6.33,14.43,8.1c5.55,1.77,11.43,2.66,17.64,2.66
		c7.84,0,13.95-0.88,18.31-2.66c4.36-1.77,7.74-3.33,10.1-4.66l6,10.87c-4.29,2.37-9.25,4.48-14.87,6.33
		c-5.63,1.85-13.02,2.77-22.2,2.77c-8.29,0-16.02-1.26-23.19-3.77c-7.18-2.52-13.36-6.22-18.53-11.1
		c-5.18-4.88-9.25-10.88-12.21-17.98c-2.96-7.1-4.44-15.16-4.44-24.19c0-9.32,1.48-17.64,4.44-24.97
		c2.96-7.32,7.02-13.5,12.21-18.53c5.18-5.03,11.39-8.84,18.64-11.43c7.25-2.59,15.17-3.88,23.75-3.88c9.76,0,17.38,1,22.86,3
		c5.47,1.99,8.88,3.59,10.21,4.77c1.03,0.74,1.92,1.66,2.67,2.77c0.74,1.11,1.11,2.48,1.11,4.1c0,1.19-0.41,2.6-1.22,4.22
		c-0.81,1.63-2.04,3.03-3.66,4.21c-2.52-2.22-6.47-4.51-11.87-6.88C746.43,64.12,739.66,62.94,731.52,62.94"/>
	<path style="clip-path:url(#SVGID_00000054256595493838193930000013439822709015700884_);fill:#FFFFFF;" d="M863.35,110.43
		c-1.34-0.29-4.85-0.88-10.54-1.77c-5.7-0.88-14.09-1.33-25.19-1.33c-5.48,0-10.43,0.37-14.87,1.11c-4.44,0.74-8.25,2.04-11.43,3.88
		c-3.18,1.85-5.62,4.33-7.32,7.43c-1.7,3.11-2.55,6.96-2.55,11.55c0,7.98,3.14,13.87,9.43,17.64c6.29,3.77,16.75,5.66,31.4,5.66
		c9.62,0,16.79-0.4,21.53-1.22c4.74-0.81,7.92-1.44,9.55-1.88V110.43z M822.52,62.49c-8.29,0-15.02,1.04-20.2,3.1
		c-5.18,2.08-8.73,4-10.66,5.77c-1.03-0.74-1.96-1.77-2.77-3.1c-0.81-1.33-1.22-2.81-1.22-4.44c0-1.63,0.41-3.03,1.22-4.21
		c0.81-1.18,1.81-2.22,3-3.1c1.48-1.19,4.73-2.52,9.77-4c5.03-1.48,11.83-2.22,20.42-2.22c17.61,0,31.3,3.63,41.06,10.88
		c9.77,7.25,14.65,18.94,14.65,35.07v66.36c-4.29,0.74-10.47,1.51-18.53,2.33c-8.06,0.81-17.2,1.22-27.41,1.22
		c-11.84,0-21.34-1.04-28.52-3.1c-7.18-2.07-12.76-4.77-16.76-8.1c-3.99-3.33-6.65-7.06-7.99-11.21c-1.33-4.14-1.99-8.28-1.99-12.42
		c0-5.33,0.81-10.18,2.45-14.54c1.62-4.36,4.4-8.1,8.32-11.21c3.92-3.11,9.21-5.55,15.86-7.33c6.66-1.77,15.02-2.67,25.08-2.67
		c3.25,0,6.65,0.11,10.21,0.34c3.55,0.22,6.91,0.44,10.1,0.66c3.18,0.22,6.06,0.48,8.66,0.78c2.58,0.3,4.62,0.52,6.1,0.66v-1.34
		c0-6.8-1.15-12.42-3.44-16.87c-2.3-4.44-5.32-7.96-9.09-10.54c-3.78-2.59-8.1-4.36-12.98-5.32
		C832.95,62.97,827.84,62.49,822.52,62.49"/>
	<path style="clip-path:url(#SVGID_00000054256595493838193930000013439822709015700884_);fill:#FFFFFF;" d="M353.34,38.3
		l-6.44-8.44l22.86-18.64c1.77-1.48,3.29-2.48,4.55-3c1.26-0.52,2.69-0.78,4.33-0.78c3.25,0,5.66,1.11,7.21,3.33
		c1.56,2.22,2.4,4.29,2.55,6.22L353.34,38.3z M391.06,110.43c-1.34-0.29-4.85-0.88-10.54-1.77c-5.7-0.88-14.09-1.33-25.19-1.33
		c-5.48,0-10.43,0.37-14.87,1.11c-4.44,0.74-8.25,2.04-11.43,3.88c-3.18,1.85-5.62,4.33-7.32,7.43c-1.7,3.11-2.55,6.96-2.55,11.55
		c0,7.98,3.14,13.87,9.43,17.64c6.29,3.77,16.75,5.66,31.4,5.66c9.62,0,16.79-0.4,21.53-1.22c4.74-0.81,7.92-1.44,9.55-1.88V110.43z
		 M350.23,62.49c-8.29,0-15.02,1.04-20.2,3.1c-5.18,2.08-8.73,4-10.66,5.77c-1.03-0.74-1.96-1.77-2.77-3.1
		c-0.81-1.33-1.22-2.81-1.22-4.44c0-1.63,0.41-3.03,1.22-4.21c0.81-1.18,1.81-2.22,3-3.1c1.48-1.19,4.73-2.52,9.77-4
		c5.03-1.48,11.83-2.22,20.42-2.22c17.61,0,31.3,3.63,41.06,10.88c9.77,7.25,14.65,18.94,14.65,35.07v66.36
		c-4.29,0.74-10.47,1.51-18.53,2.33s-17.2,1.22-27.41,1.22c-11.84,0-21.34-1.04-28.52-3.1c-7.18-2.07-12.76-4.77-16.76-8.1
		c-3.99-3.33-6.65-7.06-7.99-11.21c-1.33-4.14-1.99-8.28-1.99-12.42c0-5.33,0.81-10.18,2.45-14.54c1.62-4.36,4.4-8.1,8.32-11.21
		c3.92-3.11,9.21-5.55,15.87-7.33c6.66-1.77,15.02-2.67,25.08-2.67c3.25,0,6.65,0.11,10.21,0.34c3.55,0.22,6.91,0.44,10.1,0.66
		c3.18,0.22,6.06,0.48,8.66,0.78c2.58,0.3,4.62,0.52,6.1,0.66v-1.34c0-6.8-1.15-12.42-3.44-16.87c-2.3-4.44-5.32-7.96-9.09-10.54
		c-3.78-2.59-8.1-4.36-12.98-5.32C360.66,62.97,355.55,62.49,350.23,62.49"/>
	<path style="clip-path:url(#SVGID_00000054256595493838193930000013439822709015700884_);fill:#FFFFFF;" d="M606.12,76.51
		c-2.37-5.18-5.62-9.5-9.76-12.98c-4.14-3.48-9.03-6.07-14.65-7.77c-5.62-1.7-11.69-2.55-18.2-2.55c-9.18,0-17.49,1.99-24.97,5.99
		c-7.47,4-13.35,9.84-17.64,17.53c-4.29-7.99-10.21-13.9-17.75-17.76c-7.55-3.84-16.06-5.76-25.53-5.76
		c-6.65,0-12.83,0.88-18.53,2.66c-5.69,1.77-10.65,4.44-14.87,7.99c-4.21,3.55-7.51,7.96-9.87,13.2
		c-2.37,5.25-3.56,11.36-3.56,18.32v16.89v48.49v10.13c0,40.33-32.8,73.14-73.13,73.14s-73.13-32.81-73.13-73.14v-4.94h0.01v-5.45
		v-48.27v-11.98c0-6.95-1.19-13.32-3.55-19.09c-2.37-5.77-5.77-10.73-10.21-14.87c-4.44-4.14-9.87-7.35-16.31-9.65
		c-6.44-2.29-13.65-3.44-21.64-3.44c-7.99,0-15.17,1.15-21.53,3.44c-6.36,2.3-11.76,5.52-16.19,9.65
		c-4.44,4.14-7.85,9.1-10.21,14.87c-2.37,5.77-3.56,12.13-3.56,19.09v65.69h14.65V104.7c0-12.28,3.03-21.82,9.1-28.63
		c6.07-6.8,15.32-10.2,27.74-10.2c12.43,0,21.72,3.4,27.85,10.2c6.14,6.81,9.21,16.35,9.21,28.63v55.21c0,0.28-0.02,0.56-0.02,0.84
		v10.13c0,48.41,39.38,87.79,87.79,87.79c48.4,0,87.79-39.38,87.79-87.79v-10.13c0-0.03-0.01-0.06-0.01-0.08v-58.41
		c0-6.51,0.81-12.06,2.44-16.65c1.63-4.59,3.96-8.36,6.99-11.32c3.03-2.96,6.58-5.11,10.65-6.44c4.07-1.33,8.55-1.99,13.43-1.99
		c4.74,0,9.18,0.7,13.32,2.1c4.14,1.41,7.73,3.63,10.76,6.66c3.03,3.03,5.43,6.96,7.21,11.77c1.77,4.81,2.66,10.61,2.66,17.42v62.14
		h14.65v-62.14c0-6.8,0.88-12.61,2.66-17.42c1.78-4.81,4.22-8.73,7.33-11.77c3.1-3.03,6.73-5.25,10.88-6.66
		c4.14-1.4,8.58-2.1,13.32-2.1c9.77,0,17.76,2.74,23.97,8.21s9.32,14.65,9.32,27.52v64.36h14.65V94.71
		C609.68,87.76,608.49,81.7,606.12,76.51"/>
	<path style="clip-path:url(#SVGID_00000054256595493838193930000013439822709015700884_);fill:#FFFFFF;" d="M531.51,219.71
		c0.26-0.52,0.69-1.4,1.29-2.63c0.6-1.24,1.28-2.64,2.05-4.24c0.76-1.58,1.56-3.25,2.4-5.01c0.84-1.75,1.63-3.41,2.38-4.96
		c0.74-1.55,1.41-2.91,1.99-4.09c0.57-1.17,0.98-1.97,1.2-2.38c0.15-0.26,0.33-0.55,0.53-0.87c0.21-0.32,0.47-0.62,0.78-0.9
		c0.31-0.28,0.69-0.52,1.12-0.7c0.43-0.18,0.93-0.28,1.48-0.28c0.75,0,1.31,0.1,1.68,0.28c0.37,0.18,0.64,0.33,0.78,0.45
		c0.37,6.42,0.74,12.71,1.1,18.88c0.35,6.16,0.7,12.44,1.03,18.82h-3.7c-0.07-1.2-0.16-2.71-0.25-4.54
		c-0.09-1.83-0.19-3.82-0.3-5.97c-0.11-2.14-0.25-4.38-0.4-6.7c-0.15-2.31-0.28-4.53-0.39-6.66c-0.11-2.13-0.23-4.09-0.34-5.88
		c-0.11-1.8-0.18-3.27-0.22-4.43c-0.23,0.45-0.65,1.32-1.27,2.58c-0.62,1.27-1.34,2.74-2.19,4.43c-0.83,1.68-1.73,3.49-2.66,5.41
		c-0.93,1.92-1.84,3.77-2.72,5.54c-0.88,1.77-1.66,3.38-2.35,4.82c-0.69,1.44-1.2,2.51-1.54,3.22h-3.42
		c-0.34-0.67-0.81-1.63-1.4-2.86c-0.6-1.23-1.27-2.62-2.02-4.17c-0.74-1.55-1.54-3.2-2.38-4.96c-0.85-1.75-1.68-3.48-2.52-5.18
		c-0.84-1.7-1.64-3.31-2.41-4.84c-0.76-1.53-1.45-2.86-2.04-3.98c-0.15,2.66-0.3,5.43-0.47,8.32c-0.17,2.9-0.33,5.82-0.48,8.77
		c-0.15,2.96-0.3,5.88-0.45,8.77c-0.15,2.9-0.28,5.67-0.39,8.32h-3.7c0.3-5.94,0.62-11.94,0.95-17.98
		c0.34-6.05,0.67-12.05,1.01-17.99c0.07-0.78,0.38-1.39,0.93-1.82c0.54-0.43,1.15-0.65,1.82-0.65c1.68,0,2.86,0.6,3.53,1.8
		c0.15,0.26,0.5,0.94,1.07,2.04c0.56,1.1,1.22,2.45,1.99,4.04c0.76,1.58,1.6,3.3,2.5,5.13c0.9,1.83,1.75,3.59,2.57,5.3
		c0.83,1.7,1.58,3.25,2.27,4.65S531.18,219.04,531.51,219.71"/>
	<path style="clip-path:url(#SVGID_00000054256595493838193930000013439822709015700884_);fill:#FFFFFF;" d="M594.77,210.46
		c0.52,0,0.96,0.14,1.32,0.42c0.35,0.28,0.53,0.71,0.53,1.32c0,0.41-0.06,0.76-0.2,1.06c-0.13,0.3-0.23,0.51-0.3,0.62h-18.77v14.79
		h19.72v3.42h-23.59v-36.2c0-0.67,0.21-1.22,0.62-1.63c0.41-0.41,1-0.62,1.79-0.62h19.67c0.52,0,0.96,0.14,1.32,0.42
		c0.35,0.28,0.53,0.72,0.53,1.32c0,0.41-0.06,0.76-0.2,1.06c-0.13,0.3-0.23,0.5-0.3,0.62h-19.55v13.39H594.77z"/>
	<path style="clip-path:url(#SVGID_00000054256595493838193930000013439822709015700884_);fill:#FFFFFF;" d="M647.17,212.76
		c0-2.09-0.28-4-0.81-5.71c-0.54-1.72-1.29-3.22-2.24-4.51s-2.11-2.35-3.47-3.2c-1.36-0.84-2.85-1.43-4.46-1.76
		c-0.98-0.19-1.97-0.34-2.97-0.45c-1.01-0.11-2.06-0.16-3.14-0.16h-8.01v31.82h8.57c2.65,0,5.01-0.39,7.06-1.17
		c2.05-0.78,3.78-1.88,5.18-3.28c1.4-1.4,2.46-3.09,3.19-5.07C646.8,217.28,647.17,215.11,647.17,212.76 M651.31,212.82
		c0,2.91-0.47,5.56-1.4,7.93c-0.93,2.38-2.28,4.4-4.03,6.08c-1.76,1.68-3.89,2.98-6.39,3.9c-2.5,0.91-5.34,1.37-8.51,1.37h-12.78
		v-36.2c0-0.67,0.21-1.21,0.62-1.63c0.42-0.41,1.05-0.62,1.91-0.62h9.7c1.08,0,2.23,0.06,3.44,0.17c1.22,0.11,2.31,0.26,3.27,0.45
		c2.13,0.45,4.07,1.2,5.83,2.24c1.75,1.05,3.25,2.35,4.48,3.92c1.23,1.57,2.18,3.39,2.85,5.47
		C650.98,207.97,651.31,210.28,651.31,212.82"/>
	<path style="clip-path:url(#SVGID_00000054256595493838193930000013439822709015700884_);fill:#FFFFFF;" d="M672.04,232.09v-36.42
		c0-0.6,0.16-1.09,0.47-1.46c0.32-0.37,0.86-0.56,1.6-0.56c0.37,0,0.72,0.05,1.04,0.14c0.32,0.09,0.57,0.2,0.76,0.31v37.99H672.04z"
		/>
	<path style="clip-path:url(#SVGID_00000054256595493838193930000013439822709015700884_);fill:#FFFFFF;" d="M712.5,196.06
		c-0.64,1.31-1.31,2.76-2.02,4.37c-0.71,1.61-1.45,3.32-2.21,5.13c-0.77,1.81-1.55,3.69-2.35,5.63c-0.81,1.94-1.6,3.89-2.38,5.83
		h17.82c-0.67-1.83-1.42-3.8-2.24-5.88c-0.82-2.09-1.64-4.1-2.47-6.02c-0.82-1.92-1.59-3.69-2.32-5.3
		C713.59,198.21,712.98,196.96,712.5,196.06 M694.12,232.09c1.05-2.95,2.18-6,3.39-9.14c1.22-3.13,2.44-6.24,3.68-9.3
		c1.23-3.06,2.45-6.04,3.67-8.94c1.21-2.89,2.36-5.57,3.44-8.04c0.67-1.49,1.31-2.54,1.9-3.14c0.6-0.59,1.42-0.89,2.47-0.89
		c0.82,0,1.46,0.16,1.93,0.5c0.47,0.34,0.83,0.66,1.1,0.95c0.63,1.16,1.41,2.79,2.35,4.9c0.94,2.11,1.94,4.43,3,6.97
		c1.07,2.55,2.15,5.18,3.25,7.91c1.1,2.72,2.12,5.3,3.05,7.73c0.93,2.43,1.75,4.58,2.44,6.44c0.69,1.87,1.17,3.22,1.43,4.04h-4.31
		c-0.19-0.45-0.45-1.16-0.78-2.13c-0.34-0.98-0.71-2.04-1.12-3.2c-0.41-1.15-0.83-2.31-1.26-3.47s-0.81-2.15-1.15-2.97h-20.34
		c-0.93,2.39-1.79,4.66-2.57,6.81c-0.78,2.15-1.39,3.8-1.8,4.96H694.12z"/>
</g>
</svg>
