<?xml version="1.0" encoding="utf-8"?>
<!-- Generator: Adobe Illustrator 25.4.1, SVG Export Plug-In . SVG Version: 6.00 Build 0)  -->
<svg version="1.1" id="Capa_1" xmlns="http://www.w3.org/2000/svg" xmlns:xlink="http://www.w3.org/1999/xlink" x="0px" y="0px"
	 viewBox="0 0 1111.23 292.1" style="enable-background:new 0 0 1111.23 292.1;" xml:space="preserve">
<style type="text/css">
	.st0{fill:#FFFFFF;}
	.st1{fill:#009ADB;}
	.st2{fill:none;stroke:#FFFFFF;stroke-width:3.9376;stroke-linecap:round;stroke-linejoin:round;stroke-miterlimit:10;}
	.st3{fill:#263238;}
	.st4{fill:none;stroke:#263238;stroke-width:3.9376;stroke-linecap:round;stroke-linejoin:round;stroke-miterlimit:10;}
	.st5{fill:#FFFFFF;stroke:#263238;stroke-width:3.9376;stroke-linecap:round;stroke-linejoin:round;stroke-miterlimit:10;}
	.st6{fill:#4A4A4A;}
	.st7{fill:none;stroke:#263238;stroke-width:4.6631;stroke-linecap:round;stroke-linejoin:round;stroke-miterlimit:10;}
	.st8{fill:none;stroke:#263238;stroke-width:3.8872;stroke-linecap:round;stroke-linejoin:round;stroke-miterlimit:10;}
	.st9{fill:none;stroke:#263238;stroke-width:3.8872;stroke-linecap:round;stroke-linejoin:round;}
	.st10{fill:none;stroke:#263238;stroke-width:4.3581;stroke-linecap:round;stroke-linejoin:round;stroke-miterlimit:10;}
	.st11{fill:#009ADB;stroke:#263238;stroke-width:4.3581;stroke-linecap:round;stroke-linejoin:round;stroke-miterlimit:10;}
	.st12{fill:none;stroke:#FFFFFF;stroke-width:3.6692;stroke-linecap:round;stroke-linejoin:round;stroke-miterlimit:10;}
	.st13{clip-path:url(#SVGID_00000115477607569381860510000016469233136859546012_);fill:#FFFFFF;}
	.st14{clip-path:url(#SVGID_00000034808519957645825960000012890415752135584404_);fill:#009CE0;}
	.st15{clip-path:url(#SVGID_00000034808519957645825960000012890415752135584404_);fill:#FFFFFF;}
	.st16{fill:none;stroke:#009CE0;stroke-width:10.4059;stroke-linecap:round;stroke-linejoin:round;stroke-miterlimit:10;}
	.st17{fill:none;stroke:#263238;stroke-width:3.8281;stroke-linecap:round;stroke-linejoin:round;stroke-miterlimit:10;}
</style>
<g id="OBJECT_00000167381680732895227890000009791833544436490637_">
	<g>
		<path class="st1" d="M431.24,273.52c-226.57-26.91-401.27-78.8-416.73-129.2C-4.56,82.15,225.67,45.43,527.73,62.46
			c302.07,17.03,563.33,81.45,582.39,143.62c19.07,62.16-211.16,98.88-513.22,81.86C539.76,284.71,484.09,279.79,431.24,273.52z
			 M693.9,79.87c-52.67-6.26-108.21-11.16-165.24-14.37C230.88,48.71,3.71,84.26,22.26,144.75
			C40.82,205.24,298.18,268.1,595.97,284.9c297.78,16.79,524.96-18.77,506.4-79.26C1087.37,156.73,916.26,106.27,693.9,79.87z"/>
	</g>
	<g>
		<path class="st1" d="M416.43,215.12c-84.08-9.98-162.49-23.59-229.39-40.01C76.43,147.96,10.4,116.32,1.1,86.02
			C-17.97,23.86,212.27-12.86,514.33,4.17c145.9,8.22,286.69,27.59,396.46,54.53c110.61,27.15,176.64,58.79,185.93,89.09
			c19.07,62.16-211.16,98.88-513.22,81.86C526.52,226.43,470.3,221.51,416.43,215.12z M681.07,21.61
			C627.62,15.26,571.84,10.39,515.26,7.2C217.47-9.59-9.7,25.97,8.86,86.46c8.93,29.12,73.19,59.71,180.94,86.16
			c108.6,26.66,248.08,45.83,392.76,53.98c297.78,16.79,524.96-18.77,506.4-79.26c-8.93-29.12-73.19-59.71-180.94-86.16
			C841.89,44.95,764.3,31.49,681.07,21.61z"/>
	</g>
</g>
</svg>
