<?xml version="1.0" encoding="utf-8"?>
<!-- Generator: Adobe Illustrator 25.4.1, SVG Export Plug-In . SVG Version: 6.00 Build 0)  -->
<svg version="1.1" id="Capa_1" xmlns="http://www.w3.org/2000/svg" xmlns:xlink="http://www.w3.org/1999/xlink" x="0px" y="0px"
	 viewBox="0 0 279.72 280.21" style="enable-background:new 0 0 279.72 280.21;" xml:space="preserve">
<style type="text/css">
	.st0{fill:#FFFFFF;}
	.st1{fill:#009ADB;}
	.st2{fill:none;stroke:#FFFFFF;stroke-width:3.9376;stroke-linecap:round;stroke-linejoin:round;stroke-miterlimit:10;}
	.st3{fill:#263238;}
	.st4{fill:none;stroke:#263238;stroke-width:3.9376;stroke-linecap:round;stroke-linejoin:round;stroke-miterlimit:10;}
	.st5{fill:#FFFFFF;stroke:#263238;stroke-width:3.9376;stroke-linecap:round;stroke-linejoin:round;stroke-miterlimit:10;}
	.st6{fill:#4A4A4A;}
	.st7{fill:none;stroke:#263238;stroke-width:4.6631;stroke-linecap:round;stroke-linejoin:round;stroke-miterlimit:10;}
	.st8{fill:none;stroke:#263238;stroke-width:3.8872;stroke-linecap:round;stroke-linejoin:round;stroke-miterlimit:10;}
	.st9{fill:none;stroke:#263238;stroke-width:3.8872;stroke-linecap:round;stroke-linejoin:round;}
	.st10{fill:none;stroke:#263238;stroke-width:4.3581;stroke-linecap:round;stroke-linejoin:round;stroke-miterlimit:10;}
	.st11{fill:#009ADB;stroke:#263238;stroke-width:4.3581;stroke-linecap:round;stroke-linejoin:round;stroke-miterlimit:10;}
	.st12{fill:none;stroke:#FFFFFF;stroke-width:3.6692;stroke-linecap:round;stroke-linejoin:round;stroke-miterlimit:10;}
	.st13{clip-path:url(#SVGID_00000055674429491847043270000001137731305980105602_);fill:#FFFFFF;}
	.st14{clip-path:url(#SVGID_00000055703125248404023610000017310377509630515082_);fill:#009CE0;}
	.st15{clip-path:url(#SVGID_00000055703125248404023610000017310377509630515082_);fill:#FFFFFF;}
	.st16{fill:none;stroke:#009CE0;stroke-width:10.4059;stroke-linecap:round;stroke-linejoin:round;stroke-miterlimit:10;}
	.st17{fill:none;stroke:#263238;stroke-width:3.8281;stroke-linecap:round;stroke-linejoin:round;stroke-miterlimit:10;}
</style>
<path class="st0" d="M82.77,103.13c10.26,0,17.35-6.1,18.01-15.49c0.62-8.66-5.53-15.81-14.8-17.22
	c-8.93-1.35-17.33,3.16-19.95,10.7C62.09,92.48,70.19,103.14,82.77,103.13 M98.54,116.39H67.21v94.92h31.33V116.39z M147.98,211.34
	v-3.31c0-16.85,0.03-33.71,0-50.56c-0.02-5.5,1.83-10.19,5.78-13.95c9.21-8.76,23.35-4.81,26.42,7.45c0.82,3.31,1.1,6.85,1.12,10.27
	c0.11,15.68,0.06,31.35,0.06,47.02v3h31.58c0.06-0.56,0.11-0.9,0.11-1.27c-0.01-18.94,0.23-37.9-0.19-56.85
	c-0.13-5.72-1.37-11.63-3.3-17.04c-4.63-13.04-14.33-20.33-28.07-21.84c-13.05-1.44-24.16,2.17-32.05,13.33
	c-0.33,0.47-0.75,0.86-1.62,1.84v-13.04h-31.4v94.97H147.98z M148.51,280.21h-17.5c-0.79-0.16-1.57-0.4-2.36-0.47
	c-26.92-2.17-51.51-10.98-72.74-27.6C14.23,219.52-4.66,176.48,0.97,123.74c4.27-39.92,23.47-72.1,55.62-95.94
	c45.35-33.63,104.49-37.02,153.06-8.7c37.42,21.82,60.04,54.58,67.96,97.28c0.92,5,1.41,10.06,2.11,15.11v17.5
	c-0.16,0.71-0.4,1.4-0.46,2.11c-1.84,24-9.25,46.16-22.69,66.1c-22.29,33.11-53.13,53.51-92.43,60.84
	C158.97,279,153.73,279.5,148.51,280.21"/>
</svg>
