<?xml version="1.0" encoding="utf-8"?>
<!-- Generator: Adobe Illustrator 25.4.1, SVG Export Plug-In . SVG Version: 6.00 Build 0)  -->
<svg version="1.1" id="Capa_1" xmlns="http://www.w3.org/2000/svg" xmlns:xlink="http://www.w3.org/1999/xlink" x="0px" y="0px"
	 viewBox="0 0 253.66 242.39" style="enable-background:new 0 0 253.66 242.39;" xml:space="preserve">
<style type="text/css">
	.st0{fill:#FFFFFF;}
	.st1{fill:#009ADB;}
	.st2{fill:none;stroke:#FFFFFF;stroke-width:3.9376;stroke-linecap:round;stroke-linejoin:round;stroke-miterlimit:10;}
	.st3{fill:#263238;}
	.st4{fill:none;stroke:#263238;stroke-width:3.9376;stroke-linecap:round;stroke-linejoin:round;stroke-miterlimit:10;}
	.st5{fill:#FFFFFF;stroke:#263238;stroke-width:3.9376;stroke-linecap:round;stroke-linejoin:round;stroke-miterlimit:10;}
	.st6{fill:#4A4A4A;}
	.st7{fill:none;stroke:#263238;stroke-width:4.6631;stroke-linecap:round;stroke-linejoin:round;stroke-miterlimit:10;}
	.st8{fill:none;stroke:#263238;stroke-width:3.8872;stroke-linecap:round;stroke-linejoin:round;stroke-miterlimit:10;}
	.st9{fill:none;stroke:#263238;stroke-width:3.8872;stroke-linecap:round;stroke-linejoin:round;}
	.st10{fill:none;stroke:#263238;stroke-width:4.3581;stroke-linecap:round;stroke-linejoin:round;stroke-miterlimit:10;}
	.st11{fill:#009ADB;stroke:#263238;stroke-width:4.3581;stroke-linecap:round;stroke-linejoin:round;stroke-miterlimit:10;}
	.st12{fill:none;stroke:#FFFFFF;stroke-width:3.6692;stroke-linecap:round;stroke-linejoin:round;stroke-miterlimit:10;}
	.st13{clip-path:url(#SVGID_00000179617505518189185460000008924578258297812390_);fill:#FFFFFF;}
	.st14{clip-path:url(#SVGID_00000051348149509293319550000007722372196779378567_);fill:#009CE0;}
	.st15{clip-path:url(#SVGID_00000051348149509293319550000007722372196779378567_);fill:#FFFFFF;}
	.st16{fill:none;stroke:#009CE0;stroke-width:10.4059;stroke-linecap:round;stroke-linejoin:round;stroke-miterlimit:10;}
	.st17{fill:none;stroke:#263238;stroke-width:3.8281;stroke-linecap:round;stroke-linejoin:round;stroke-miterlimit:10;}
</style>
<path class="st0" d="M253.66,242.24c-0.8,0.05-1.28,0.08-1.76,0.08c-23.05,0.02-46.09,0.02-69.13,0.07c-1.05,0-1.73-0.32-2.36-1.16
	c-5.69-7.66-11.42-15.28-17.15-22.91c-6.72-8.94-13.46-17.89-20.17-26.84c-6.16-8.19-12.3-16.41-18.44-24.62
	c-2.7-3.61-5.41-7.2-8.09-10.82c-0.63-0.84-1.07-0.66-1.63,0.09c-4.77,6.4-9.56,12.78-14.34,19.17
	c-7.21,9.64-14.42,19.27-21.63,28.92c-6.79,9.07-13.55,18.15-20.33,27.21c-2.59,3.47-5.2,6.91-7.83,10.35
	c-0.24,0.3-0.72,0.57-1.08,0.57c-9.12,0.02-18.22,0.02-27.34,0.01c-0.16,0-0.32-0.09-0.67-0.18c1.21-1.65,2.34-3.22,3.49-4.76
	c4.72-6.32,9.45-12.63,14.19-18.94c4.54-6.05,9.12-12.09,13.66-18.15c4.52-6.02,9.01-12.06,13.53-18.08
	c4.54-6.07,9.09-12.12,13.63-18.17c4.5-6,8.98-11.99,13.46-17.99c2.29-3.07,4.56-6.17,6.9-9.2c0.6-0.79,0.64-1.31,0.03-2.1
	c-7.3-9.67-14.59-19.37-21.86-29.08c-7.7-10.27-15.39-20.55-23.09-30.83c-6.74-8.99-13.5-17.96-20.24-26.95
	c-5.59-7.45-11.16-14.92-16.75-22.37C13.6,18.78,8.51,12.01,3.42,5.24C2.34,3.79,1.27,2.32,0,0.59c0.73-0.1,1.18-0.22,1.62-0.22
	c23-0.13,46-0.24,69-0.38c0.89,0,1.43,0.31,1.96,1.04c4.59,6.14,9.24,12.23,13.85,18.36c6.12,8.16,12.21,16.35,18.32,24.51
	c6.78,9.02,13.58,18.01,20.35,27.03c3.87,5.13,7.7,10.28,11.56,15.41c0.87,1.15,0.98,1.14,1.8,0.03
	c5.75-7.68,11.51-15.34,17.25-23.02c6.12-8.18,12.2-16.38,18.31-24.55c6.15-8.2,12.33-16.37,18.49-24.56
	c3.21-4.27,6.38-8.57,9.64-12.8c0.4-0.51,1.23-0.96,1.87-0.97c8.61-0.19,17.23-0.31,25.84-0.43c0.51-0.01,1.04,0,1.93,0
	c-0.84,1.2-1.45,2.1-2.1,2.97c-5.11,6.8-10.25,13.59-15.34,20.4c-6.02,8.02-12,16.07-18,24.1c-5.67,7.58-11.36,15.11-17.03,22.68
	c-6.65,8.89-13.27,17.8-19.92,26.7c-2.21,2.97-4.43,5.93-6.69,8.85c-0.57,0.73-0.59,1.21-0.02,1.96
	c6.77,8.97,13.46,17.97,20.22,26.94c10.5,13.98,21.03,27.92,31.52,41.88c8.47,11.27,16.9,22.57,25.36,33.84
	c7.7,10.26,15.44,20.5,23.15,30.75C253.15,241.36,253.31,241.67,253.66,242.24 M40.09,23.87c0.21,0.46,0.29,0.75,0.46,0.98
	c1.97,2.69,3.96,5.37,5.94,8.07c4.88,6.58,9.77,13.17,14.65,19.76c4.79,6.48,9.57,12.98,14.38,19.46
	c5.35,7.23,10.72,14.45,16.09,21.69c4.91,6.63,9.79,13.27,14.69,19.9c5.23,7.05,10.46,14.09,15.69,21.15
	c4.93,6.66,9.83,13.34,14.76,20.01c5.32,7.2,10.63,14.41,15.96,21.61c4.81,6.53,9.65,13.04,14.49,19.55
	c3.69,4.97,7.38,9.95,11.07,14.92c3.37,4.55,6.72,9.1,10.06,13.67c0.52,0.73,1.13,1,2.03,1c8.97-0.02,17.95-0.01,26.91-0.02
	c0.47,0,0.92-0.08,1.51-0.14c-0.19-0.44-0.25-0.71-0.41-0.91c-1.67-2.26-3.35-4.5-5.02-6.75c-4.91-6.57-9.8-13.14-14.69-19.73
	c-4.4-5.93-8.81-11.89-13.21-17.82c-3.83-5.15-7.69-10.28-11.51-15.44c-4.94-6.65-9.86-13.33-14.8-19.98
	c-4.36-5.86-8.74-11.71-13.1-17.58c-4.94-6.65-9.86-13.33-14.79-19.99c-4.72-6.38-9.47-12.74-14.18-19.12
	c-4.87-6.59-9.71-13.21-14.59-19.79C96.67,60.52,90.81,52.72,85,44.88c-4.99-6.73-9.94-13.49-14.97-20.19
	c-0.38-0.5-1.22-0.91-1.85-0.92c-8.89-0.06-17.77-0.03-26.66-0.03C41.09,23.73,40.67,23.81,40.09,23.87"/>
</svg>
