<?xml version="1.0" encoding="utf-8"?>
<!-- Generator: Adobe Illustrator 25.4.1, SVG Export Plug-In . SVG Version: 6.00 Build 0)  -->
<svg version="1.1" id="Capa_1" xmlns="http://www.w3.org/2000/svg" xmlns:xlink="http://www.w3.org/1999/xlink" x="0px" y="0px"
	 viewBox="0 0 253.3 253.42" style="enable-background:new 0 0 253.3 253.42;" xml:space="preserve">
<style type="text/css">
	.st0{fill:#FFFFFF;}
	.st1{fill:#009ADB;}
	.st2{fill:none;stroke:#FFFFFF;stroke-width:3.9376;stroke-linecap:round;stroke-linejoin:round;stroke-miterlimit:10;}
	.st3{fill:#263238;}
	.st4{fill:none;stroke:#263238;stroke-width:3.9376;stroke-linecap:round;stroke-linejoin:round;stroke-miterlimit:10;}
	.st5{fill:#FFFFFF;stroke:#263238;stroke-width:3.9376;stroke-linecap:round;stroke-linejoin:round;stroke-miterlimit:10;}
	.st6{fill:#4A4A4A;}
	.st7{fill:none;stroke:#263238;stroke-width:4.6631;stroke-linecap:round;stroke-linejoin:round;stroke-miterlimit:10;}
	.st8{fill:none;stroke:#263238;stroke-width:3.8872;stroke-linecap:round;stroke-linejoin:round;stroke-miterlimit:10;}
	.st9{fill:none;stroke:#263238;stroke-width:3.8872;stroke-linecap:round;stroke-linejoin:round;}
	.st10{fill:none;stroke:#263238;stroke-width:4.3581;stroke-linecap:round;stroke-linejoin:round;stroke-miterlimit:10;}
	.st11{fill:#009ADB;stroke:#263238;stroke-width:4.3581;stroke-linecap:round;stroke-linejoin:round;stroke-miterlimit:10;}
	.st12{fill:none;stroke:#FFFFFF;stroke-width:3.6692;stroke-linecap:round;stroke-linejoin:round;stroke-miterlimit:10;}
	.st13{clip-path:url(#SVGID_00000087398155644997815380000010351267362715553195_);fill:#FFFFFF;}
	.st14{clip-path:url(#SVGID_00000072996133944670134250000004502791431459126159_);fill:#009CE0;}
	.st15{clip-path:url(#SVGID_00000072996133944670134250000004502791431459126159_);fill:#FFFFFF;}
	.st16{fill:none;stroke:#009CE0;stroke-width:10.4059;stroke-linecap:round;stroke-linejoin:round;stroke-miterlimit:10;}
	.st17{fill:none;stroke:#263238;stroke-width:3.8281;stroke-linecap:round;stroke-linejoin:round;stroke-miterlimit:10;}
</style>
<g>
	<path class="st0" d="M230.24,126.69c0-17.12,0.05-34.24-0.01-51.35c-0.1-29.71-22.4-52.15-52.01-52.23
		c-34.39-0.09-68.76-0.09-103.13,0c-29.63,0.08-51.97,22.53-52.02,52.21c-0.06,34.24-0.06,68.48,0,102.71
		c0.06,29.69,22.38,52.15,52.01,52.24c34.37,0.09,68.75,0.09,103.12,0c29.63-0.09,51.93-22.53,52.04-52.22
		C230.29,160.93,230.24,143.82,230.24,126.69 M126.93,0.06c16.98,0,33.95-0.15,50.94,0.03c36.87,0.41,66.35,24.2,73.87,59.67
		c1.11,5.26,1.44,10.77,1.45,16.18c0.14,33.82,0.15,67.63,0.05,101.46c-0.1,39-26.23,69.35-64.77,75.29
		c-3.87,0.59-7.85,0.6-11.79,0.62c-33.4,0.05-66.82-0.3-100.23,0.11c-37.87,0.47-68.21-26.27-74.85-59.6
		c-1.08-5.41-1.47-11.04-1.49-16.58c-0.14-33.68-0.13-67.37-0.06-101.06C0.13,37.11,26.1,6.74,64.62,0.75
		C69.43,0,74.37,0.1,79.25,0.09C95.14,0.01,111.03,0.06,126.93,0.06"/>
	<path class="st0" d="M80.64,126.75c0.05,25.65,20.58,46.09,46.16,45.93c25.57-0.14,45.7-20.28,45.85-45.84
		c0.14-25.59-20.28-46.1-45.95-46.14C101.06,80.65,80.59,101.12,80.64,126.75 M57.5,126.57c0.07-37.96,31.55-69.24,69.46-69.03
		c37.84,0.22,68.91,31.47,68.83,69.26c-0.07,37.96-31.53,69.23-69.46,69.03C88.52,195.64,57.42,164.35,57.5,126.57"/>
	<path class="st0" d="M204.99,58.78c-0.05,5.8-4.52,10.21-10.34,10.21c-6,0-10.44-4.59-10.3-10.63c0.14-5.78,4.67-10.1,10.52-10.01
		C200.63,48.44,205.04,52.98,204.99,58.78"/>
</g>
</svg>
