<?xml version="1.0" encoding="utf-8"?>
<!-- Generator: Adobe Illustrator 25.4.1, SVG Export Plug-In . SVG Version: 6.00 Build 0)  -->
<svg version="1.1" id="Capa_1" xmlns="http://www.w3.org/2000/svg" xmlns:xlink="http://www.w3.org/1999/xlink" x="0px" y="0px"
	 viewBox="0 0 232.78 265.71" style="enable-background:new 0 0 232.78 265.71;" xml:space="preserve">
<style type="text/css">
	.st0{fill:#FFFFFF;}
	.st1{fill:#009ADB;}
	.st2{fill:none;stroke:#FFFFFF;stroke-width:3.9376;stroke-linecap:round;stroke-linejoin:round;stroke-miterlimit:10;}
	.st3{fill:#263238;}
	.st4{fill:none;stroke:#263238;stroke-width:3.9376;stroke-linecap:round;stroke-linejoin:round;stroke-miterlimit:10;}
	.st5{fill:#FFFFFF;stroke:#263238;stroke-width:3.9376;stroke-linecap:round;stroke-linejoin:round;stroke-miterlimit:10;}
	.st6{fill:#4A4A4A;}
	.st7{fill:none;stroke:#263238;stroke-width:4.6631;stroke-linecap:round;stroke-linejoin:round;stroke-miterlimit:10;}
	.st8{fill:none;stroke:#263238;stroke-width:3.8872;stroke-linecap:round;stroke-linejoin:round;stroke-miterlimit:10;}
	.st9{fill:none;stroke:#263238;stroke-width:3.8872;stroke-linecap:round;stroke-linejoin:round;}
	.st10{fill:none;stroke:#263238;stroke-width:4.3581;stroke-linecap:round;stroke-linejoin:round;stroke-miterlimit:10;}
	.st11{fill:#009ADB;stroke:#263238;stroke-width:4.3581;stroke-linecap:round;stroke-linejoin:round;stroke-miterlimit:10;}
	.st12{fill:none;stroke:#FFFFFF;stroke-width:3.6692;stroke-linecap:round;stroke-linejoin:round;stroke-miterlimit:10;}
	.st13{clip-path:url(#SVGID_00000016057161285157394940000010275005841892524423_);fill:#FFFFFF;}
	.st14{clip-path:url(#SVGID_00000073722822938529430510000007884987861169360550_);fill:#009CE0;}
	.st15{clip-path:url(#SVGID_00000073722822938529430510000007884987861169360550_);fill:#FFFFFF;}
	.st16{fill:none;stroke:#009CE0;stroke-width:10.4059;stroke-linecap:round;stroke-linejoin:round;stroke-miterlimit:10;}
	.st17{fill:none;stroke:#263238;stroke-width:3.8281;stroke-linecap:round;stroke-linejoin:round;stroke-miterlimit:10;}
</style>
<path class="st0" d="M199.86,55.46c-15.01-9.24-26.57-26.57-29.46-43.9c-0.58-4.04-1.15-7.51-1.15-11.56h-45.63v107.45v74.51
	c0,21.37-17.33,38.7-38.7,38.7c-6.94,0-12.71-1.73-18.49-4.62c-12.13-6.35-20.79-19.63-20.79-34.08c0-21.37,17.33-38.7,39.28-38.7
	c4.04,0,7.51,0.57,11.55,1.73v-35.81v-10.4c-4.04-0.57-7.51-1.15-11.55-1.15C38.12,97.62,0,135.17,0,181.96
	c0,28.31,14.44,53.72,36.39,68.74c13.86,9.24,30.61,15.01,48.52,15.01c46.79,0,84.33-37.55,84.33-83.75V87.23
	c17.32,15.6,40.43,23.1,63.54,21.37V74.52V62.96C221.23,65.28,209.68,61.81,199.86,55.46"/>
</svg>
