<?xml version="1.0" encoding="utf-8"?>
<!-- Generator: Adobe Illustrator 25.4.1, SVG Export Plug-In . SVG Version: 6.00 Build 0)  -->
<svg version="1.1" id="Capa_1" xmlns="http://www.w3.org/2000/svg" xmlns:xlink="http://www.w3.org/1999/xlink" x="0px" y="0px"
	 viewBox="0 0 347.48 243.22" style="enable-background:new 0 0 347.48 243.22;" xml:space="preserve">
<style type="text/css">
	.st0{fill:#FFFFFF;}
	.st1{fill:#009ADB;}
	.st2{fill:none;stroke:#FFFFFF;stroke-width:3.9376;stroke-linecap:round;stroke-linejoin:round;stroke-miterlimit:10;}
	.st3{fill:#263238;}
	.st4{fill:none;stroke:#263238;stroke-width:3.9376;stroke-linecap:round;stroke-linejoin:round;stroke-miterlimit:10;}
	.st5{fill:#FFFFFF;stroke:#263238;stroke-width:3.9376;stroke-linecap:round;stroke-linejoin:round;stroke-miterlimit:10;}
	.st6{fill:#4A4A4A;}
	.st7{fill:none;stroke:#263238;stroke-width:4.6631;stroke-linecap:round;stroke-linejoin:round;stroke-miterlimit:10;}
	.st8{fill:none;stroke:#263238;stroke-width:3.8872;stroke-linecap:round;stroke-linejoin:round;stroke-miterlimit:10;}
	.st9{fill:none;stroke:#263238;stroke-width:3.8872;stroke-linecap:round;stroke-linejoin:round;}
	.st10{fill:none;stroke:#263238;stroke-width:4.3581;stroke-linecap:round;stroke-linejoin:round;stroke-miterlimit:10;}
	.st11{fill:#009ADB;stroke:#263238;stroke-width:4.3581;stroke-linecap:round;stroke-linejoin:round;stroke-miterlimit:10;}
	.st12{fill:none;stroke:#FFFFFF;stroke-width:3.6692;stroke-linecap:round;stroke-linejoin:round;stroke-miterlimit:10;}
	.st13{clip-path:url(#SVGID_00000110457355244766983640000008332172377644919979_);fill:#FFFFFF;}
	.st14{clip-path:url(#SVGID_00000016767784524588054750000010766549620757793172_);fill:#009CE0;}
	.st15{clip-path:url(#SVGID_00000016767784524588054750000010766549620757793172_);fill:#FFFFFF;}
	.st16{fill:none;stroke:#009CE0;stroke-width:10.4059;stroke-linecap:round;stroke-linejoin:round;stroke-miterlimit:10;}
	.st17{fill:none;stroke:#263238;stroke-width:3.8281;stroke-linecap:round;stroke-linejoin:round;stroke-miterlimit:10;}
</style>
<path class="st0" d="M139,173.72V69.5l90.25,52.1L139,173.72z M340.21,37.98c-4-14.96-15.76-26.71-30.71-30.71
	C282.4,0,173.74,0,173.74,0S65.1,0,37.98,7.27c-14.93,4-26.72,15.76-30.72,30.71C0,65.06,0,121.61,0,121.61s0,56.55,7.26,83.64
	c4,14.96,15.79,26.71,30.72,30.71c27.12,7.27,135.76,7.27,135.76,7.27s108.66,0,135.75-7.27c14.96-4,26.71-15.76,30.71-30.71
	c7.27-27.08,7.27-83.64,7.27-83.64S347.48,65.06,340.21,37.98"/>
</svg>
