<?xml version="1.0" encoding="utf-8"?>
<!-- Generator: Adobe Illustrator 25.4.1, SVG Export Plug-In . SVG Version: 6.00 Build 0)  -->
<svg version="1.1" id="Capa_1" xmlns="http://www.w3.org/2000/svg" xmlns:xlink="http://www.w3.org/1999/xlink" x="0px" y="0px"
	 viewBox="0 0 282.37 280.21" style="enable-background:new 0 0 282.37 280.21;" xml:space="preserve">
<style type="text/css">
	.st0{fill:#FFFFFF;}
	.st1{fill:#009ADB;}
	.st2{fill:none;stroke:#FFFFFF;stroke-width:3.9376;stroke-linecap:round;stroke-linejoin:round;stroke-miterlimit:10;}
	.st3{fill:#263238;}
	.st4{fill:none;stroke:#263238;stroke-width:3.9376;stroke-linecap:round;stroke-linejoin:round;stroke-miterlimit:10;}
	.st5{fill:#FFFFFF;stroke:#263238;stroke-width:3.9376;stroke-linecap:round;stroke-linejoin:round;stroke-miterlimit:10;}
	.st6{fill:#4A4A4A;}
	.st7{fill:none;stroke:#263238;stroke-width:4.6631;stroke-linecap:round;stroke-linejoin:round;stroke-miterlimit:10;}
	.st8{fill:none;stroke:#263238;stroke-width:3.8872;stroke-linecap:round;stroke-linejoin:round;stroke-miterlimit:10;}
	.st9{fill:none;stroke:#263238;stroke-width:3.8872;stroke-linecap:round;stroke-linejoin:round;}
	.st10{fill:none;stroke:#263238;stroke-width:4.3581;stroke-linecap:round;stroke-linejoin:round;stroke-miterlimit:10;}
	.st11{fill:#009ADB;stroke:#263238;stroke-width:4.3581;stroke-linecap:round;stroke-linejoin:round;stroke-miterlimit:10;}
	.st12{fill:none;stroke:#FFFFFF;stroke-width:3.6692;stroke-linecap:round;stroke-linejoin:round;stroke-miterlimit:10;}
	.st13{clip-path:url(#SVGID_00000164491480272178109480000014790486423727853247_);fill:#FFFFFF;}
	.st14{clip-path:url(#SVGID_00000136378458019432415670000015406871877889179527_);fill:#009CE0;}
	.st15{clip-path:url(#SVGID_00000136378458019432415670000015406871877889179527_);fill:#FFFFFF;}
	.st16{fill:none;stroke:#009CE0;stroke-width:10.4059;stroke-linecap:round;stroke-linejoin:round;stroke-miterlimit:10;}
	.st17{fill:none;stroke:#263238;stroke-width:3.8281;stroke-linecap:round;stroke-linejoin:round;stroke-miterlimit:10;}
</style>
<path class="st0" d="M159.45,280.21V170.6h33.21c1.69-13.36,3.29-25.95,5.03-39.74h-38.5c0-11.13-0.49-21.22,0.17-31.24
	c0.48-7.48,5.54-11.8,13.1-12.1c8.32-0.35,16.66-0.09,25.7-0.09V50.82c-16.75-0.34-33.67-3.51-50.26,2.27
	c-17.55,6.12-29.12,22.26-29.86,41.74c-0.43,11.56-0.07,23.16-0.07,35.53H84.39v40.26h32.7v107.82
	C68.99,281.82,6.82,216.02,0.83,158.63C-7.75,76.38,51.17,5.31,132.59,0.28C209.85-4.5,272.88,51.76,281.3,123.44
	C291.79,212.77,223.08,274.58,159.45,280.21"/>
</svg>
