<?xml version="1.0" encoding="utf-8"?>
<!-- Generator: Adobe Illustrator 25.4.1, SVG Export Plug-In . SVG Version: 6.00 Build 0)  -->
<svg version="1.1" id="Capa_1" xmlns="http://www.w3.org/2000/svg" xmlns:xlink="http://www.w3.org/1999/xlink" x="0px" y="0px"
	 viewBox="0 0 786.8 253.53" style="enable-background:new 0 0 786.8 253.53;" xml:space="preserve">
<style type="text/css">
	.st0{fill:#FFFFFF;}
	.st1{fill:#009ADB;}
	.st2{fill:none;stroke:#FFFFFF;stroke-width:3.9376;stroke-linecap:round;stroke-linejoin:round;stroke-miterlimit:10;}
	.st3{fill:#263238;}
	.st4{fill:none;stroke:#263238;stroke-width:3.9376;stroke-linecap:round;stroke-linejoin:round;stroke-miterlimit:10;}
	.st5{fill:#FFFFFF;stroke:#263238;stroke-width:3.9376;stroke-linecap:round;stroke-linejoin:round;stroke-miterlimit:10;}
	.st6{fill:#4A4A4A;}
	.st7{fill:none;stroke:#263238;stroke-width:4.6631;stroke-linecap:round;stroke-linejoin:round;stroke-miterlimit:10;}
	.st8{fill:none;stroke:#263238;stroke-width:3.8872;stroke-linecap:round;stroke-linejoin:round;stroke-miterlimit:10;}
	.st9{fill:none;stroke:#263238;stroke-width:3.8872;stroke-linecap:round;stroke-linejoin:round;}
	.st10{fill:none;stroke:#263238;stroke-width:4.3581;stroke-linecap:round;stroke-linejoin:round;stroke-miterlimit:10;}
	.st11{fill:#009ADB;stroke:#263238;stroke-width:4.3581;stroke-linecap:round;stroke-linejoin:round;stroke-miterlimit:10;}
	.st12{fill:none;stroke:#FFFFFF;stroke-width:3.6692;stroke-linecap:round;stroke-linejoin:round;stroke-miterlimit:10;}
	.st13{clip-path:url(#SVGID_00000168798515972722642050000010615796957517339567_);fill:#FFFFFF;}
	.st14{clip-path:url(#SVGID_00000046337260639123454350000001228766081866452909_);fill:#009CE0;}
	.st15{clip-path:url(#SVGID_00000046337260639123454350000001228766081866452909_);fill:#FFFFFF;}
	.st16{fill:none;stroke:#009CE0;stroke-width:10.4059;stroke-linecap:round;stroke-linejoin:round;stroke-miterlimit:10;}
	.st17{fill:none;stroke:#263238;stroke-width:3.8281;stroke-linecap:round;stroke-linejoin:round;stroke-miterlimit:10;}
</style>
<g>
	<path class="st7" d="M26.58,102.96c-0.65,1.07-1.31,2.19-1.91,3.31c-0.84,1.4-1.63,2.84-2.42,4.29c1.63,0.19,3.17,0.65,4.57,1.35
		c0.75-1.35,1.54-2.75,2.33-4.06c0.47-0.84,0.93-1.68,1.45-2.47L26.58,102.96z M374.68,92c-0.65-1.03-1.35-2.01-2.05-2.98
		l-3.78,2.75c0.61,0.89,1.26,1.77,1.87,2.66c0.89,1.26,1.77,2.56,2.61,3.87c1.26-0.89,2.61-1.73,4.01-2.38
		C376.45,94.57,375.56,93.26,374.68,92z M42.76,79.79c-2.94,3.64-5.78,7.46-8.49,11.33l3.82,2.66c2.66-3.78,5.41-7.51,8.3-11.1
		L42.76,79.79z M354.63,67.19l-3.36,3.22c3.17,3.36,6.25,6.85,9.14,10.35l3.59-2.94C361.01,74.19,357.89,70.65,354.63,67.19z
		 M61.93,58.99c-3.45,3.26-6.76,6.62-9.93,10.07l3.4,3.17c3.12-3.36,6.39-6.67,9.75-9.84L61.93,58.99z M333.88,48.03l-2.94,3.64
		c3.59,2.89,7.13,5.92,10.49,9.05l3.17-3.45C341.15,54.09,337.56,50.97,333.88,48.03z M83.7,40.99c-3.82,2.75-7.6,5.64-11.19,8.63
		l2.98,3.59c3.5-2.89,7.18-5.74,10.96-8.44L83.7,40.99z M310.7,31.85l-2.38,3.96c3.92,2.38,7.79,4.9,11.56,7.55l2.7-3.82
		C318.72,36.84,314.71,34.23,310.7,31.85z M107.76,26.11c-4.15,2.19-8.25,4.57-12.26,7.04l2.42,3.96c3.96-2.42,7.97-4.76,12.03-6.85
		L107.76,26.11z M285.57,18.93l-1.87,4.29c4.24,1.82,8.49,3.82,12.54,5.88l2.1-4.15C294.19,22.85,289.9,20.8,285.57,18.93z
		 M133.64,14.69c-4.48,1.59-8.91,3.36-13.15,5.27l1.91,4.24c4.15-1.82,8.44-3.54,12.82-5.13L133.64,14.69z M258.85,9.65l-1.21,4.48
		c4.43,1.21,8.86,2.61,13.2,4.1l1.54-4.38C267.94,12.31,263.42,10.87,258.85,9.65z M160.83,6.9c-4.62,0.98-9.23,2.15-13.76,3.4
		l1.31,4.48c4.38-1.26,8.91-2.38,13.43-3.31L160.83,6.9z M231.15,4.06l-0.61,4.66c4.57,0.56,9.19,1.35,13.62,2.24l0.93-4.57
		C240.52,5.46,235.81,4.71,231.15,4.06z M188.81,2.89c-4.71,0.37-9.47,0.89-14.08,1.54l0.65,4.62c4.52-0.65,9.14-1.17,13.76-1.49
		L188.81,2.89z M204.2,2.33h-1.31l0.09,4.66h1.21c4.15,0.05,8.39,0.14,12.59,0.37l0.28-4.62C212.78,2.47,208.53,2.42,204.2,2.33z"/>
	<path class="st7" d="M763.58,137.56c-0.7,1.45-1.4,2.84-2.19,4.24c-35.81,66.96-105.9,109.4-182.56,109.4
		c-70.51,0-135.37-35.86-173.19-93.63c-0.89-1.31-1.77-2.66-2.56-4.01c1.45-0.56,2.84-1.26,4.2-2.05c0.79,1.31,1.63,2.61,2.52,3.92
		c37.02,56.24,100.3,91.12,169.04,91.12c74.8,0,143.11-41.31,178.22-106.5c0.75-1.35,1.45-2.75,2.1-4.15
		C760.5,136.67,761.99,137.23,763.58,137.56z"/>
	<g>
		<path class="st7" d="M391.51,87.85c-6.06,0-11.8,1.49-16.83,4.15c-1.4,0.7-2.7,1.54-3.96,2.42c-9.37,6.58-15.48,17.44-15.48,29.7
			c0,20,16.27,36.28,36.28,36.28c4.99,0,9.79-1.03,14.13-2.84c1.45-0.65,2.84-1.35,4.15-2.14c10.77-6.3,18-17.95,18-31.29
			C427.79,104.13,411.52,87.85,391.51,87.85z M407.27,151.5c-1.35,0.79-2.75,1.49-4.2,2.05c-3.59,1.4-7.46,2.19-11.56,2.19
			c-17.44,0-31.62-14.18-31.62-31.62c0-10.68,5.32-20.1,13.43-25.83c1.26-0.89,2.61-1.73,4.01-2.38c4.24-2.19,9.09-3.4,14.18-3.4
			c17.44,0,31.62,14.18,31.62,31.62C423.13,135.84,416.74,146.05,407.27,151.5z"/>
	</g>
	<g>
		<path class="st7" d="M29.14,107.86c-1.4-0.7-2.89-1.26-4.48-1.59c-1.26-0.33-2.61-0.47-3.96-0.47c-10.12,0-18.37,8.21-18.37,18.33
			s8.25,18.33,18.37,18.33c10.07,0,18.33-8.21,18.33-18.33C39.03,117.04,35.02,110.93,29.14,107.86z M20.7,137.79
			c-7.55,0-13.71-6.16-13.71-13.66c0-7.55,6.16-13.66,13.71-13.66c0.51,0,1.03,0.05,1.54,0.09c1.63,0.19,3.17,0.65,4.57,1.35
			c4.48,2.24,7.55,6.85,7.55,12.22C34.37,131.64,28.21,137.79,20.7,137.79z"/>
	</g>
	<g>
		<path class="st7" d="M766.14,105.81c-10.12,0-18.33,8.21-18.33,18.33c0,6.81,3.73,12.73,9.23,15.9c1.35,0.79,2.8,1.4,4.34,1.77
			c1.54,0.42,3.12,0.65,4.76,0.65c10.12,0,18.33-8.21,18.33-18.33S776.26,105.81,766.14,105.81z M766.14,137.79
			c-0.89,0-1.73-0.09-2.56-0.23c-1.59-0.33-3.08-0.89-4.43-1.68c-4.01-2.42-6.67-6.81-6.67-11.75c0-7.55,6.11-13.66,13.66-13.66
			s13.66,6.11,13.66,13.66C779.8,131.64,773.7,137.79,766.14,137.79z"/>
	</g>
	<circle class="st7" cx="391.5" cy="124.12" r="16"/>
</g>
</svg>
