<?xml version="1.0" encoding="utf-8"?>
<!-- Generator: Adobe Illustrator 25.4.1, SVG Export Plug-In . SVG Version: 6.00 Build 0)  -->
<svg version="1.1" id="Capa_1" xmlns="http://www.w3.org/2000/svg" xmlns:xlink="http://www.w3.org/1999/xlink" x="0px" y="0px"
	 viewBox="0 0 1240.62 239.7" style="enable-background:new 0 0 1240.62 239.7;" xml:space="preserve">
<style type="text/css">
	.st0{fill:#FFFFFF;}
	.st1{fill:#009ADB;}
	.st2{fill:none;stroke:#FFFFFF;stroke-width:3.9376;stroke-linecap:round;stroke-linejoin:round;stroke-miterlimit:10;}
	.st3{fill:#263238;}
	.st4{fill:none;stroke:#263238;stroke-width:3.9376;stroke-linecap:round;stroke-linejoin:round;stroke-miterlimit:10;}
	.st5{fill:#FFFFFF;stroke:#263238;stroke-width:3.9376;stroke-linecap:round;stroke-linejoin:round;stroke-miterlimit:10;}
	.st6{fill:#4A4A4A;}
	.st7{fill:none;stroke:#263238;stroke-width:4.6631;stroke-linecap:round;stroke-linejoin:round;stroke-miterlimit:10;}
	.st8{fill:none;stroke:#263238;stroke-width:3.8872;stroke-linecap:round;stroke-linejoin:round;stroke-miterlimit:10;}
	.st9{fill:none;stroke:#263238;stroke-width:3.8872;stroke-linecap:round;stroke-linejoin:round;}
	.st10{fill:none;stroke:#263238;stroke-width:4.3581;stroke-linecap:round;stroke-linejoin:round;stroke-miterlimit:10;}
	.st11{fill:#009ADB;stroke:#263238;stroke-width:4.3581;stroke-linecap:round;stroke-linejoin:round;stroke-miterlimit:10;}
	.st12{fill:none;stroke:#FFFFFF;stroke-width:3.6692;stroke-linecap:round;stroke-linejoin:round;stroke-miterlimit:10;}
	.st13{clip-path:url(#SVGID_00000166666008375389531800000006111102331205026239_);fill:#FFFFFF;}
	.st14{clip-path:url(#SVGID_00000176741199598410921740000003986281007619520675_);fill:#009CE0;}
	.st15{clip-path:url(#SVGID_00000176741199598410921740000003986281007619520675_);fill:#FFFFFF;}
	.st16{fill:none;stroke:#009CE0;stroke-width:10.4059;stroke-linecap:round;stroke-linejoin:round;stroke-miterlimit:10;}
	.st17{fill:none;stroke:#263238;stroke-width:3.8281;stroke-linecap:round;stroke-linejoin:round;stroke-miterlimit:10;}
</style>
<g>
	<g>
		<line class="st2" x1="190.1" y1="1.97" x2="190.1" y2="12.8"/>
		<line class="st2" x1="212.74" y1="1.97" x2="212.74" y2="12.8"/>
		<line class="st2" x1="235.38" y1="1.97" x2="235.38" y2="12.8"/>
		<line class="st2" x1="258.03" y1="1.97" x2="258.03" y2="12.8"/>
		<line class="st2" x1="280.67" y1="1.97" x2="280.67" y2="12.8"/>
		<line class="st2" x1="303.31" y1="1.97" x2="303.31" y2="12.8"/>
		<line class="st2" x1="325.95" y1="1.97" x2="325.95" y2="12.8"/>
		<line class="st2" x1="348.59" y1="1.97" x2="348.59" y2="12.8"/>
		<line class="st2" x1="371.23" y1="1.97" x2="371.23" y2="12.8"/>
		<line class="st2" x1="393.87" y1="1.97" x2="393.87" y2="12.8"/>
		<line class="st2" x1="416.51" y1="1.97" x2="416.51" y2="12.8"/>
		<line class="st2" x1="439.16" y1="1.97" x2="439.16" y2="12.8"/>
		<line class="st2" x1="461.8" y1="1.97" x2="461.8" y2="12.8"/>
		<line class="st2" x1="484.44" y1="1.97" x2="484.44" y2="12.8"/>
		<line class="st2" x1="507.08" y1="1.97" x2="507.08" y2="12.8"/>
		<line class="st2" x1="529.72" y1="1.97" x2="529.72" y2="12.8"/>
		<line class="st2" x1="552.36" y1="1.97" x2="552.36" y2="12.8"/>
		<line class="st2" x1="575" y1="1.97" x2="575" y2="12.8"/>
		<line class="st2" x1="597.64" y1="1.97" x2="597.64" y2="12.8"/>
		<line class="st2" x1="620.29" y1="1.97" x2="620.29" y2="12.8"/>
		<line class="st2" x1="642.93" y1="1.97" x2="642.93" y2="12.8"/>
		<line class="st2" x1="665.57" y1="1.97" x2="665.57" y2="12.8"/>
		<line class="st2" x1="688.21" y1="1.97" x2="688.21" y2="12.8"/>
		<line class="st2" x1="710.85" y1="1.97" x2="710.85" y2="12.8"/>
		<line class="st2" x1="733.49" y1="1.97" x2="733.49" y2="12.8"/>
		<line class="st2" x1="756.13" y1="1.97" x2="756.13" y2="12.8"/>
		<line class="st2" x1="780.26" y1="1.97" x2="780.26" y2="12.8"/>
		<line class="st2" x1="804.38" y1="1.97" x2="804.38" y2="12.8"/>
		<line class="st2" x1="828.51" y1="1.97" x2="828.51" y2="12.8"/>
		<line class="st2" x1="852.64" y1="1.97" x2="852.64" y2="12.8"/>
		<line class="st2" x1="876.76" y1="1.97" x2="876.76" y2="12.8"/>
		<line class="st2" x1="900.89" y1="1.97" x2="900.89" y2="12.8"/>
		<line class="st2" x1="925.01" y1="1.97" x2="925.01" y2="12.8"/>
		<line class="st2" x1="949.14" y1="1.97" x2="949.14" y2="12.8"/>
		<line class="st2" x1="973.27" y1="1.97" x2="973.27" y2="12.8"/>
		<line class="st2" x1="997.39" y1="1.97" x2="997.39" y2="12.8"/>
		<line class="st2" x1="1021.52" y1="1.97" x2="1021.52" y2="12.8"/>
		<line class="st2" x1="1045.64" y1="1.97" x2="1045.64" y2="12.8"/>
		<line class="st2" x1="1069.77" y1="1.97" x2="1069.77" y2="12.8"/>
		<line class="st2" x1="1093.9" y1="1.97" x2="1093.9" y2="12.8"/>
		<line class="st2" x1="1118.02" y1="1.97" x2="1118.02" y2="12.8"/>
		<line class="st2" x1="1142.15" y1="1.97" x2="1142.15" y2="12.8"/>
		<line class="st2" x1="1166.27" y1="1.97" x2="1166.27" y2="12.8"/>
		<line class="st2" x1="1190.4" y1="1.97" x2="1190.4" y2="12.8"/>
		<line class="st2" x1="1238.65" y1="1.97" x2="1238.65" y2="12.8"/>
		<line class="st2" x1="999.96" y1="1.97" x2="999.96" y2="12.8"/>
		<line class="st2" x1="1024.09" y1="1.97" x2="1024.09" y2="12.8"/>
		<line class="st2" x1="1048.21" y1="1.97" x2="1048.21" y2="12.8"/>
		<line class="st2" x1="1072.34" y1="1.97" x2="1072.34" y2="12.8"/>
		<line class="st2" x1="1096.46" y1="1.97" x2="1096.46" y2="12.8"/>
		<line class="st2" x1="1120.59" y1="1.97" x2="1120.59" y2="12.8"/>
		<line class="st2" x1="1144.72" y1="1.97" x2="1144.72" y2="12.8"/>
		<line class="st2" x1="1168.84" y1="1.97" x2="1168.84" y2="12.8"/>
		<line class="st2" x1="1192.97" y1="1.97" x2="1192.97" y2="12.8"/>
	</g>
	<rect x="166.89" y="20.64" class="st1" width="1048.24" height="21.91"/>
	<rect x="318.76" y="65.62" class="st3" width="633.64" height="21.91"/>
	<rect x="1011.3" y="65.62" class="st3" width="44.65" height="21.91"/>
	<rect x="166.89" y="111.18" class="st1" width="305.6" height="21.91"/>
	<rect x="830.58" y="111.18" class="st1" width="305.6" height="21.91"/>
	<rect x="2.08" y="20.64" class="st4" width="1212.78" height="217.1"/>
	<rect x="2.08" y="20.64" class="st4" width="164.81" height="217.1"/>
	<line class="st4" x1="1.97" y1="42.55" x2="1215.13" y2="42.55"/>
	<line class="st4" x1="1.97" y1="65.62" x2="1215.13" y2="65.62"/>
	<line class="st4" x1="1.97" y1="88.68" x2="1215.13" y2="88.68"/>
	<line class="st4" x1="1.97" y1="111.75" x2="1215.13" y2="111.75"/>
	<line class="st4" x1="1.97" y1="134.81" x2="1215.13" y2="134.81"/>
	<polygon class="st5" points="270.69,19.48 264.73,23.92 259.16,19.48 259.16,2.18 270.69,2.18 	"/>
	<polygon class="st5" points="671.97,19.48 666.01,23.92 660.44,19.48 660.44,2.18 671.97,2.18 	"/>
	<polygon class="st5" points="1073.26,19.48 1067.3,23.92 1061.73,19.48 1061.73,2.18 1073.26,2.18 	"/>
	<line class="st4" x1="264.73" y1="23.92" x2="264.73" y2="136.34"/>
	<rect x="113.32" y="26.09" class="st6" width="43.31" height="9.84"/>
	<rect x="113.32" y="48.73" class="st6" width="43.31" height="9.84"/>
	<rect x="113.32" y="71.37" class="st6" width="43.31" height="9.84"/>
	<rect x="113.32" y="94.01" class="st6" width="43.31" height="9.84"/>
	<rect x="113.32" y="116.65" class="st6" width="43.31" height="9.84"/>
	<rect x="78.86" y="26.09" class="st6" width="26.58" height="9.84"/>
	<rect x="78.86" y="48.73" class="st6" width="26.58" height="9.84"/>
	<rect x="78.86" y="71.37" class="st6" width="26.58" height="9.84"/>
	<rect x="78.86" y="94.01" class="st6" width="26.58" height="9.84"/>
	<rect x="78.86" y="116.65" class="st6" width="26.58" height="9.84"/>
</g>
</svg>
