<?xml version="1.0" encoding="utf-8"?>
<!-- Generator: Adobe Illustrator 25.4.1, SVG Export Plug-In . SVG Version: 6.00 Build 0)  -->
<svg version="1.1" id="Capa_1" xmlns="http://www.w3.org/2000/svg" xmlns:xlink="http://www.w3.org/1999/xlink" x="0px" y="0px"
	 viewBox="0 0 417.58 644.9" style="enable-background:new 0 0 417.58 644.9;" xml:space="preserve">
<style type="text/css">
	.st0{fill:#FFFFFF;}
	.st1{fill:#009ADB;}
	.st2{fill:none;stroke:#FFFFFF;stroke-width:3.9376;stroke-linecap:round;stroke-linejoin:round;stroke-miterlimit:10;}
	.st3{fill:#263238;}
	.st4{fill:none;stroke:#263238;stroke-width:3.9376;stroke-linecap:round;stroke-linejoin:round;stroke-miterlimit:10;}
	.st5{fill:#FFFFFF;stroke:#263238;stroke-width:3.9376;stroke-linecap:round;stroke-linejoin:round;stroke-miterlimit:10;}
	.st6{fill:#4A4A4A;}
	.st7{fill:none;stroke:#263238;stroke-width:4.6631;stroke-linecap:round;stroke-linejoin:round;stroke-miterlimit:10;}
	.st8{fill:none;stroke:#263238;stroke-width:3.8872;stroke-linecap:round;stroke-linejoin:round;stroke-miterlimit:10;}
	.st9{fill:none;stroke:#263238;stroke-width:3.8872;stroke-linecap:round;stroke-linejoin:round;}
	.st10{fill:none;stroke:#263238;stroke-width:4.3581;stroke-linecap:round;stroke-linejoin:round;stroke-miterlimit:10;}
	.st11{fill:#009ADB;stroke:#263238;stroke-width:4.3581;stroke-linecap:round;stroke-linejoin:round;stroke-miterlimit:10;}
	.st12{fill:none;stroke:#FFFFFF;stroke-width:3.6692;stroke-linecap:round;stroke-linejoin:round;stroke-miterlimit:10;}
	.st13{clip-path:url(#SVGID_00000057839083594984100590000000553387040604885130_);fill:#FFFFFF;}
	.st14{clip-path:url(#SVGID_00000112599658962223558340000015156883365141930126_);fill:#009CE0;}
	.st15{clip-path:url(#SVGID_00000112599658962223558340000015156883365141930126_);fill:#FFFFFF;}
	.st16{fill:none;stroke:#009CE0;stroke-width:10.4059;stroke-linecap:round;stroke-linejoin:round;stroke-miterlimit:10;}
	.st17{fill:none;stroke:#263238;stroke-width:3.8281;stroke-linecap:round;stroke-linejoin:round;stroke-miterlimit:10;}
</style>
<g>
	<g>
		<g>
			<path class="st10" d="M275.77,309.7H113.75c-8.35,0-15.12-6.77-15.12-15.12V147.68c0-8.35,6.77-15.12,15.12-15.12h162.01
				c8.35,0,15.12,6.77,15.12,15.12v146.89C290.89,302.93,284.12,309.7,275.77,309.7z"/>
			<circle class="st11" cx="253.09" cy="224.37" r="20.52"/>
		</g>
		<g>
			<line class="st10" x1="350.79" y1="383.99" x2="69.96" y2="383.99"/>
			<line class="st10" x1="350.79" y1="448.8" x2="69.96" y2="448.8"/>
			<line class="st10" x1="350.79" y1="513.6" x2="69.96" y2="513.6"/>
			<line class="st10" x1="350.79" y1="578.41" x2="69.96" y2="578.41"/>
			<circle class="st11" cx="253.58" cy="383.99" r="20.52"/>
			<path class="st11" d="M174.73,509.28c0,11.33-9.19,20.52-20.52,20.52c-11.33,0-20.52-9.19-20.52-20.52
				c0-11.33,9.19-20.52,20.52-20.52C165.55,488.76,174.73,497.95,174.73,509.28z"/>
			<circle class="st11" cx="292.46" cy="576.25" r="20.52"/>
			<circle class="st11" cx="253.58" cy="446.64" r="20.52"/>
		</g>
	</g>
	<g>
		<g>
			<rect x="2.18" y="2.18" class="st10" width="413.22" height="640.54"/>
			<path class="st10" d="M415.4,84.71H2.18V2.18h411.48c0.96,0,1.74,0.78,1.74,1.74V84.71z"/>
		</g>
		<g>
			<path class="st10" d="M62.73,43.44c0,8.12-6.58,14.7-14.7,14.7c-8.12,0-14.7-6.58-14.7-14.7c0-8.12,6.58-14.7,14.7-14.7
				C56.15,28.74,62.73,35.32,62.73,43.44z"/>
			<path class="st10" d="M109.2,43.44c0,8.12-6.58,14.7-14.7,14.7c-8.12,0-14.7-6.58-14.7-14.7c0-8.12,6.58-14.7,14.7-14.7
				C102.61,28.74,109.2,35.32,109.2,43.44z"/>
			<path class="st10" d="M155.66,43.44c0,8.12-6.58,14.7-14.7,14.7s-14.7-6.58-14.7-14.7c0-8.12,6.58-14.7,14.7-14.7
				S155.66,35.32,155.66,43.44z"/>
		</g>
	</g>
</g>
</svg>
