<?xml version="1.0" encoding="utf-8"?>
<!-- Generator: Adobe Illustrator 25.4.1, SVG Export Plug-In . SVG Version: 6.00 Build 0)  -->
<svg version="1.1" id="Capa_1" xmlns="http://www.w3.org/2000/svg" xmlns:xlink="http://www.w3.org/1999/xlink" x="0px" y="0px"
	 viewBox="0 0 512.12 283.01" style="enable-background:new 0 0 512.12 283.01;" xml:space="preserve">
<style type="text/css">
	.st0{fill:#FFFFFF;}
	.st1{fill:none;stroke:#FFFFFF;stroke-width:3.2098;stroke-linecap:round;stroke-linejoin:round;stroke-miterlimit:10;}
	.st2{opacity:0.15;}
	.st3{fill:url(#SVGID_1_);}
	.st4{fill:none;stroke:#FFFFFF;stroke-width:3.5269;stroke-linecap:round;stroke-linejoin:round;stroke-miterlimit:10;}
	.st5{fill:#3C4147;}
	.st6{opacity:0.85;}
	.st7{fill:#52A9F7;}
	.st8{opacity:0.3;}
	.st9{fill:#0E1012;}
	.st10{fill:#7B8190;}
	.st11{fill:#6CDBBB;}
	.st12{fill:#EAEAEA;}
	.st13{fill:#292B30;}
	.st14{fill:none;stroke:#EAEAEA;stroke-width:1.57;stroke-miterlimit:10;}
	.st15{fill:none;stroke:#FFFFFF;stroke-width:2.0656;stroke-linecap:round;stroke-linejoin:round;stroke-miterlimit:10;}
	.st16{fill:none;stroke:#FFFFFF;stroke-width:2.0656;stroke-linecap:round;stroke-linejoin:round;}
</style>
<g>
	<path class="st15" d="M21.29,6.55v195.88c0,0-4.12,72.81,90.67,72.81c101.66,0,395.66,0,395.66,0"/>
	<rect x="16.8" class="st0" width="8.98" height="8.98"/>
	<rect x="16.8" y="198.86" class="st0" width="8.98" height="8.98"/>
	<rect x="105.66" y="270.75" class="st0" width="8.98" height="8.98"/>
	<rect x="503.14" y="270.75" class="st0" width="8.98" height="8.98"/>
	<g>
		<g>
			<line class="st16" x1="126.62" y1="275.24" x2="7.38" y2="275.24"/>
			<g>
				<path class="st0" d="M7.77,267.48c-4.29,0-7.77,3.48-7.77,7.77c0,4.29,3.48,7.77,7.77,7.77c4.29,0,7.77-3.48,7.77-7.77
					C15.53,270.95,12.05,267.48,7.77,267.48z"/>
			</g>
		</g>
	</g>
</g>
</svg>
