<?xml version="1.0" encoding="utf-8"?>
<!-- Generator: Adobe Illustrator 25.4.1, SVG Export Plug-In . SVG Version: 6.00 Build 0)  -->
<svg version="1.1" id="Capa_1" xmlns="http://www.w3.org/2000/svg" xmlns:xlink="http://www.w3.org/1999/xlink" x="0px" y="0px"
	 viewBox="0 0 618.93 844.79" style="enable-background:new 0 0 618.93 844.79;" xml:space="preserve">
<style type="text/css">
	.st0{fill:#FFFFFF;}
	.st1{fill:none;stroke:#FFFFFF;stroke-width:3.2098;stroke-linecap:round;stroke-linejoin:round;stroke-miterlimit:10;}
	.st2{opacity:0.15;}
	.st3{fill:url(#SVGID_1_);}
	.st4{fill:none;stroke:#FFFFFF;stroke-width:3.5269;stroke-linecap:round;stroke-linejoin:round;stroke-miterlimit:10;}
	.st5{fill:#3C4147;}
	.st6{opacity:0.85;}
	.st7{fill:#52A9F7;}
	.st8{opacity:0.3;}
	.st9{fill:#0E1012;}
	.st10{fill:#7B8190;}
	.st11{fill:#6CDBBB;}
	.st12{fill:#EAEAEA;}
	.st13{fill:#292B30;}
	.st14{fill:none;stroke:#EAEAEA;stroke-width:1.57;stroke-miterlimit:10;}
	.st15{fill:none;stroke:#FFFFFF;stroke-width:2.0656;stroke-linecap:round;stroke-linejoin:round;stroke-miterlimit:10;}
	.st16{fill:none;stroke:#FFFFFF;stroke-width:2.0656;stroke-linecap:round;stroke-linejoin:round;}
</style>
<g>
	<g>
		<g>
			<rect x="610.71" y="420.64" class="st0" width="1.42" height="2.12"/>
			<path class="st0" d="M610.71,416.4v-4.24h1.42v4.24H610.71z M610.71,407.91v-4.24h1.42v4.24H610.71z M610.71,399.43v-4.24h1.42
				v4.24H610.71z M610.71,390.95v-4.24h1.42v4.24H610.71z M610.71,382.47v-4.24h1.42v4.24H610.71z M610.71,373.98v-4.24h1.42v4.24
				H610.71z M610.71,365.5v-4.24h1.42v4.24H610.71z M610.71,357.02v-4.24h1.42v4.24H610.71z M610.71,348.53v-4.24h1.42v4.24H610.71z
				 M610.71,340.05v-4.24h1.42v4.24H610.71z M610.71,331.57v-4.24h1.42v4.24H610.71z M610.71,323.08v-4.24h1.42v4.24H610.71z
				 M610.71,314.6v-4.24h1.42v4.24H610.71z M610.71,306.12v-4.24h1.42v4.24H610.71z M610.71,297.63v-4.24h1.42v4.24H610.71z
				 M610.71,289.15v-4.24h1.42v4.24H610.71z M610.71,280.67v-4.24h1.42v4.24H610.71z M610.71,272.19v-4.24h1.42v4.24H610.71z
				 M610.71,263.7v-4.24h1.42v4.24H610.71z M610.71,255.22v-4.24h1.42v4.24H610.71z M610.71,246.74v-4.24h1.42v4.24H610.71z
				 M610.71,238.25v-4.24h1.42v4.24H610.71z M610.71,229.77v-4.24h1.42v4.24H610.71z M610.71,221.29v-4.24h1.42v4.24H610.71z
				 M610.71,212.8v-4.24h1.42v4.24H610.71z M610.71,204.32v-4.24h1.42v4.24H610.71z M610.71,195.84v-4.24h1.42v4.24H610.71z
				 M610.71,187.35v-4.24h1.42v4.24H610.71z M610.71,178.87v-4.24h1.42v4.24H610.71z M610.71,170.39v-4.24h1.42v4.24H610.71z
				 M610.71,161.91v-4.24h1.42v4.24H610.71z M610.71,153.42v-4.24h1.42v4.24H610.71z M610.71,144.94v-4.24h1.42v4.24H610.71z
				 M610.71,136.46v-4.24h1.42v4.24H610.71z M610.71,127.97v-4.24h1.42v4.24H610.71z M610.71,119.49v-4.24h1.42v4.24H610.71z
				 M610.71,111.01v-4.24h1.42v4.24H610.71z M610.71,102.52v-4.24h1.42v4.24H610.71z M610.71,94.04V89.8h1.42v4.24H610.71z
				 M610.71,85.56v-4.24h1.42v4.24H610.71z M610.71,77.08v-4.24h1.42v4.24H610.71z M610.71,68.59v-4.24h1.42v4.24H610.71z
				 M610.71,60.11v-4.24h1.42v4.24H610.71z M610.71,51.63v-4.24h1.42v4.24H610.71z M610.71,43.14V38.9h1.42v4.24H610.71z
				 M610.71,34.66v-4.24h1.42v4.24H610.71z M610.71,26.18v-4.24h1.42v4.24H610.71z M610.71,17.69v-4.24h1.42v4.24H610.71z"/>
			<rect x="610.71" y="7.09" class="st0" width="1.42" height="2.12"/>
		</g>
		<g>
			
				<rect x="0.71" y="0.71" transform="matrix(-1.836970e-16 1 -1 -1.836970e-16 14.1739 -1.604885e-04)" class="st0" width="12.76" height="12.76"/>
			<path class="st0" d="M0,14.17V0h14.17v14.17H0z M1.42,1.42v11.34h11.34V1.42H1.42z"/>
		</g>
		<g>
			
				<rect x="607.03" y="418" transform="matrix(-1.836970e-16 1 -1 -1.836970e-16 1033.8096 -189.0204)" class="st0" width="8.78" height="8.78"/>
			<path class="st0" d="M606.32,427.49v-10.2h10.2v10.2H606.32z M607.73,418.71v7.36h7.36v-7.36H607.73z"/>
		</g>
		<g>
			
				<rect x="256.55" y="833.31" transform="matrix(-1.836970e-16 1 -1 -1.836970e-16 1098.6462 576.7584)" class="st0" width="8.78" height="8.78"/>
			<path class="st0" d="M255.85,842.8v-10.2h10.2v10.2H255.85z M257.26,834.02v7.36h7.36v-7.36H257.26z"/>
		</g>
		<g>
			<g>
				<g>
					<rect x="605.46" y="0.71" class="st0" width="12.76" height="12.76"/>
					<path class="st0" d="M604.76,14.17V0h14.17v14.17H604.76z M606.17,1.42v11.34h11.34V1.42H606.17z"/>
				</g>
			</g>
			<g>
				<g>
					<rect x="605.46" y="831.32" class="st0" width="12.76" height="12.76"/>
					<path class="st0" d="M604.76,844.79v-14.17h14.17v14.17H604.76z M606.17,832.03v11.34h11.34v-11.34H606.17z"/>
				</g>
			</g>
		</g>
		<g>
			
				<rect x="256.55" y="2.7" transform="matrix(-1.836970e-16 1 -1 -1.836970e-16 268.0308 -253.8571)" class="st0" width="8.78" height="8.78"/>
			<path class="st0" d="M255.85,12.18V1.99h10.2v10.2H255.85z M257.26,3.41v7.36h7.36V3.41H257.26z"/>
		</g>
	</g>
	<polyline class="st1" points="7.09,838.41 610.71,836.99 612.12,422.76 	"/>
	<polyline class="st1" points="611.42,7.79 7.8,7.79 7.8,649.69 6.38,837.7 	"/>
	<g>
		
			<rect x="0.71" y="831.32" transform="matrix(-1.836970e-16 1 -1 -1.836970e-16 844.7894 830.6154)" class="st0" width="12.76" height="12.76"/>
		<path class="st0" d="M0,844.79v-14.17h14.17v14.17H0z M1.42,832.03v11.34h11.34v-11.34H1.42z"/>
	</g>
	<g>
		
			<rect x="2.7" y="418" transform="matrix(-1.836970e-16 1 -1 -1.836970e-16 429.4816 415.3076)" class="st0" width="8.78" height="8.78"/>
		<path class="st0" d="M1.99,427.49v-10.2h10.2v10.2H1.99z M3.41,418.71v7.36h7.36v-7.36H3.41z"/>
	</g>
</g>
</svg>
