<svg version="1.1" id="Capa_1" xmlns="http://www.w3.org/2000/svg" xmlns:xlink="http://www.w3.org/1999/xlink" x="0px" y="0px"
	 viewBox="0 0 617.7 127.95" style="enable-background:new 0 0 617.7 127.95;" xml:space="preserve">
<style type="text/css">
	.st0{fill:#FFFFFF;}
	.st1{fill:none;stroke:#FFFFFF;stroke-width:3.2098;stroke-linecap:round;stroke-linejoin:round;stroke-miterlimit:10;}
	.st2{opacity:0.15;}
	.st3{fill:url(#SVGID_1_);}
	.st4{fill:none;stroke:#FFFFFF;stroke-width:3.5269;stroke-linecap:round;stroke-linejoin:round;stroke-miterlimit:10;}
	.st5{fill:#3C4147;}
	.st6{opacity:0.85;}
	.st7{fill:#52A9F7;}
	.st8{opacity:0.3;}
	.st9{fill:#0E1012;}
	.st10{fill:#7B8190;}
	.st11{fill:#6CDBBB;}
	.st12{fill:#EAEAEA;}
	.st13{fill:#292B30;}
	.st14{fill:none;stroke:#EAEAEA;stroke-width:1.57;stroke-miterlimit:10;}
	.st15{fill:none;stroke:#FFFFFF;stroke-width:2.0656;stroke-linecap:round;stroke-linejoin:round;stroke-miterlimit:10;}
	.st16{fill:none;stroke:#FFFFFF;stroke-width:2.0656;stroke-linecap:round;stroke-linejoin:round;}
</style>
<g>
	<g>
		<g class="st2">
			<linearGradient id="SVGID_1_" gradientUnits="userSpaceOnUse" x1="308.8524" y1="127.2342" x2="308.8524" y2="1.9161">
				<stop  offset="0" style="stop-color:#FFFFFF"/>
				<stop  offset="0.866" style="stop-color:#FFFFFF;stop-opacity:0.134"/>
				<stop  offset="1" style="stop-color:#FFFFFF;stop-opacity:0"/>
			</linearGradient>
			<path class="st3" d="M607.32,126.19H10.39c-4.76,0-8.63-3.86-8.63-8.63V1.76h614.18v115.8
				C615.94,122.33,612.08,126.19,607.32,126.19z"/>
		</g>
		<path class="st4" d="M607.32,126.19H10.39c-4.76,0-8.63-3.86-8.63-8.63V1.76h614.18v115.8
			C615.94,122.33,612.08,126.19,607.32,126.19z"/>
	</g>
	<g>
		<g>
			<rect x="530.91" y="43.16" class="st5" width="0.65" height="82.89"/>
		</g>
		<g>
			<rect x="594.17" y="43.16" class="st5" width="0.65" height="82.89"/>
		</g>
		<g>
			<rect x="464.92" y="43.34" class="st5" width="0.65" height="82.71"/>
		</g>
		<g>
			<rect x="398.22" y="43.34" class="st5" width="0.65" height="82.71"/>
		</g>
		<g>
			<rect x="331.51" y="43.34" class="st5" width="0.65" height="82.71"/>
		</g>
		<g>
			<rect x="199.24" y="43.34" class="st5" width="0.65" height="82.71"/>
		</g>
	</g>
	<g class="st6">
		<rect x="13.19" y="42.87" class="st7" width="581.11" height="32.2"/>
	</g>
	<g class="st8">
		<rect x="13.14" y="57" class="st9" width="581.27" height="1.08"/>
	</g>
	<g class="st6">
		<rect x="13.19" y="75.08" class="st10" width="581.33" height="16.03"/>
	</g>
	<g class="st6">
		<rect x="13.19" y="90.6" class="st5" width="581.25" height="16.03"/>
	</g>
	<g id="cursor_00000005982177686121152180000006817002573750345856_">
		<g>
			<path class="st11" d="M263.71,17.12h-1.02v-5.4c-0.25,0.19-0.57,0.39-0.97,0.58c-0.4,0.19-0.76,0.34-1.08,0.44v-0.82
				c0.57-0.22,1.07-0.49,1.5-0.81c0.43-0.32,0.73-0.63,0.91-0.92h0.66V17.12z"/>
			<path class="st11" d="M266.33,13.71c0-0.82,0.1-1.47,0.3-1.97c0.2-0.5,0.5-0.88,0.9-1.15c0.4-0.27,0.9-0.41,1.51-0.41
				c0.45,0,0.84,0.07,1.18,0.22c0.34,0.15,0.62,0.36,0.83,0.65c0.22,0.28,0.39,0.62,0.52,1.03c0.12,0.4,0.19,0.95,0.19,1.63
				c0,0.81-0.1,1.46-0.3,1.96c-0.2,0.5-0.5,0.88-0.9,1.15c-0.4,0.27-0.9,0.41-1.51,0.41c-0.8,0-1.43-0.24-1.89-0.72
				C266.6,15.95,266.33,15.01,266.33,13.71z M267.38,13.71c0,1.13,0.16,1.89,0.48,2.26c0.32,0.38,0.71,0.56,1.18,0.56
				c0.47,0,0.86-0.19,1.18-0.57c0.32-0.38,0.48-1.13,0.48-2.26c0-1.14-0.16-1.89-0.48-2.27s-0.72-0.56-1.2-0.56
				c-0.47,0-0.84,0.16-1.12,0.49C267.55,11.8,267.38,12.58,267.38,13.71z"/>
		</g>
		<g>
			<path class="st11" d="M272.28,22.74h-11.97c-1.39,0-2.11,1.67-1.14,2.68l4.92,5.09c0.94,0.97,1.46,2.27,1.46,3.62v93.2h1.49
				v-93.2c0-1.35,0.52-2.64,1.46-3.62l4.92-5.09C274.39,24.41,273.68,22.74,272.28,22.74z"/>
		</g>
	</g>
	<g id="numbers_00000126309626654859967680000016636219200020588982_">
		<g>
			<path class="st12" d="M197.32,13.93c0-0.82,0.1-1.47,0.3-1.97c0.2-0.5,0.5-0.88,0.9-1.15c0.4-0.27,0.9-0.41,1.51-0.41
				c0.45,0,0.84,0.07,1.18,0.22c0.34,0.15,0.62,0.36,0.84,0.65c0.22,0.28,0.39,0.62,0.52,1.03c0.12,0.4,0.19,0.95,0.19,1.63
				c0,0.81-0.1,1.46-0.3,1.96c-0.2,0.5-0.5,0.88-0.9,1.15c-0.4,0.27-0.9,0.41-1.51,0.41c-0.8,0-1.43-0.24-1.89-0.72
				C197.59,16.16,197.32,15.23,197.32,13.93z M198.37,13.93c0,1.13,0.16,1.89,0.48,2.26c0.32,0.38,0.71,0.56,1.18,0.56
				c0.47,0,0.86-0.19,1.18-0.57c0.32-0.38,0.48-1.13,0.48-2.26c0-1.14-0.16-1.89-0.48-2.27s-0.72-0.56-1.2-0.56
				c-0.47,0-0.84,0.16-1.12,0.49C198.55,12.02,198.37,12.8,198.37,13.93z"/>
		</g>
		<g>
			<path class="st12" d="M331.8,16.52v0.82h-5.5c-0.01-0.2,0.03-0.4,0.12-0.59c0.14-0.31,0.36-0.62,0.67-0.92
				c0.31-0.3,0.75-0.65,1.34-1.05c0.9-0.62,1.52-1.1,1.83-1.46c0.32-0.36,0.48-0.7,0.48-1.02c0-0.34-0.14-0.62-0.43-0.85
				c-0.29-0.23-0.67-0.35-1.13-0.35c-0.49,0-0.89,0.12-1.18,0.37c-0.3,0.25-0.44,0.58-0.45,1.02l-1.05-0.09
				c0.07-0.65,0.34-1.15,0.81-1.49c0.47-0.34,1.1-0.51,1.89-0.51c0.8,0,1.43,0.18,1.9,0.55c0.47,0.37,0.7,0.82,0.7,1.37
				c0,0.28-0.07,0.55-0.2,0.82c-0.14,0.27-0.36,0.55-0.68,0.84c-0.32,0.3-0.84,0.7-1.58,1.22c-0.61,0.43-1.01,0.72-1.18,0.87
				c-0.17,0.15-0.32,0.31-0.43,0.46H331.8z"/>
			<path class="st12" d="M332.89,13.93c0-0.82,0.1-1.47,0.3-1.97c0.2-0.5,0.5-0.88,0.9-1.15c0.4-0.27,0.9-0.41,1.51-0.41
				c0.45,0,0.84,0.07,1.18,0.22c0.34,0.15,0.62,0.36,0.83,0.65c0.22,0.28,0.39,0.62,0.52,1.03c0.12,0.4,0.19,0.95,0.19,1.63
				c0,0.81-0.1,1.46-0.3,1.96c-0.2,0.5-0.5,0.88-0.9,1.15c-0.4,0.27-0.9,0.41-1.51,0.41c-0.8,0-1.43-0.24-1.89-0.72
				C333.17,16.16,332.89,15.23,332.89,13.93z M333.94,13.93c0,1.13,0.16,1.89,0.48,2.26c0.32,0.38,0.71,0.56,1.18,0.56
				c0.47,0,0.86-0.19,1.18-0.57c0.32-0.38,0.48-1.13,0.48-2.26c0-1.14-0.16-1.89-0.48-2.27c-0.32-0.37-0.72-0.56-1.2-0.56
				c-0.47,0-0.84,0.16-1.12,0.49C334.12,12.02,333.94,12.8,333.94,13.93z"/>
		</g>
		<g>
			<path class="st12" d="M392.71,15.51l1.02-0.11c0.12,0.48,0.32,0.83,0.6,1.04c0.28,0.21,0.63,0.32,1.03,0.32
				c0.48,0,0.89-0.14,1.22-0.41c0.33-0.28,0.5-0.62,0.5-1.03c0-0.39-0.15-0.71-0.46-0.96c-0.31-0.25-0.7-0.38-1.17-0.38
				c-0.19,0-0.43,0.03-0.72,0.09l0.11-0.74c0.07,0.01,0.12,0.01,0.16,0.01c0.44,0,0.83-0.09,1.18-0.28
				c0.35-0.19,0.52-0.48,0.52-0.87c0-0.31-0.13-0.57-0.38-0.77c-0.25-0.2-0.58-0.31-0.98-0.31c-0.4,0-0.73,0.1-0.99,0.31
				c-0.27,0.21-0.44,0.52-0.51,0.93l-1.02-0.15c0.12-0.57,0.41-1.01,0.85-1.32c0.44-0.31,0.99-0.47,1.65-0.47
				c0.45,0,0.87,0.08,1.26,0.24c0.38,0.16,0.67,0.38,0.88,0.66c0.2,0.28,0.3,0.58,0.3,0.89c0,0.3-0.1,0.57-0.29,0.82
				c-0.19,0.24-0.48,0.44-0.86,0.58c0.49,0.09,0.87,0.29,1.15,0.59c0.27,0.3,0.41,0.67,0.41,1.11c0,0.6-0.26,1.11-0.8,1.53
				c-0.53,0.42-1.2,0.63-2.01,0.63c-0.73,0-1.34-0.18-1.82-0.54C393.05,16.56,392.77,16.09,392.71,15.51z"/>
			<path class="st12" d="M399.17,13.93c0-0.82,0.1-1.47,0.3-1.97c0.2-0.5,0.5-0.88,0.9-1.15c0.4-0.27,0.9-0.41,1.51-0.41
				c0.45,0,0.84,0.07,1.18,0.22c0.34,0.15,0.62,0.36,0.84,0.65c0.22,0.28,0.39,0.62,0.52,1.03c0.12,0.4,0.19,0.95,0.19,1.63
				c0,0.81-0.1,1.46-0.3,1.96c-0.2,0.5-0.5,0.88-0.9,1.15c-0.4,0.27-0.9,0.41-1.51,0.41c-0.8,0-1.43-0.24-1.89-0.72
				C399.44,16.16,399.17,15.23,399.17,13.93z M400.22,13.93c0,1.13,0.16,1.89,0.48,2.26c0.32,0.38,0.71,0.56,1.18,0.56
				c0.47,0,0.86-0.19,1.18-0.57c0.32-0.38,0.48-1.13,0.48-2.26c0-1.14-0.16-1.89-0.48-2.27c-0.32-0.37-0.72-0.56-1.2-0.56
				c-0.47,0-0.84,0.16-1.12,0.49C400.4,12.02,400.22,12.8,400.22,13.93z"/>
		</g>
		<g>
			<path class="st12" d="M462.11,17.34v-1.65h-3.61V14.9l3.8-4.48h0.83v4.48h1.12v0.78h-1.12v1.65H462.11z M462.11,14.9v-3.11
				l-2.61,3.11H462.11z"/>
			<path class="st12" d="M465.3,13.93c0-0.82,0.1-1.47,0.3-1.97c0.2-0.5,0.5-0.88,0.9-1.15c0.4-0.27,0.9-0.41,1.51-0.41
				c0.45,0,0.84,0.07,1.18,0.22c0.34,0.15,0.62,0.36,0.83,0.65c0.22,0.28,0.39,0.62,0.52,1.03c0.12,0.4,0.19,0.95,0.19,1.63
				c0,0.81-0.1,1.46-0.3,1.96c-0.2,0.5-0.5,0.88-0.9,1.15c-0.4,0.27-0.9,0.41-1.51,0.41c-0.8,0-1.43-0.24-1.89-0.72
				C465.58,16.16,465.3,15.23,465.3,13.93z M466.35,13.93c0,1.13,0.16,1.89,0.48,2.26c0.32,0.38,0.71,0.56,1.18,0.56
				c0.47,0,0.86-0.19,1.18-0.57c0.32-0.38,0.48-1.13,0.48-2.26c0-1.14-0.16-1.89-0.48-2.27c-0.32-0.37-0.72-0.56-1.2-0.56
				c-0.47,0-0.84,0.16-1.12,0.49C466.53,12.02,466.35,12.8,466.35,13.93z"/>
		</g>
		<g>
			<path class="st12" d="M524.68,15.53l1.07-0.08c0.08,0.43,0.26,0.76,0.55,0.98c0.29,0.22,0.64,0.33,1.05,0.33
				c0.49,0,0.91-0.15,1.25-0.46c0.34-0.31,0.51-0.72,0.51-1.23c0-0.48-0.16-0.87-0.49-1.14c-0.33-0.28-0.76-0.42-1.29-0.42
				c-0.33,0-0.63,0.06-0.89,0.19c-0.26,0.12-0.47,0.28-0.62,0.48l-0.96-0.1l0.81-3.55h4.14v0.81h-3.32l-0.45,1.86
				c0.5-0.29,1.02-0.43,1.57-0.43c0.73,0,1.34,0.21,1.84,0.63c0.5,0.42,0.75,0.95,0.75,1.61c0,0.63-0.22,1.17-0.66,1.62
				c-0.53,0.56-1.26,0.84-2.19,0.84c-0.76,0-1.38-0.18-1.85-0.53C525.02,16.57,524.75,16.11,524.68,15.53z"/>
			<path class="st12" d="M531.15,13.93c0-0.82,0.1-1.47,0.3-1.97c0.2-0.5,0.5-0.88,0.9-1.15c0.4-0.27,0.9-0.41,1.51-0.41
				c0.45,0,0.84,0.07,1.18,0.22c0.34,0.15,0.62,0.36,0.83,0.65c0.22,0.28,0.39,0.62,0.52,1.03c0.12,0.4,0.19,0.95,0.19,1.63
				c0,0.81-0.1,1.46-0.3,1.96s-0.5,0.88-0.9,1.15c-0.4,0.27-0.9,0.41-1.51,0.41c-0.8,0-1.43-0.24-1.89-0.72
				C531.42,16.16,531.15,15.23,531.15,13.93z M532.2,13.93c0,1.13,0.16,1.89,0.48,2.26c0.32,0.38,0.71,0.56,1.18,0.56
				c0.47,0,0.86-0.19,1.18-0.57c0.32-0.38,0.48-1.13,0.48-2.26c0-1.14-0.16-1.89-0.48-2.27c-0.32-0.37-0.72-0.56-1.2-0.56
				c-0.47,0-0.84,0.16-1.12,0.49C532.38,12.02,532.2,12.8,532.2,13.93z"/>
		</g>
		<g>
			<path class="st12" d="M594.39,12.12l-1.02,0.07c-0.09-0.33-0.22-0.57-0.39-0.73c-0.28-0.24-0.62-0.36-1.02-0.36
				c-0.33,0-0.61,0.08-0.86,0.23c-0.32,0.19-0.58,0.48-0.76,0.85c-0.19,0.37-0.28,0.91-0.29,1.6c0.25-0.31,0.55-0.54,0.9-0.69
				c0.36-0.15,0.73-0.23,1.12-0.23c0.68,0,1.26,0.21,1.74,0.62c0.48,0.42,0.72,0.95,0.72,1.61c0,0.43-0.11,0.84-0.34,1.21
				c-0.23,0.37-0.53,0.66-0.93,0.86c-0.39,0.2-0.84,0.3-1.34,0.3c-0.85,0-1.55-0.26-2.08-0.78c-0.54-0.52-0.81-1.38-0.81-2.57
				c0-1.33,0.3-2.31,0.89-2.91c0.52-0.53,1.22-0.79,2.1-0.79c0.65,0,1.19,0.15,1.61,0.46C594.06,11.16,594.31,11.58,594.39,12.12z
				 M590.22,15.1c0,0.29,0.07,0.57,0.22,0.84c0.15,0.27,0.36,0.47,0.63,0.61c0.27,0.14,0.55,0.21,0.85,0.21
				c0.43,0,0.8-0.14,1.11-0.43c0.31-0.29,0.47-0.68,0.47-1.18c0-0.48-0.15-0.85-0.46-1.13c-0.31-0.27-0.69-0.41-1.16-0.41
				c-0.46,0-0.85,0.14-1.18,0.41C590.38,14.29,590.22,14.65,590.22,15.1z"/>
			<path class="st12" d="M595.56,13.93c0-0.82,0.1-1.47,0.3-1.97c0.2-0.5,0.5-0.88,0.9-1.15c0.4-0.27,0.9-0.41,1.51-0.41
				c0.45,0,0.84,0.07,1.18,0.22c0.34,0.15,0.62,0.36,0.84,0.65c0.22,0.28,0.39,0.62,0.52,1.03c0.12,0.4,0.19,0.95,0.19,1.63
				c0,0.81-0.1,1.46-0.3,1.96c-0.2,0.5-0.5,0.88-0.9,1.15c-0.4,0.27-0.9,0.41-1.51,0.41c-0.8,0-1.43-0.24-1.89-0.72
				C595.83,16.16,595.56,15.23,595.56,13.93z M596.61,13.93c0,1.13,0.16,1.89,0.48,2.26c0.32,0.38,0.71,0.56,1.18,0.56
				c0.47,0,0.86-0.19,1.18-0.57c0.32-0.38,0.48-1.13,0.48-2.26c0-1.14-0.16-1.89-0.48-2.27c-0.32-0.37-0.72-0.56-1.2-0.56
				c-0.47,0-0.84,0.16-1.12,0.49C596.78,12.02,596.61,12.8,596.61,13.93z"/>
		</g>
	</g>
	<g>
		<g>
			<rect x="569.98" y="35.29" class="st12" width="0.86" height="5.32"/>
		</g>
		<g>
			<rect x="583.31" y="35.29" class="st12" width="0.86" height="5.32"/>
		</g>
		<g>
			<rect x="398.25" y="31.23" class="st12" width="0.86" height="9.38"/>
		</g>
		<g>
			<rect x="530.9" y="31.23" class="st12" width="0.86" height="9.38"/>
		</g>
		<g>
			<rect x="213.08" y="35.29" class="st12" width="0.86" height="5.32"/>
		</g>
		<g>
			<rect x="226.52" y="35.29" class="st12" width="0.86" height="5.32"/>
		</g>
		<g>
			<rect x="239.1" y="35.29" class="st12" width="0.86" height="5.32"/>
		</g>
		<g>
			<rect x="252.47" y="35.29" class="st12" width="0.86" height="5.32"/>
		</g>
		<g>
			<rect x="279.21" y="35.29" class="st12" width="0.86" height="5.32"/>
		</g>
		<g>
			<rect x="292.73" y="35.29" class="st12" width="0.86" height="5.32"/>
		</g>
		<g>
			<rect x="305.38" y="35.29" class="st12" width="0.86" height="5.32"/>
		</g>
		<g>
			<rect x="318.68" y="35.29" class="st12" width="0.86" height="5.32"/>
		</g>
		<g>
			<rect x="345.42" y="35.29" class="st12" width="0.86" height="5.32"/>
		</g>
		<g>
			<rect x="358.07" y="35.29" class="st12" width="0.86" height="5.32"/>
		</g>
		<g>
			<rect x="371.44" y="35.29" class="st12" width="0.86" height="5.32"/>
		</g>
		<g>
			<rect x="384.86" y="35.29" class="st12" width="0.86" height="5.32"/>
		</g>
		<g>
			<rect x="411.5" y="35.29" class="st12" width="0.86" height="5.32"/>
		</g>
		<g>
			<rect x="424.25" y="35.29" class="st12" width="0.86" height="5.32"/>
		</g>
		<g>
			<rect x="437.5" y="35.29" class="st12" width="0.86" height="5.32"/>
		</g>
		<g>
			<rect x="450.99" y="35.29" class="st12" width="0.86" height="5.32"/>
		</g>
		<g>
			<rect x="477.73" y="35.29" class="st12" width="0.86" height="5.32"/>
		</g>
		<g>
			<rect x="490.38" y="35.29" class="st12" width="0.86" height="5.32"/>
		</g>
		<g>
			<rect x="503.71" y="35.29" class="st12" width="0.86" height="5.32"/>
		</g>
		<g>
			<rect x="517.22" y="35.29" class="st12" width="0.86" height="5.32"/>
		</g>
		<g>
			<rect x="543.15" y="35.29" class="st12" width="0.86" height="5.32"/>
		</g>
		<g>
			<rect x="556.47" y="35.29" class="st12" width="0.86" height="5.32"/>
		</g>
	</g>
	<g>
		<g>
			
				<rect x="461.48" y="30.36" transform="matrix(0.7071 0.7071 -0.7071 0.7071 160.5187 -319.0347)" class="st12" width="7.78" height="7.78"/>
		</g>
		<g>
			
				<rect x="590.49" y="30.36" transform="matrix(0.7071 0.7071 -0.7071 0.7071 198.3042 -410.257)" class="st12" width="7.78" height="7.78"/>
		</g>
		<g>
			
				<rect x="328.16" y="30.36" transform="matrix(0.7071 0.7071 -0.7071 0.7071 121.4699 -224.7625)" class="st12" width="7.78" height="7.78"/>
		</g>
		<g>
			
				<rect x="196.18" y="30.36" transform="matrix(0.7071 0.7071 -0.7071 0.7071 82.814 -131.4391)" class="st12" width="7.78" height="7.78"/>
		</g>
	</g>
	<g>
		<path class="st12" d="M202.74,85.21h-1.08c0-0.92,0.27-1.65,0.8-2.18c0.95-0.95,2.49-0.95,3.32-0.95l0.11,0h120.2
			c0.54,0,1.2,0,1.7-0.3c0.58-0.34,0.86-1.04,0.86-2.15h1.08c0,1.5-0.47,2.53-1.39,3.08c-0.76,0.45-1.65,0.45-2.25,0.45l-120.31,0
			c-0.72,0-1.92,0-2.56,0.63C202.9,84.12,202.74,84.58,202.74,85.21z"/>
	</g>
	<g>
		<path class="st12" d="M334.67,85.21h-1.08c0-0.92,0.27-1.65,0.8-2.18c0.95-0.95,2.49-0.95,3.32-0.95l0.11,0h251.05
			c0.54,0,1.2,0,1.7-0.3c0.58-0.34,0.86-1.04,0.86-2.15h1.08c0,1.5-0.47,2.53-1.39,3.08c-0.76,0.45-1.66,0.45-2.25,0.45l-251.17,0
			c-0.72,0-1.92,0-2.55,0.63C334.83,84.12,334.67,84.58,334.67,85.21z"/>
	</g>
	<g>
		<path class="st12" d="M202.74,101.31h-1.08c0-0.92,0.27-1.65,0.8-2.18c0.95-0.95,2.49-0.94,3.32-0.95l0.11,0h187.18
			c0.53,0,1.2,0,1.71-0.3c0.58-0.34,0.86-1.04,0.86-2.15h1.08c0,1.5-0.47,2.53-1.39,3.08c-0.76,0.45-1.66,0.45-2.25,0.45l-187.29,0
			c-0.72,0-1.92-0.01-2.56,0.63C202.9,100.22,202.74,100.68,202.74,101.31z"/>
	</g>
	<g>
		<path class="st12" d="M401.52,101.31h-1.08c0-0.92,0.27-1.65,0.8-2.18c0.95-0.95,2.49-0.94,3.32-0.95l0.11,0h184.12
			c0.53,0,1.2,0,1.7-0.3c0.58-0.34,0.86-1.04,0.86-2.15h1.08c0,1.5-0.47,2.53-1.39,3.08c-0.76,0.45-1.66,0.45-2.25,0.45l-184.23,0
			c-0.72,0-1.92,0-2.55,0.63C401.68,100.22,401.52,100.68,401.52,101.31z"/>
	</g>
	<g>
		<rect x="197.94" y="60.27" class="st12" width="4.31" height="12.08"/>
		<path class="st13" d="M202.79,72.89h-5.39V59.73h5.39V72.89z M198.47,71.81h3.23v-11h-3.23V71.81z"/>
	</g>
	<g>
		<rect x="197.94" y="76.95" class="st12" width="4.31" height="12.08"/>
		<path class="st13" d="M202.79,89.56h-5.39V76.41h5.39V89.56z M198.47,88.48h3.23v-11h-3.23V88.48z"/>
	</g>
	<g>
		<rect x="329.63" y="76.95" class="st12" width="4.31" height="12.08"/>
		<path class="st13" d="M334.48,89.56h-5.39V76.41h5.39V89.56z M330.17,88.48h3.23v-11h-3.23V88.48z"/>
	</g>
	<g>
		<rect x="462.95" y="76.95" class="st12" width="4.31" height="12.08"/>
		<path class="st13" d="M467.8,89.56h-5.39V76.41h5.39V89.56z M463.49,88.48h3.23v-11h-3.23V88.48z"/>
	</g>
	<g>
		<rect x="462.8" y="45.03" class="st12" width="4.31" height="9.77"/>
		<path class="st13" d="M467.66,55.34h-5.39V44.49h5.39V55.34z M463.34,54.27h3.23v-8.7h-3.23V54.27z"/>
	</g>
	<g>
		<rect x="592.15" y="76.95" class="st12" width="4.31" height="12.08"/>
		<path class="st13" d="M597,89.56h-5.39V76.41H597V89.56z M592.69,88.48h3.23v-11h-3.23V88.48z"/>
	</g>
	<g>
		<rect x="330.06" y="44.65" class="st12" width="4.31" height="9.39"/>
		<path class="st13" d="M334.91,54.58h-5.39V44.11h5.39V54.58z M330.6,53.5h3.23v-8.31h-3.23V53.5z"/>
	</g>
	<g>
		<rect x="197.94" y="92.38" class="st12" width="4.31" height="12.08"/>
		<path class="st13" d="M202.79,104.99h-5.39V91.84h5.39V104.99z M198.47,103.92h3.23v-11h-3.23V103.92z"/>
	</g>
	<g>
		<rect x="396.43" y="92.38" class="st12" width="4.31" height="12.08"/>
		<path class="st13" d="M401.28,104.99h-5.39V91.84h5.39V104.99z M396.97,103.92h3.23v-11h-3.23V103.92z"/>
	</g>
	<g>
		<rect x="592.1" y="92.38" class="st12" width="4.31" height="12.08"/>
		<path class="st13" d="M596.95,104.99h-5.39V91.84h5.39V104.99z M592.64,103.92h3.23v-11h-3.23V103.92z"/>
	</g>
	<g>
		<rect x="396.55" y="44.93" class="st12" width="4.31" height="9.82"/>
		<path class="st13" d="M401.4,55.3h-5.39V44.4h5.39V55.3z M397.09,54.22h3.23v-8.74h-3.23V54.22z"/>
	</g>
	<g>
		<rect x="197.94" y="44.99" class="st12" width="4.31" height="10.14"/>
		<path class="st13" d="M202.79,55.67h-5.39V44.46h5.39V55.67z M198.47,54.59h3.23v-9.06h-3.23V54.59z"/>
	</g>
	<g>
		<rect x="592.44" y="60.27" class="st12" width="4.31" height="12.08"/>
		<path class="st13" d="M597.29,72.89h-5.39V59.73h5.39V72.89z M592.97,71.81h3.23v-11h-3.23V71.81z"/>
	</g>
	<g>
		<rect x="592.44" y="44.99" class="st12" width="4.31" height="10.14"/>
		<path class="st13" d="M597.29,55.67h-5.39V44.46h5.39V55.67z M592.97,54.59h3.23v-9.06h-3.23V54.59z"/>
	</g>
	<g>
		<path class="st14" d="M167.24,30.65h-14.5c-1.55,0-2.8-1.26-2.8-2.8V15.92c0-1.55,1.26-2.8,2.8-2.8h14.5c1.55,0,2.8,1.26,2.8,2.8
			v11.93C170.04,29.4,168.79,30.65,167.24,30.65z"/>
	</g>
	<g>
		<g>
			<path class="st12" d="M162.7,18.29h-1.54v-1.08L159,18.97l2.16,1.76v-1.15h1.54c0.2,0,0.37,0.17,0.37,0.37v3.5
				c0,0.2-0.17,0.37-0.37,0.37h-1.28v1.29h1.28c0.92,0,1.67-0.75,1.67-1.67v-3.5C164.37,19.03,163.62,18.29,162.7,18.29z"/>
		</g>
		<g>
			<path class="st12" d="M160.75,24.34l-2.16-1.76v1.15h-1.54c-0.2,0-0.37-0.17-0.37-0.37v-3.5c0-0.2,0.17-0.37,0.37-0.37h1.28
				v-1.29h-1.28c-0.92,0-1.67,0.75-1.67,1.67v3.5c0,0.92,0.75,1.67,1.67,1.67h1.54v1.08L160.75,24.34z"/>
		</g>
	</g>
	<g>
		<path class="st14" d="M143.02,30.65h-34.7c-1.55,0-2.8-1.26-2.8-2.8V15.92c0-1.55,1.26-2.8,2.8-2.8h34.7c1.55,0,2.8,1.26,2.8,2.8
			v11.93C145.82,29.4,144.56,30.65,143.02,30.65z"/>
	</g>
	<rect x="125.19" y="13.1" class="st12" width="0.43" height="17.53"/>
	<g>
		<g>
			<path class="st12" d="M111.98,18.66v7.23c0,0.42,0.51,0.64,0.82,0.35l3.85-3.38c0.4-0.35,0.39-0.97-0.01-1.31l-3.84-3.24
				C112.48,18.02,111.98,18.24,111.98,18.66z"/>
		</g>
		<g>
			<path class="st12" d="M118.53,25.1c-0.24,0-0.43-0.19-0.43-0.43v-4.74c0-0.24,0.19-0.43,0.43-0.43c0.24,0,0.43,0.19,0.43,0.43
				v4.74C118.96,24.91,118.77,25.1,118.53,25.1z"/>
		</g>
	</g>
	<g>
		<g>
			<path class="st12" d="M135.33,19.5v5.55c0,0.33,0.39,0.49,0.63,0.27l2.96-2.59c0.3-0.27,0.3-0.74-0.01-1l-2.95-2.49
				C135.71,19.01,135.33,19.18,135.33,19.5z"/>
		</g>
		<g>
			<path class="st12" d="M131.52,19.73v5.1c0,0.44,0.51,0.69,0.86,0.42l3.29-2.6c0.27-0.21,0.27-0.63-0.01-0.84l-3.29-2.5
				C132.02,19.04,131.52,19.29,131.52,19.73z"/>
		</g>
		<g>
			<path class="st12" d="M139.79,25.1c-0.24,0-0.43-0.19-0.43-0.43v-4.74c0-0.24,0.19-0.43,0.43-0.43c0.24,0,0.43,0.19,0.43,0.43
				v4.74C140.22,24.91,140.03,25.1,139.79,25.1z"/>
		</g>
	</g>
	<g>
		<path class="st14" d="M54.38,30.65h-34.7c-1.55,0-2.8-1.26-2.8-2.8V15.92c0-1.55,1.26-2.8,2.8-2.8h34.7c1.55,0,2.8,1.26,2.8,2.8
			v11.93C57.19,29.4,55.93,30.65,54.38,30.65z"/>
	</g>
	<rect x="36.56" y="13.1" class="st12" width="0.43" height="17.53"/>
	<g>
		<g>
			<path class="st12" d="M50.39,18.66v7.23c0,0.42-0.51,0.64-0.82,0.35l-3.85-3.38c-0.4-0.35-0.39-0.97,0.01-1.31l3.84-3.24
				C49.89,18.02,50.39,18.24,50.39,18.66z"/>
		</g>
		<g>
			<path class="st12" d="M43.83,25.1c-0.24,0-0.43-0.19-0.43-0.43v-4.74c0-0.24,0.19-0.43,0.43-0.43c0.24,0,0.43,0.19,0.43,0.43
				v4.74C44.26,24.91,44.07,25.1,43.83,25.1z"/>
		</g>
	</g>
	<g>
		<g>
			<path class="st12" d="M26.95,19.5v5.55c0,0.33-0.39,0.49-0.63,0.27l-2.96-2.59c-0.3-0.27-0.3-0.74,0.01-1l2.95-2.49
				C26.57,19.01,26.95,19.18,26.95,19.5z"/>
		</g>
		<g>
			<path class="st12" d="M30.76,19.73v5.1c0,0.44-0.51,0.69-0.86,0.42l-3.29-2.6c-0.27-0.21-0.27-0.63,0.01-0.84l3.29-2.5
				C30.26,19.04,30.76,19.29,30.76,19.73z"/>
		</g>
		<g>
			<path class="st12" d="M22.48,25.1c-0.24,0-0.43-0.19-0.43-0.43v-4.74c0-0.24,0.19-0.43,0.43-0.43c0.24,0,0.43,0.19,0.43,0.43
				v4.74C22.92,24.91,22.72,25.1,22.48,25.1z"/>
		</g>
	</g>
	<g>
		<path class="st14" d="M97.99,32.13H64.15c-1.79,0-3.23-1.45-3.23-3.23V14.87c0-1.79,1.45-3.23,3.23-3.23h33.83
			c1.79,0,3.23,1.45,3.23,3.23v14.02C101.22,30.68,99.77,32.13,97.99,32.13z"/>
	</g>
	<rect x="80.59" y="11.71" class="st12" width="0.43" height="20.34"/>
	<g>
		<g>
			<path class="st12" d="M75.14,17.72v9.1c0,0.79-0.91,1.23-1.54,0.74l-5.87-4.64c-0.49-0.38-0.48-1.12,0.01-1.5l5.87-4.46
				C74.24,16.49,75.14,16.94,75.14,17.72z"/>
		</g>
	</g>
	<g>
		<g>
			<path class="st12" d="M87.14,17.72v9.1c0,0.79,0.91,1.23,1.54,0.74l5.87-4.64c0.49-0.38,0.48-1.12-0.01-1.5l-5.87-4.46
				C88.04,16.49,87.14,16.94,87.14,17.72z"/>
		</g>
	</g>
	<g id="translate_00000044167954028741332570000014312544237446734237_">
		<g>
			<g>
				<path class="st12" d="M39.75,101.21v-1.22h5.55v1.22c0,0.4,0.47,0.6,0.76,0.34l2.12-1.94c0.2-0.18,0.2-0.49,0-0.67l-2.12-1.94
					c-0.29-0.27-0.76-0.06-0.76,0.34v1.27h-5.55v-1.27c0-0.4-0.47-0.6-0.76-0.34l-2.12,1.94c-0.2,0.18-0.2,0.49,0,0.67l2.12,1.94
					C39.27,101.81,39.75,101.61,39.75,101.21z"/>
			</g>
			<g>
				<path class="st12" d="M44.46,102.04h-1.22v-5.55h1.22c0.4,0,0.6-0.47,0.34-0.76l-1.94-2.12c-0.18-0.2-0.49-0.2-0.67,0
					l-1.94,2.12c-0.27,0.29-0.06,0.76,0.34,0.76h1.27v5.55h-1.27c-0.4,0-0.6,0.47-0.34,0.76l1.94,2.12c0.18,0.2,0.49,0.2,0.67,0
					l1.94-2.12C45.07,102.51,44.86,102.04,44.46,102.04z"/>
			</g>
		</g>
	</g>
	<g id="rotate_00000139991443067915176160000006283299169484790665_">
		<g>
			<path class="st12" d="M46.55,81.82c-0.18-0.44-0.75-0.6-1.15-0.33c-0.3,0.21-0.42,0.57-0.32,0.92c0.07,0.23,0.14,0.47,0.16,0.7
				c0.12,1.15-0.47,2.21-1.51,2.73c-0.24,0.12-0.48,0.2-0.72,0.25c-0.01,0-0.01,0-0.02,0c-0.05,0.01-0.11,0.02-0.16,0.03
				c-0.05,0.01-0.1,0.01-0.14,0.02c0,0,0,0,0,0c-0.14,0.02-0.27,0.03-0.41,0.03c-1.15-0.01-2.15-0.71-2.55-1.8
				c-0.35-0.94-0.2-1.82,0.38-2.64c0.09-0.12,0.18-0.11,0.26,0.02c0.08,0.13,0.15,0.27,0.23,0.4c0.09,0.16,0.23,0.23,0.4,0.21
				c0.17-0.02,0.28-0.12,0.33-0.29c0.3-1.01,0.6-2.03,0.9-3.04c0.02-0.08,0.02-0.18,0-0.25c-0.07-0.21-0.26-0.3-0.49-0.25
				c-0.51,0.12-1.01,0.25-1.51,0.37c0,0,0,0.01,0,0.01c-0.51,0.12-1.02,0.25-1.52,0.37c-0.18,0.04-0.3,0.15-0.33,0.33
				c-0.03,0.19,0.05,0.32,0.21,0.42c0.14,0.08,0.27,0.17,0.41,0.26c0.1,0.06,0.11,0.15,0.04,0.25c-0.02,0.02-0.03,0.04-0.05,0.06
				c-1.14,1.36-1.35,3.28-0.5,4.83c0.68,1.26,1.75,2,3.15,2.26c0.54,0.1,1.08,0.09,1.62-0.04c0.6-0.1,1.18-0.33,1.69-0.69
				c1.17-0.82,1.8-1.96,1.9-3.38C46.88,82.98,46.79,82.38,46.55,81.82z"/>
		</g>
	</g>
	<g id="root_00000078003710417838590390000008811166292877660095_">
		<g>
			<g>
				<path class="st12" d="M42.64,64.41c0.29,0,0.55,0.08,0.78,0.23v-3.13h-1.51v3.1C42.13,64.49,42.38,64.41,42.64,64.41z"/>
			</g>
			<g>
				<path class="st12" d="M41.18,65.87c0-0.28,0.08-0.53,0.21-0.75h-2.87v1.51h2.87C41.26,66.41,41.18,66.15,41.18,65.87z"/>
			</g>
			<g>
				<path class="st12" d="M42.64,67.34c-0.27,0-0.52-0.07-0.73-0.2v2.67h1.51v-2.69C43.19,67.25,42.93,67.34,42.64,67.34z"/>
			</g>
			<g>
				<path class="st12" d="M43.89,65.12c0.13,0.22,0.21,0.48,0.21,0.75c0,0.28-0.08,0.53-0.21,0.75h2.92v-1.51H43.89z"/>
			</g>
			<g>
				<circle class="st12" cx="42.64" cy="65.87" r="0.54"/>
			</g>
		</g>
		<g>
			<rect x="27.38" y="65.14" class="st12" width="5.94" height="1.51"/>
		</g>
	</g>
</g>
</svg>
