<?xml version="1.0" encoding="utf-8"?>
<!-- Generator: Adobe Illustrator 25.4.1, SVG Export Plug-In . SVG Version: 6.00 Build 0)  -->
<svg version="1.1" id="Capa_1" xmlns="http://www.w3.org/2000/svg" xmlns:xlink="http://www.w3.org/1999/xlink" x="0px" y="0px"
	 viewBox="0 0 1025.08 459.09" style="enable-background:new 0 0 1025.08 459.09;" xml:space="preserve">
<style type="text/css">
	.st0{fill:#FFFFFF;}
</style>
<g>
	<g>
		<path class="st0" d="M15.46,391.86l37.66,8.52l-0.51,2.28l-37.97,14.77l32.94,7.45l-0.6,2.66l-37.66-8.52l0.51-2.28l37.9-14.72
			l-32.89-7.44L15.46,391.86z"/>
		<path class="st0" d="M44.14,309.77l22.77,9.48c7.28,3.03,11.69,9.8,8.1,18.41c-3.61,8.67-11.46,10.33-18.79,7.28l-22.77-9.48
			l1.07-2.56l22.72,9.46c6.15,2.56,12.49,1.23,15.37-5.7c2.86-6.87-0.68-12.38-6.79-14.92l-22.72-9.46L44.14,309.77z"/>
		<path class="st0" d="M114.53,256.75l2.07,1.29l-12.42,19.89l-32.76-20.45l12.21-19.56l2.07,1.29l-10.77,17.25l12.54,7.83
			l9.85-15.79l2.07,1.29l-9.86,15.79l14,8.74L114.53,256.75z"/>
		<path class="st0" d="M138.25,214.81l0.99-2.67c4.25,2.13,8.7,1.06,12.23-3.02c3.7-4.29,4.03-9,0.62-11.94
			c-8.95-7.74-19.02,10.8-28.99,2.2c-4.12-3.56-4.15-9.39,0.39-14.64c4.03-4.67,8.64-5.75,13.28-3.73l-0.99,2.67
			c-4.07-1.75-7.43-0.84-10.51,2.74c-3.52,4.08-3.42,8.21-0.6,10.64c8.45,7.3,18.39-11.43,29.15-2.13
			c4.62,3.99,4.3,10.32-0.53,15.91C148.93,215.88,143.48,217.26,138.25,214.81z"/>
		<path class="st0" d="M191.62,122.84l-9.56,8.14l23.41,27.49l-2.11,1.8l-23.41-27.49l-9.56,8.14l-1.62-1.9L190,120.93
			L191.62,122.84z"/>
		<path class="st0" d="M254.17,101l22.35,7.5l-2.8,1.71l-22.21-7.59l-3.89,2.37l9.41,15.41l-2.32,1.42l-20.13-32.95l11.52-7.04
			c6.35-3.88,12.46-2.73,15.65,2.49c3.19,5.21,1.38,11.2-4.93,15.06L254.17,101z M246.5,103.15l9.15-5.59
			c5.12-3.13,6.28-7.62,3.82-11.65c-2.43-3.98-7.02-5.09-12.14-1.96l-9.15,5.59L246.5,103.15z"/>
		<path class="st0" d="M312.09,68.85c-4.28-10.85,0.28-21.55,10.46-25.57c10.13-4,20.82,0.69,25.1,11.54
			c4.26,10.8-0.35,21.52-10.48,25.52C326.99,84.36,316.35,79.65,312.09,68.85z M345.01,55.87c-3.73-9.46-12.8-13.52-21.48-10.1
			c-8.73,3.45-12.53,12.59-8.8,22.05c3.71,9.41,12.73,13.49,21.46,10.05C344.87,74.44,348.72,65.27,345.01,55.87z"/>
		<path class="st0" d="M398.62,51.57l2.41-1.52c2.08,4.28,6.27,6.12,11.55,5.02c5.55-1.16,8.67-4.7,7.75-9.11
			c-2.42-11.58-21.67-2.97-24.37-15.86c-1.11-5.33,2.4-9.98,9.2-11.4c6.04-1.26,10.36,0.68,12.81,5.1l-2.41,1.52
			c-2.17-3.86-5.39-5.17-10.02-4.21c-5.28,1.1-7.7,4.44-6.94,8.09c2.28,10.93,21.55,2.08,24.45,16.01
			c1.25,5.98-2.85,10.81-10.08,12.32C406.45,58.9,401.28,56.69,398.62,51.57z"/>
		<path class="st0" d="M528.72,37.98l7.97-2.45c0.74,3.78,3.48,6.03,7.41,6.31c3.49,0.24,5.65-1.11,5.82-3.6
			c0.54-7.7-19.19-5.18-18.23-18.87c0.46-6.59,5.72-10.91,14.36-10.3c7.15,0.5,11.89,4.39,12.96,9.76l-7.97,2.45
			c-0.71-3.34-2.77-5.04-5.87-5.25c-3.27-0.23-5.04,1.15-5.18,3.26c-0.51,7.37,19.27,4.74,18.26,19.31
			c-0.47,6.71-6.38,10.92-15.47,10.28C535.41,48.36,530.17,44.43,528.72,37.98z"/>
		<path class="st0" d="M632.46,55.56l-1.63,6.98l-25.54-5.96l8.77-37.6l25.21,5.88l-1.63,6.98l-17.15-4l-1.87,8.01l15.15,3.53
			l-1.63,6.98l-15.15-3.53l-2.02,8.66L632.46,55.56z"/>
		<path class="st0" d="M692.07,66.46l-1.49-0.62l-6.05,14.63l-7.55-3.12l14.75-35.69l14.58,6.03c7.65,3.16,10.65,9.57,8.13,15.68
			c-2.25,5.44-7.78,7.91-14.3,6.23l4.52,19.18l-8.47-3.5L692.07,66.46z M692.81,60.45l6.83,2.82c3.34,1.38,5.96,0.42,7.08-2.3
			c1.15-2.77-0.03-5.3-3.37-6.68l-6.83-2.82L692.81,60.45z"/>
		<path class="st0" d="M795.63,95.63l-31.74,25.68l-8.57-5.37l9.23-39.77l7.25,4.54l-7.04,29.67l23.62-19.3L795.63,95.63z"/>
		<path class="st0" d="M837.21,127.4l6.3,5.37l-25.04,29.39l-6.3-5.37L837.21,127.4z"/>
		<path class="st0" d="M868.21,182.85c8.81-7.65,20.75-6.7,28.18,1.86c6.52,7.51,5.92,16.13,2.36,21.94l-7.64-3.88
			c2.77-4.18,2.94-8.81-0.78-13.09c-4.34-4.99-11.09-5.31-16.62-0.5c-5.49,4.77-6.12,11.5-1.75,16.53
			c3.72,4.28,8.25,4.75,12.82,2.55l2.78,8.11c-6.46,2.82-14.95,2.02-21.43-5.44C858.73,202.42,859.45,190.46,868.21,182.85z"/>
		<path class="st0" d="M938.6,242.24l4.43,6.99l-32.61,20.67l-4.43-6.99L938.6,242.24z"/>
		<path class="st0" d="M951.87,304.35c10.44-4.54,21.91,0.09,26.44,10.49s0.08,21.9-10.36,26.44c-10.39,4.52-21.84-0.07-26.36-10.46
			C937.06,320.43,941.48,308.88,951.87,304.35z M964.65,333.57c6.47-2.82,9.31-9.08,6.48-15.6s-9.39-8.76-15.85-5.94
			c-6.57,2.86-9.3,9.26-6.51,15.68C951.56,334.12,958.08,336.43,964.65,333.57z"/>
		<path class="st0" d="M973.44,390.53l4.74,6.86c-3.38,1.85-4.7,5.14-3.78,8.97c0.82,3.4,2.76,5.05,5.19,4.46
			c7.51-1.81-0.85-19.85,12.48-23.08c6.43-1.55,12.12,2.16,14.16,10.58c1.68,6.97-0.6,12.66-5.39,15.3l-4.74-6.86
			c2.96-1.69,3.97-4.16,3.24-7.18c-0.77-3.19-2.62-4.45-4.67-3.96c-7.18,1.74,1.3,19.8-12.9,23.24
			c-6.53,1.58-12.33-2.79-14.47-11.65C965.56,400.03,967.73,393.85,973.44,390.53z"/>
	</g>
</g>
</svg>
